%
M48
M72
T01C0.0120
T02C0.0150
T03C0.0200
T04C0.0256
T05C0.0315
T06C0.0400
T07C0.0800
T08C0.1300
%
T01
X10843Y11293
X11893Y11393
X12343Y12243
X11893Y12893
X10893Y12893
X15993Y16893
X17193Y17993
X17393Y18893
X17143Y19693
X15393Y21393
X15893Y22893
X16193Y23893
X16893Y23893
X17243Y24243
X17593Y24243
X18893Y25143
X19393Y26393
X19393Y26893
X19393Y27393
X18643Y26893
X17093Y28143
X17043Y26343
X15393Y27393
X14893Y27143
X14893Y28093
X13393Y28143
X13493Y27343
X13543Y26693
X13543Y25793
X13518Y25218
X13043Y24343
X11993Y25043
X11893Y25693
X11293Y24943
X10893Y23893
X10743Y21343
X11393Y20198
X12393Y20448
X11393Y19448
X11393Y18698
X12393Y18448
X18393Y17893
X18893Y17893
X19504Y17063
X19743Y16193
X21393Y16393
X23393Y15393
X25393Y14393
X27888Y13488
X27893Y11893
X26893Y11893
X25893Y11893
X21888Y13488
X18893Y11393
X26893Y16693
X28193Y17393
X27893Y17893
X29893Y17893
X30493Y17893
X31093Y17393
X32693Y18943
X33093Y18943
X33393Y18743
X33643Y19193
X34293Y17993
X35893Y18193
X35893Y17593
X36393Y17393
X35893Y16793
X36143Y18993
X35843Y20393
X34893Y20893
X34393Y20393
X33893Y20893
X33393Y20743
X33043Y20743
X32643Y20743
X32393Y20393
X32643Y21493
X32393Y21793
X32693Y22293
X32393Y22443
X31043Y23093
X31693Y23543
X29943Y22593
X29743Y22193
X30143Y21793
X29893Y20193
X29893Y19393
X31643Y19193
X33643Y21393
X33893Y21893
X34393Y22393
X35093Y22393
X35443Y22393
X35843Y22393
X34893Y21893
X35843Y21393
X35843Y23643
X35743Y23993
X36443Y23643
X34949Y24793
X34408Y24293
X34143Y24043
X34749Y25770
X34528Y26016
X35393Y27393
X34393Y27443
X32893Y27593
X31293Y26193
X31309Y25777
X31643Y25293
X27393Y27393
X26393Y26093
X23393Y25893
X22893Y27893
X21893Y27893
X21393Y28393
X23793Y28393
X21293Y30843
X20293Y30843
X18793Y31393
X17793Y31393
X18893Y32593
X21888Y34688
X23393Y36593
X25393Y35593
X27888Y34688
X27893Y33093
X26893Y33093
X25893Y33093
X28293Y37043
X28193Y38593
X27893Y39093
X26893Y37893
X29893Y39093
X30493Y39093
X31093Y38593
X30893Y37093
X31393Y37093
X31893Y37093
X32393Y37093
X32693Y37093
X33093Y37093
X34293Y39193
X33393Y39943
X33093Y40143
X32693Y40143
X33643Y40393
X34393Y41593
X33893Y42093
X33393Y41943
X33043Y41943
X32643Y41943
X32393Y41593
X32643Y42693
X32393Y42993
X32693Y43493
X32393Y43643
X31693Y44743
X31043Y44293
X29943Y43793
X29743Y43393
X30143Y42993
X29893Y41393
X29893Y40593
X31643Y40393
X33643Y42593
X33893Y43093
X34393Y43593
X35093Y43593
X35443Y43593
X35843Y43593
X35843Y42593
X34893Y42093
X35843Y41593
X36143Y40193
X35893Y39393
X35893Y38793
X36393Y38593
X35893Y37993
X39893Y39898
X39893Y40648
X39893Y41398
X40893Y41648
X39243Y42543
X39393Y45093
X39793Y46143
X40493Y46243
X40393Y46893
X40743Y47743
X42043Y47893
X41993Y48543
X43393Y48343
X43893Y48593
X43393Y49293
X41893Y49343
X40443Y49043
X39843Y49043
X42043Y46993
X42018Y46418
X41543Y45543
X44693Y45093
X45393Y45093
X45743Y45443
X46093Y45443
X47393Y46343
X47893Y47593
X47893Y48093
X47893Y48593
X47143Y48093
X45543Y47543
X45593Y49343
X42393Y51593
X40893Y51593
X46293Y52593
X47293Y52593
X48793Y52043
X49793Y52043
X49893Y49593
X50393Y49093
X51393Y49093
X52293Y49593
X51893Y47093
X54893Y47293
X55893Y48593
X59793Y47393
X59809Y46977
X60143Y46493
X62643Y45243
X62908Y45493
X63449Y45993
X63249Y46970
X63028Y47216
X62893Y48643
X63893Y48593
X61393Y48793
X63543Y52093
X63293Y52593
X64243Y45193
X64343Y44843
X64943Y44843
X64343Y43593
X63943Y43593
X63593Y43593
X63393Y43093
X62893Y43593
X62393Y43093
X62143Y42593
X62393Y42093
X61893Y41943
X61543Y41943
X61143Y41943
X60893Y41593
X61143Y42693
X60893Y42993
X61193Y43493
X60893Y43643
X60193Y44743
X59543Y44293
X58443Y43793
X58243Y43393
X58643Y42993
X58393Y41393
X58393Y40593
X60143Y40393
X61193Y40143
X61593Y40143
X61893Y39943
X62143Y40393
X62793Y39193
X64393Y39393
X64393Y38793
X64893Y38593
X64393Y37993
X64643Y40193
X64343Y41593
X64343Y42593
X63393Y42093
X62893Y41593
X58993Y39093
X58393Y39093
X59593Y38593
X59393Y37093
X59893Y37093
X60393Y37093
X60893Y37093
X61193Y37093
X61593Y37093
X56793Y37043
X56693Y38593
X56393Y39093
X55393Y37893
X53893Y35593
X51893Y36593
X49893Y37593
X48243Y37393
X48004Y38263
X47393Y39093
X46893Y39093
X45693Y39193
X45893Y40093
X45643Y40893
X43893Y42593
X44393Y44093
X48593Y42593
X48343Y39993
X44493Y38093
X40893Y39648
X34893Y43093
X35843Y44843
X35743Y45193
X36443Y44843
X34949Y45993
X34408Y45493
X34143Y45243
X34749Y46970
X34528Y47216
X34393Y48643
X35393Y48593
X32893Y48793
X31293Y47393
X31309Y46977
X31643Y46493
X27393Y48593
X26393Y47293
X23393Y47093
X22893Y49093
X21893Y49093
X21393Y49593
X19393Y48593
X19393Y48093
X19393Y47593
X18643Y48093
X17043Y47543
X15393Y48593
X14893Y48343
X14893Y49293
X13393Y49343
X13493Y48543
X13543Y47893
X13543Y46993
X13518Y46418
X13043Y45543
X11993Y46243
X11893Y46893
X11293Y46143
X10893Y45093
X10743Y42543
X11393Y41398
X11393Y40648
X11393Y39898
X12393Y39648
X12393Y41648
X15393Y42593
X15893Y44093
X16193Y45093
X16893Y45093
X17243Y45443
X17593Y45443
X18893Y46343
X17093Y49343
X13893Y51593
X12393Y51593
X11943Y49043
X11343Y49043
X12243Y47743
X17793Y52593
X18793Y52593
X20293Y52043
X21293Y52043
X23793Y49593
X20093Y42593
X17143Y40893
X17393Y40093
X17193Y39193
X18393Y39093
X18893Y39093
X19504Y38263
X19743Y37393
X21393Y37593
X19843Y39993
X15993Y38093
X11893Y34093
X12343Y33443
X11893Y32593
X10843Y32493
X10893Y34093
X12393Y30393
X13893Y30393
X11943Y27843
X11343Y27843
X12243Y26543
X20093Y21393
X19843Y18793
X28293Y15843
X30893Y15893
X31393Y15893
X31893Y15893
X32393Y15893
X32693Y15893
X33093Y15893
X39393Y12893
X40393Y12893
X40843Y12243
X40393Y11393
X39343Y11293
X44493Y16893
X45693Y17993
X45893Y18893
X45643Y19693
X43893Y21393
X44393Y22893
X44693Y23893
X45393Y23893
X45743Y24243
X46093Y24243
X47393Y25143
X47893Y26393
X47893Y26893
X47893Y27393
X47143Y26893
X45543Y26343
X43893Y27393
X43393Y27143
X41993Y27343
X42043Y26693
X42043Y25793
X42018Y25218
X41543Y24343
X40493Y25043
X40393Y25693
X39793Y24943
X39393Y23893
X39243Y21343
X39893Y20198
X40893Y20448
X39893Y19448
X39893Y18698
X40893Y18448
X46893Y17893
X47393Y17893
X48004Y17063
X48243Y16193
X49893Y16393
X51893Y15393
X53893Y14393
X56388Y13488
X56393Y11893
X55393Y11893
X54393Y11893
X50388Y13488
X47393Y11393
X55393Y16693
X56693Y17393
X56393Y17893
X58393Y17893
X58993Y17893
X59593Y17393
X61193Y18943
X61593Y18943
X61893Y18743
X62143Y19193
X62793Y17993
X64393Y18193
X64393Y17593
X64893Y17393
X64393Y16793
X64643Y18993
X64343Y20393
X64343Y21393
X64343Y22393
X63943Y22393
X63593Y22393
X63393Y21893
X62893Y22393
X62393Y21893
X62143Y21393
X62393Y20893
X61893Y20743
X61543Y20743
X61143Y20743
X60893Y20393
X61143Y21493
X60893Y21793
X61193Y22293
X60893Y22443
X60193Y23543
X59543Y23093
X58443Y22593
X58243Y22193
X58643Y21793
X58393Y20193
X58393Y19393
X60143Y19193
X62893Y20393
X63393Y20893
X64343Y23643
X64243Y23993
X64943Y23643
X63449Y24793
X62908Y24293
X62643Y24043
X60143Y25293
X59809Y25777
X59793Y26193
X61393Y27593
X62893Y27443
X63893Y27393
X63028Y26016
X63249Y25770
X63543Y30893
X63293Y31393
X56393Y33093
X55393Y33093
X54393Y33093
X56388Y34688
X50388Y34688
X47393Y32593
X47293Y31393
X48793Y30843
X49793Y30843
X49893Y28393
X50393Y27893
X51393Y27893
X52293Y28393
X51893Y25893
X54893Y26093
X55893Y27393
X48593Y21393
X48343Y18793
X56793Y15843
X59393Y15893
X59893Y15893
X60393Y15893
X60893Y15893
X61193Y15893
X61593Y15893
X45593Y28143
X43393Y28093
X41893Y28143
X40443Y27843
X39843Y27843
X40743Y26543
X40893Y30393
X42393Y30393
X40393Y32593
X40843Y33443
X40393Y34093
X39393Y34093
X39343Y32493
X35043Y30893
X34793Y31393
X46293Y31393
X35043Y52093
X34793Y52593
T02
X48393Y50253
X19893Y50253
X19893Y29053
X48393Y29053
T03
X56393Y24843
X56393Y24343
X56893Y24343
X56893Y24843
X57393Y24843
X57393Y24343
X57893Y24343
X57893Y24843
X58393Y24843
X58393Y24343
X29893Y24343
X29393Y24343
X28893Y24343
X28393Y24343
X27893Y24343
X27893Y24843
X28393Y24843
X28893Y24843
X29393Y24843
X29893Y24843
X29893Y45543
X29393Y45543
X28893Y45543
X28393Y45543
X27893Y45543
X27893Y46043
X28393Y46043
X28893Y46043
X29393Y46043
X29893Y46043
X56393Y46043
X56393Y45543
X56893Y45543
X56893Y46043
X57393Y46043
X57393Y45543
X57893Y45543
X57893Y46043
X58393Y46043
X58393Y45543
T04
X40824Y46456
X40824Y48731
X12324Y48731
X12324Y46456
X12324Y27531
X12324Y25256
X40824Y25256
X40824Y27531
T05
X33787Y17893
X62287Y17893
X62287Y39093
X33787Y39093
T06
X22393Y40093
X21393Y40093
X15393Y29893
X14393Y29893
X21393Y18893
X22393Y18893
X42893Y29893
X43893Y29893
X49893Y40093
X50893Y40093
X43893Y51093
X42893Y51093
X15393Y51093
X14393Y51093
X49893Y18893
X50893Y18893
T07
X41493Y14293
X39693Y14293
X12993Y14293
X11193Y14293
X11193Y35493
X12993Y35493
X39693Y35493
X41493Y35493
T08
X44393Y33093
X44893Y30893
X36393Y35093
X36393Y24893
X36393Y13893
X44393Y11893
X64893Y13893
X64893Y24893
X64893Y35093
X64893Y46093
X44893Y52093
X36393Y46093
X16393Y52093
X15893Y33093
X16393Y30893
X15893Y11893
M30
