G75*
%MOIN*%
%OFA0B0*%
%FSLAX25Y25*%
%IPPOS*%
%LPD*%
%AMOC8*
5,1,8,0,0,1.08239X$1,22.5*
%
%ADD10C,0.13800*%
%ADD11C,0.08800*%
%ADD12C,0.03359*%
%ADD13R,0.12611X0.04343*%
%ADD14C,0.05800*%
%ADD15C,0.04737*%
%ADD16R,0.10800X0.07800*%
%ADD17C,0.32296*%
%ADD18C,0.08200*%
%ADD19C,0.03950*%
%ADD20R,0.05800X0.03300*%
%ADD21C,0.00500*%
%ADD22C,0.05000*%
%ADD23C,0.06706*%
D10*
X0158933Y0118933D03*
X0363933Y0138933D03*
X0440933Y0118933D03*
X0363933Y0248933D03*
X0445933Y0308933D03*
X0440933Y0330933D03*
X0363933Y0350933D03*
X0363933Y0460933D03*
X0445933Y0520933D03*
X0645933Y0460933D03*
X0645933Y0350933D03*
X0645933Y0248933D03*
X0645933Y0138933D03*
X0163933Y0308933D03*
X0158933Y0330933D03*
X0163933Y0520933D03*
D11*
X0129933Y0354933D03*
X0111933Y0354933D03*
X0393933Y0354933D03*
X0411933Y0354933D03*
X0411933Y0142933D03*
X0393933Y0142933D03*
X0129933Y0142933D03*
X0111933Y0142933D03*
D12*
X0123244Y0252555D03*
X0123244Y0275311D03*
X0123244Y0464555D03*
X0123244Y0487311D03*
X0405244Y0487311D03*
X0405244Y0464555D03*
X0405244Y0275311D03*
X0405244Y0252555D03*
D13*
X0393433Y0253433D03*
X0393433Y0260433D03*
X0393433Y0267433D03*
X0393433Y0274433D03*
X0393433Y0465433D03*
X0393433Y0472433D03*
X0393433Y0479433D03*
X0393433Y0486433D03*
X0111433Y0486433D03*
X0111433Y0479433D03*
X0111433Y0472433D03*
X0111433Y0465433D03*
X0111433Y0274433D03*
X0111433Y0267433D03*
X0111433Y0260433D03*
X0111433Y0253433D03*
D14*
X0153933Y0253933D03*
X0158933Y0268933D03*
X0278933Y0233933D03*
X0292933Y0233933D03*
X0298933Y0233933D03*
X0338933Y0218933D03*
X0343933Y0223933D03*
X0348933Y0218933D03*
X0348933Y0208933D03*
X0343933Y0203933D03*
X0338933Y0208933D03*
X0435933Y0253933D03*
X0440933Y0268933D03*
X0560933Y0233933D03*
X0574933Y0233933D03*
X0580933Y0233933D03*
X0620933Y0218933D03*
X0625933Y0223933D03*
X0630933Y0218933D03*
X0630933Y0208933D03*
X0625933Y0203933D03*
X0620933Y0208933D03*
X0625933Y0415933D03*
X0620933Y0420933D03*
X0620933Y0430933D03*
X0625933Y0435933D03*
X0630933Y0430933D03*
X0630933Y0420933D03*
X0580933Y0445933D03*
X0574933Y0445933D03*
X0560933Y0445933D03*
X0440933Y0480933D03*
X0435933Y0465933D03*
X0348933Y0430933D03*
X0343933Y0435933D03*
X0338933Y0430933D03*
X0338933Y0420933D03*
X0343933Y0415933D03*
X0348933Y0420933D03*
X0298933Y0445933D03*
X0292933Y0445933D03*
X0278933Y0445933D03*
X0158933Y0480933D03*
X0153933Y0465933D03*
D15*
X0140933Y0539183D03*
X0278933Y0460433D03*
X0278933Y0455433D03*
X0283933Y0455433D03*
X0283933Y0460433D03*
X0288933Y0460433D03*
X0288933Y0455433D03*
X0293933Y0455433D03*
X0298933Y0455433D03*
X0298933Y0460433D03*
X0293933Y0460433D03*
X0560933Y0460433D03*
X0560933Y0455433D03*
X0565933Y0455433D03*
X0565933Y0460433D03*
X0570933Y0460433D03*
X0570933Y0455433D03*
X0575933Y0455433D03*
X0575933Y0460433D03*
X0580933Y0460433D03*
X0580933Y0455433D03*
X0618933Y0539183D03*
X0580933Y0248433D03*
X0580933Y0243433D03*
X0575933Y0243433D03*
X0570933Y0243433D03*
X0565933Y0243433D03*
X0560933Y0243433D03*
X0560933Y0248433D03*
X0565933Y0248433D03*
X0570933Y0248433D03*
X0575933Y0248433D03*
X0298933Y0248433D03*
X0293933Y0248433D03*
X0293933Y0243433D03*
X0288933Y0243433D03*
X0283933Y0243433D03*
X0278933Y0243433D03*
X0278933Y0248433D03*
X0283933Y0248433D03*
X0288933Y0248433D03*
X0298933Y0243433D03*
D16*
X0195035Y0257240D03*
X0182831Y0257240D03*
X0182831Y0170626D03*
X0195035Y0170626D03*
X0464831Y0170626D03*
X0477035Y0170626D03*
X0477035Y0257240D03*
X0464831Y0257240D03*
X0464831Y0382626D03*
X0477035Y0382626D03*
X0477035Y0469240D03*
X0464831Y0469240D03*
X0195035Y0469240D03*
X0182831Y0469240D03*
X0182831Y0382626D03*
X0195035Y0382626D03*
D17*
X0188933Y0416091D02*
X0188933Y0435775D01*
X0470933Y0435775D02*
X0470933Y0416091D01*
X0470933Y0223775D02*
X0470933Y0204091D01*
X0188933Y0204091D02*
X0188933Y0223775D01*
D18*
X0213933Y0188933D03*
X0223933Y0188933D03*
X0153933Y0298933D03*
X0143933Y0298933D03*
X0213933Y0400933D03*
X0223933Y0400933D03*
X0153933Y0510933D03*
X0143933Y0510933D03*
X0425933Y0510933D03*
X0435933Y0510933D03*
X0495933Y0400933D03*
X0505933Y0400933D03*
X0435933Y0298933D03*
X0425933Y0298933D03*
X0495933Y0188933D03*
X0505933Y0188933D03*
D19*
X0619870Y0178933D03*
X0337870Y0178933D03*
X0337870Y0390933D03*
X0619870Y0390933D03*
D20*
X0480933Y0285933D03*
X0480933Y0281933D03*
X0198933Y0281933D03*
X0198933Y0285933D03*
X0198933Y0493933D03*
X0198933Y0497933D03*
X0480933Y0497933D03*
X0480933Y0493933D03*
D21*
X0480433Y0495183D02*
X0481433Y0495183D01*
X0481433Y0496683D01*
X0480433Y0496683D01*
X0480433Y0495183D01*
X0480433Y0495279D02*
X0481433Y0495279D01*
X0481433Y0495778D02*
X0480433Y0495778D01*
X0480433Y0496276D02*
X0481433Y0496276D01*
X0199433Y0496276D02*
X0198433Y0496276D01*
X0198433Y0496683D02*
X0198433Y0495183D01*
X0199433Y0495183D01*
X0199433Y0496683D01*
X0198433Y0496683D01*
X0198433Y0495778D02*
X0199433Y0495778D01*
X0199433Y0495279D02*
X0198433Y0495279D01*
X0198433Y0284683D02*
X0198433Y0283183D01*
X0199433Y0283183D01*
X0199433Y0284683D01*
X0198433Y0284683D01*
X0198433Y0284409D02*
X0199433Y0284409D01*
X0199433Y0283911D02*
X0198433Y0283911D01*
X0198433Y0283412D02*
X0199433Y0283412D01*
X0480433Y0283412D02*
X0481433Y0283412D01*
X0481433Y0283183D02*
X0480433Y0283183D01*
X0480433Y0284683D01*
X0481433Y0284683D01*
X0481433Y0283183D01*
X0481433Y0283911D02*
X0480433Y0283911D01*
X0480433Y0284409D02*
X0481433Y0284409D01*
D22*
X0137368Y0100683D02*
X0137370Y0100802D01*
X0137376Y0100921D01*
X0137386Y0101040D01*
X0137400Y0101158D01*
X0137418Y0101276D01*
X0137439Y0101393D01*
X0137465Y0101509D01*
X0137495Y0101625D01*
X0137528Y0101739D01*
X0137565Y0101852D01*
X0137606Y0101964D01*
X0137651Y0102075D01*
X0137699Y0102184D01*
X0137751Y0102291D01*
X0137807Y0102396D01*
X0137866Y0102500D01*
X0137928Y0102601D01*
X0137994Y0102701D01*
X0138063Y0102798D01*
X0138135Y0102892D01*
X0138211Y0102985D01*
X0138289Y0103074D01*
X0138370Y0103161D01*
X0138455Y0103246D01*
X0138542Y0103327D01*
X0138631Y0103405D01*
X0138724Y0103481D01*
X0138818Y0103553D01*
X0138915Y0103622D01*
X0139015Y0103688D01*
X0139116Y0103750D01*
X0139220Y0103809D01*
X0139325Y0103865D01*
X0139432Y0103917D01*
X0139541Y0103965D01*
X0139652Y0104010D01*
X0139764Y0104051D01*
X0139877Y0104088D01*
X0139991Y0104121D01*
X0140107Y0104151D01*
X0140223Y0104177D01*
X0140340Y0104198D01*
X0140458Y0104216D01*
X0140576Y0104230D01*
X0140695Y0104240D01*
X0140814Y0104246D01*
X0140933Y0104248D01*
X0141052Y0104246D01*
X0141171Y0104240D01*
X0141290Y0104230D01*
X0141408Y0104216D01*
X0141526Y0104198D01*
X0141643Y0104177D01*
X0141759Y0104151D01*
X0141875Y0104121D01*
X0141989Y0104088D01*
X0142102Y0104051D01*
X0142214Y0104010D01*
X0142325Y0103965D01*
X0142434Y0103917D01*
X0142541Y0103865D01*
X0142646Y0103809D01*
X0142750Y0103750D01*
X0142851Y0103688D01*
X0142951Y0103622D01*
X0143048Y0103553D01*
X0143142Y0103481D01*
X0143235Y0103405D01*
X0143324Y0103327D01*
X0143411Y0103246D01*
X0143496Y0103161D01*
X0143577Y0103074D01*
X0143655Y0102985D01*
X0143731Y0102892D01*
X0143803Y0102798D01*
X0143872Y0102701D01*
X0143938Y0102601D01*
X0144000Y0102500D01*
X0144059Y0102396D01*
X0144115Y0102291D01*
X0144167Y0102184D01*
X0144215Y0102075D01*
X0144260Y0101964D01*
X0144301Y0101852D01*
X0144338Y0101739D01*
X0144371Y0101625D01*
X0144401Y0101509D01*
X0144427Y0101393D01*
X0144448Y0101276D01*
X0144466Y0101158D01*
X0144480Y0101040D01*
X0144490Y0100921D01*
X0144496Y0100802D01*
X0144498Y0100683D01*
X0144496Y0100564D01*
X0144490Y0100445D01*
X0144480Y0100326D01*
X0144466Y0100208D01*
X0144448Y0100090D01*
X0144427Y0099973D01*
X0144401Y0099857D01*
X0144371Y0099741D01*
X0144338Y0099627D01*
X0144301Y0099514D01*
X0144260Y0099402D01*
X0144215Y0099291D01*
X0144167Y0099182D01*
X0144115Y0099075D01*
X0144059Y0098970D01*
X0144000Y0098866D01*
X0143938Y0098765D01*
X0143872Y0098665D01*
X0143803Y0098568D01*
X0143731Y0098474D01*
X0143655Y0098381D01*
X0143577Y0098292D01*
X0143496Y0098205D01*
X0143411Y0098120D01*
X0143324Y0098039D01*
X0143235Y0097961D01*
X0143142Y0097885D01*
X0143048Y0097813D01*
X0142951Y0097744D01*
X0142851Y0097678D01*
X0142750Y0097616D01*
X0142646Y0097557D01*
X0142541Y0097501D01*
X0142434Y0097449D01*
X0142325Y0097401D01*
X0142214Y0097356D01*
X0142102Y0097315D01*
X0141989Y0097278D01*
X0141875Y0097245D01*
X0141759Y0097215D01*
X0141643Y0097189D01*
X0141526Y0097168D01*
X0141408Y0097150D01*
X0141290Y0097136D01*
X0141171Y0097126D01*
X0141052Y0097120D01*
X0140933Y0097118D01*
X0140814Y0097120D01*
X0140695Y0097126D01*
X0140576Y0097136D01*
X0140458Y0097150D01*
X0140340Y0097168D01*
X0140223Y0097189D01*
X0140107Y0097215D01*
X0139991Y0097245D01*
X0139877Y0097278D01*
X0139764Y0097315D01*
X0139652Y0097356D01*
X0139541Y0097401D01*
X0139432Y0097449D01*
X0139325Y0097501D01*
X0139220Y0097557D01*
X0139116Y0097616D01*
X0139015Y0097678D01*
X0138915Y0097744D01*
X0138818Y0097813D01*
X0138724Y0097885D01*
X0138631Y0097961D01*
X0138542Y0098039D01*
X0138455Y0098120D01*
X0138370Y0098205D01*
X0138289Y0098292D01*
X0138211Y0098381D01*
X0138135Y0098474D01*
X0138063Y0098568D01*
X0137994Y0098665D01*
X0137928Y0098765D01*
X0137866Y0098866D01*
X0137807Y0098970D01*
X0137751Y0099075D01*
X0137699Y0099182D01*
X0137651Y0099291D01*
X0137606Y0099402D01*
X0137565Y0099514D01*
X0137528Y0099627D01*
X0137495Y0099741D01*
X0137465Y0099857D01*
X0137439Y0099973D01*
X0137418Y0100090D01*
X0137400Y0100208D01*
X0137386Y0100326D01*
X0137376Y0100445D01*
X0137370Y0100564D01*
X0137368Y0100683D01*
D23*
X0140933Y0100683D03*
M02*
