G75*
%MOIN*%
%OFA0B0*%
%FSLAX25Y25*%
%IPPOS*%
%LPD*%
%AMOC8*
5,1,8,0,0,1.08239X$1,22.5*
%
%ADD10R,0.04331X0.03937*%
%ADD11R,0.05512X0.06299*%
%ADD12R,0.05512X0.11811*%
%ADD13R,0.03937X0.04331*%
%ADD14R,0.03543X0.03150*%
%ADD15R,0.06000X0.03300*%
%ADD16R,0.07000X0.12300*%
%ADD17R,0.03937X0.07874*%
%ADD18R,0.04724X0.05512*%
%ADD19R,0.05787X0.05000*%
%ADD20R,0.11024X0.09449*%
%ADD21R,0.11020X0.05850*%
%ADD22R,0.04724X0.02165*%
%ADD23R,0.07874X0.04724*%
%ADD24R,0.05315X0.02362*%
%ADD25R,0.04000X0.01181*%
%ADD26R,0.04000X0.02362*%
%ADD27R,0.04000X0.02165*%
%ADD28C,0.00039*%
%ADD29R,0.04724X0.02362*%
%ADD30R,0.06000X0.03000*%
%ADD31R,0.03937X0.11024*%
%ADD32R,0.03268X0.02480*%
%ADD33R,0.07087X0.03937*%
%ADD34R,0.02055X0.02854*%
%ADD35R,0.00787X0.01969*%
%ADD36C,0.00197*%
%ADD37R,0.01969X0.00787*%
%ADD38R,0.01575X0.02362*%
%ADD39R,0.02362X0.02362*%
%ADD40R,0.02362X0.01575*%
D10*
X0153087Y0176933D03*
X0159780Y0176933D03*
X0159780Y0186933D03*
X0153087Y0186933D03*
X0147280Y0211933D03*
X0147280Y0217933D03*
X0140587Y0217933D03*
X0140587Y0211933D03*
X0114280Y0225433D03*
X0107587Y0225433D03*
X0107587Y0232433D03*
X0114280Y0232433D03*
X0150587Y0238933D03*
X0157280Y0238933D03*
X0175587Y0256933D03*
X0175587Y0262933D03*
X0182280Y0262933D03*
X0182280Y0256933D03*
X0185587Y0241433D03*
X0192280Y0241433D03*
X0192280Y0226433D03*
X0185587Y0226433D03*
X0185587Y0211433D03*
X0192280Y0211433D03*
X0187280Y0188933D03*
X0180587Y0188933D03*
X0255587Y0166933D03*
X0262280Y0166933D03*
X0304587Y0183933D03*
X0311280Y0183933D03*
X0311280Y0190433D03*
X0311280Y0196433D03*
X0311280Y0202433D03*
X0304587Y0202433D03*
X0304587Y0196433D03*
X0304587Y0190433D03*
X0304587Y0222433D03*
X0311280Y0222433D03*
X0389587Y0225433D03*
X0396280Y0225433D03*
X0396280Y0232433D03*
X0389587Y0232433D03*
X0422587Y0217933D03*
X0422587Y0211933D03*
X0429280Y0211933D03*
X0429280Y0217933D03*
X0432587Y0238933D03*
X0439280Y0238933D03*
X0457587Y0256933D03*
X0457587Y0262933D03*
X0464280Y0262933D03*
X0464280Y0256933D03*
X0467587Y0241433D03*
X0474280Y0241433D03*
X0474280Y0226433D03*
X0467587Y0226433D03*
X0467587Y0211433D03*
X0474280Y0211433D03*
X0469280Y0188933D03*
X0462587Y0188933D03*
X0441780Y0186933D03*
X0435087Y0186933D03*
X0435087Y0176933D03*
X0441780Y0176933D03*
X0537587Y0166933D03*
X0544280Y0166933D03*
X0586587Y0183933D03*
X0593280Y0183933D03*
X0593280Y0190433D03*
X0593280Y0196433D03*
X0593280Y0202433D03*
X0586587Y0202433D03*
X0586587Y0196433D03*
X0586587Y0190433D03*
X0586587Y0222433D03*
X0593280Y0222433D03*
X0464280Y0268933D03*
X0464280Y0274933D03*
X0457587Y0274933D03*
X0457587Y0268933D03*
X0452280Y0288933D03*
X0452280Y0294933D03*
X0445587Y0294933D03*
X0445587Y0288933D03*
X0439280Y0288933D03*
X0432587Y0288933D03*
X0426280Y0288933D03*
X0419587Y0288933D03*
X0537587Y0378933D03*
X0544280Y0378933D03*
X0586587Y0395933D03*
X0586587Y0402433D03*
X0593280Y0402433D03*
X0593280Y0395933D03*
X0593280Y0408433D03*
X0593280Y0414433D03*
X0586587Y0414433D03*
X0586587Y0408433D03*
X0586587Y0434433D03*
X0593280Y0434433D03*
X0474280Y0438433D03*
X0467587Y0438433D03*
X0467587Y0423433D03*
X0474280Y0423433D03*
X0469280Y0400933D03*
X0462587Y0400933D03*
X0441780Y0398933D03*
X0435087Y0398933D03*
X0435087Y0388933D03*
X0441780Y0388933D03*
X0429280Y0423933D03*
X0429280Y0429933D03*
X0422587Y0429933D03*
X0422587Y0423933D03*
X0396280Y0437433D03*
X0389587Y0437433D03*
X0389587Y0444433D03*
X0396280Y0444433D03*
X0432587Y0450933D03*
X0439280Y0450933D03*
X0457587Y0468933D03*
X0457587Y0474933D03*
X0457587Y0480933D03*
X0464280Y0480933D03*
X0464280Y0474933D03*
X0464280Y0468933D03*
X0467587Y0453433D03*
X0474280Y0453433D03*
X0464280Y0486933D03*
X0457587Y0486933D03*
X0452280Y0500933D03*
X0452280Y0506933D03*
X0445587Y0506933D03*
X0445587Y0500933D03*
X0439280Y0500933D03*
X0432587Y0500933D03*
X0426280Y0500933D03*
X0419587Y0500933D03*
X0311280Y0434433D03*
X0304587Y0434433D03*
X0304587Y0414433D03*
X0304587Y0408433D03*
X0311280Y0408433D03*
X0311280Y0414433D03*
X0311280Y0402433D03*
X0311280Y0395933D03*
X0304587Y0395933D03*
X0304587Y0402433D03*
X0262280Y0378933D03*
X0255587Y0378933D03*
X0192280Y0423433D03*
X0185587Y0423433D03*
X0185587Y0438433D03*
X0192280Y0438433D03*
X0192280Y0453433D03*
X0185587Y0453433D03*
X0182280Y0468933D03*
X0182280Y0474933D03*
X0182280Y0480933D03*
X0175587Y0480933D03*
X0175587Y0474933D03*
X0175587Y0468933D03*
X0157280Y0450933D03*
X0150587Y0450933D03*
X0147280Y0429933D03*
X0147280Y0423933D03*
X0140587Y0423933D03*
X0140587Y0429933D03*
X0114280Y0437433D03*
X0107587Y0437433D03*
X0107587Y0444433D03*
X0114280Y0444433D03*
X0153087Y0398933D03*
X0159780Y0398933D03*
X0159780Y0388933D03*
X0153087Y0388933D03*
X0180587Y0400933D03*
X0187280Y0400933D03*
X0182280Y0486933D03*
X0175587Y0486933D03*
X0170280Y0500933D03*
X0170280Y0506933D03*
X0163587Y0506933D03*
X0163587Y0500933D03*
X0157280Y0500933D03*
X0150587Y0500933D03*
X0144280Y0500933D03*
X0137587Y0500933D03*
X0163587Y0294933D03*
X0163587Y0288933D03*
X0157280Y0288933D03*
X0150587Y0288933D03*
X0144280Y0288933D03*
X0137587Y0288933D03*
X0170280Y0288933D03*
X0170280Y0294933D03*
X0175587Y0274933D03*
X0175587Y0268933D03*
X0182280Y0268933D03*
X0182280Y0274933D03*
D11*
X0151445Y0228933D03*
X0140421Y0228933D03*
X0178421Y0196933D03*
X0189445Y0196933D03*
X0189445Y0161933D03*
X0178421Y0161933D03*
X0422421Y0228933D03*
X0433445Y0228933D03*
X0460421Y0196933D03*
X0471445Y0196933D03*
X0471445Y0161933D03*
X0460421Y0161933D03*
X0460421Y0373933D03*
X0471445Y0373933D03*
X0471445Y0408933D03*
X0460421Y0408933D03*
X0433445Y0440933D03*
X0422421Y0440933D03*
X0189445Y0408933D03*
X0178421Y0408933D03*
X0151445Y0440933D03*
X0140421Y0440933D03*
X0178421Y0373933D03*
X0189445Y0373933D03*
D12*
X0188933Y0353382D03*
X0188933Y0334484D03*
X0188933Y0141382D03*
X0188933Y0122484D03*
X0470933Y0122484D03*
X0470933Y0141382D03*
X0470933Y0334484D03*
X0470933Y0353382D03*
D13*
X0400933Y0423087D03*
X0400933Y0429780D03*
X0322433Y0394280D03*
X0322433Y0387587D03*
X0118933Y0423087D03*
X0118933Y0429780D03*
X0118933Y0217780D03*
X0118933Y0211087D03*
X0322433Y0182280D03*
X0322433Y0175587D03*
X0400933Y0211087D03*
X0400933Y0217780D03*
X0604433Y0182280D03*
X0604433Y0175587D03*
X0604433Y0387587D03*
X0604433Y0394280D03*
D14*
X0415264Y0426933D03*
X0406996Y0423193D03*
X0406996Y0430673D03*
X0133264Y0426933D03*
X0124996Y0423193D03*
X0124996Y0430673D03*
X0124996Y0218673D03*
X0133264Y0214933D03*
X0124996Y0211193D03*
X0406996Y0211193D03*
X0415264Y0214933D03*
X0406996Y0218673D03*
D15*
X0427823Y0202943D03*
X0427823Y0193933D03*
X0427823Y0184993D03*
X0427823Y0396993D03*
X0427823Y0405933D03*
X0427823Y0414943D03*
X0145823Y0414943D03*
X0145823Y0405933D03*
X0145823Y0396993D03*
X0145823Y0202943D03*
X0145823Y0193933D03*
X0145823Y0184993D03*
D16*
X0122433Y0193933D03*
X0404433Y0193933D03*
X0404433Y0405933D03*
X0122433Y0405933D03*
D17*
X0213933Y0337429D03*
X0223933Y0337429D03*
X0233933Y0337429D03*
X0243933Y0337429D03*
X0253933Y0337429D03*
X0263933Y0337429D03*
X0273933Y0337429D03*
X0283933Y0337429D03*
X0283933Y0324437D03*
X0283933Y0315429D03*
X0273933Y0324437D03*
X0263933Y0324437D03*
X0267933Y0315429D03*
X0257933Y0315429D03*
X0253933Y0324437D03*
X0247933Y0315429D03*
X0243933Y0324437D03*
X0233933Y0324437D03*
X0237933Y0315429D03*
X0227933Y0315429D03*
X0223933Y0324437D03*
X0217933Y0315429D03*
X0213933Y0324437D03*
X0207933Y0315429D03*
X0197933Y0315429D03*
X0187933Y0315429D03*
X0177933Y0315429D03*
X0177933Y0302437D03*
X0187933Y0302437D03*
X0197933Y0302437D03*
X0207933Y0302437D03*
X0217933Y0302437D03*
X0227933Y0302437D03*
X0237933Y0302437D03*
X0247933Y0302437D03*
X0257933Y0302437D03*
X0267933Y0302437D03*
X0283933Y0302437D03*
X0293933Y0302437D03*
X0303933Y0302437D03*
X0313933Y0302437D03*
X0323933Y0302437D03*
X0333933Y0302437D03*
X0343933Y0302437D03*
X0353933Y0302437D03*
X0353933Y0315429D03*
X0353933Y0324437D03*
X0343933Y0324437D03*
X0343933Y0315429D03*
X0333933Y0315429D03*
X0333933Y0324437D03*
X0323933Y0324437D03*
X0323933Y0315429D03*
X0313933Y0315429D03*
X0313933Y0324437D03*
X0303933Y0324437D03*
X0303933Y0315429D03*
X0293933Y0315429D03*
X0303933Y0337429D03*
X0313933Y0337429D03*
X0323933Y0337429D03*
X0333933Y0337429D03*
X0343933Y0337429D03*
X0353933Y0337429D03*
X0459933Y0315429D03*
X0469933Y0315429D03*
X0479933Y0315429D03*
X0489933Y0315429D03*
X0495933Y0324437D03*
X0499933Y0315429D03*
X0509933Y0315429D03*
X0505933Y0324437D03*
X0515933Y0324437D03*
X0519933Y0315429D03*
X0529933Y0315429D03*
X0525933Y0324437D03*
X0535933Y0324437D03*
X0539933Y0315429D03*
X0549933Y0315429D03*
X0545933Y0324437D03*
X0555933Y0324437D03*
X0565933Y0324437D03*
X0565933Y0315429D03*
X0575933Y0315429D03*
X0585933Y0315429D03*
X0585933Y0324437D03*
X0595933Y0324437D03*
X0595933Y0315429D03*
X0605933Y0315429D03*
X0605933Y0324437D03*
X0615933Y0324437D03*
X0615933Y0315429D03*
X0625933Y0315429D03*
X0625933Y0324437D03*
X0635933Y0324437D03*
X0635933Y0315429D03*
X0635933Y0302437D03*
X0625933Y0302437D03*
X0615933Y0302437D03*
X0605933Y0302437D03*
X0595933Y0302437D03*
X0585933Y0302437D03*
X0575933Y0302437D03*
X0565933Y0302437D03*
X0549933Y0302437D03*
X0539933Y0302437D03*
X0529933Y0302437D03*
X0519933Y0302437D03*
X0509933Y0302437D03*
X0499933Y0302437D03*
X0489933Y0302437D03*
X0479933Y0302437D03*
X0469933Y0302437D03*
X0459933Y0302437D03*
X0495933Y0337429D03*
X0505933Y0337429D03*
X0515933Y0337429D03*
X0525933Y0337429D03*
X0535933Y0337429D03*
X0545933Y0337429D03*
X0555933Y0337429D03*
X0565933Y0337429D03*
X0585933Y0337429D03*
X0595933Y0337429D03*
X0605933Y0337429D03*
X0615933Y0337429D03*
X0625933Y0337429D03*
X0635933Y0337429D03*
X0635933Y0514437D03*
X0625933Y0514437D03*
X0615933Y0514437D03*
X0605933Y0514437D03*
X0595933Y0514437D03*
X0585933Y0514437D03*
X0575933Y0514437D03*
X0565933Y0514437D03*
X0549933Y0514437D03*
X0539933Y0514437D03*
X0529933Y0514437D03*
X0519933Y0514437D03*
X0509933Y0514437D03*
X0499933Y0514437D03*
X0489933Y0514437D03*
X0479933Y0514437D03*
X0469933Y0514437D03*
X0459933Y0514437D03*
X0459933Y0527429D03*
X0469933Y0527429D03*
X0479933Y0527429D03*
X0489933Y0527429D03*
X0499933Y0527429D03*
X0509933Y0527429D03*
X0519933Y0527429D03*
X0529933Y0527429D03*
X0539933Y0527429D03*
X0549933Y0527429D03*
X0565933Y0527429D03*
X0575933Y0527429D03*
X0585933Y0527429D03*
X0595933Y0527429D03*
X0605933Y0527429D03*
X0615933Y0527429D03*
X0625933Y0527429D03*
X0635933Y0527429D03*
X0353933Y0527429D03*
X0343933Y0527429D03*
X0333933Y0527429D03*
X0323933Y0527429D03*
X0313933Y0527429D03*
X0303933Y0527429D03*
X0293933Y0527429D03*
X0283933Y0527429D03*
X0267933Y0527429D03*
X0257933Y0527429D03*
X0247933Y0527429D03*
X0237933Y0527429D03*
X0227933Y0527429D03*
X0217933Y0527429D03*
X0207933Y0527429D03*
X0197933Y0527429D03*
X0187933Y0527429D03*
X0177933Y0527429D03*
X0177933Y0514437D03*
X0187933Y0514437D03*
X0197933Y0514437D03*
X0207933Y0514437D03*
X0217933Y0514437D03*
X0227933Y0514437D03*
X0237933Y0514437D03*
X0247933Y0514437D03*
X0257933Y0514437D03*
X0267933Y0514437D03*
X0283933Y0514437D03*
X0293933Y0514437D03*
X0303933Y0514437D03*
X0313933Y0514437D03*
X0323933Y0514437D03*
X0333933Y0514437D03*
X0343933Y0514437D03*
X0353933Y0514437D03*
X0353933Y0125429D03*
X0343933Y0125429D03*
X0333933Y0125429D03*
X0323933Y0125429D03*
X0313933Y0125429D03*
X0303933Y0125429D03*
X0303933Y0112437D03*
X0313933Y0112437D03*
X0323933Y0112437D03*
X0333933Y0112437D03*
X0343933Y0112437D03*
X0353933Y0112437D03*
X0283933Y0112437D03*
X0273933Y0112437D03*
X0263933Y0112437D03*
X0253933Y0112437D03*
X0243933Y0112437D03*
X0233933Y0112437D03*
X0223933Y0112437D03*
X0213933Y0112437D03*
X0213933Y0125429D03*
X0223933Y0125429D03*
X0233933Y0125429D03*
X0243933Y0125429D03*
X0253933Y0125429D03*
X0263933Y0125429D03*
X0273933Y0125429D03*
X0283933Y0125429D03*
X0495933Y0125429D03*
X0505933Y0125429D03*
X0515933Y0125429D03*
X0525933Y0125429D03*
X0535933Y0125429D03*
X0545933Y0125429D03*
X0555933Y0125429D03*
X0565933Y0125429D03*
X0565933Y0112437D03*
X0555933Y0112437D03*
X0545933Y0112437D03*
X0535933Y0112437D03*
X0525933Y0112437D03*
X0515933Y0112437D03*
X0505933Y0112437D03*
X0495933Y0112437D03*
X0585933Y0112437D03*
X0595933Y0112437D03*
X0605933Y0112437D03*
X0615933Y0112437D03*
X0625933Y0112437D03*
X0635933Y0112437D03*
X0635933Y0125429D03*
X0625933Y0125429D03*
X0615933Y0125429D03*
X0605933Y0125429D03*
X0595933Y0125429D03*
X0585933Y0125429D03*
D18*
X0546839Y0158933D03*
X0535028Y0158933D03*
X0476839Y0218933D03*
X0465028Y0218933D03*
X0465028Y0233933D03*
X0476839Y0233933D03*
X0476839Y0248933D03*
X0465028Y0248933D03*
X0535028Y0370933D03*
X0546839Y0370933D03*
X0476839Y0430933D03*
X0465028Y0430933D03*
X0465028Y0445933D03*
X0476839Y0445933D03*
X0476839Y0460933D03*
X0465028Y0460933D03*
X0264839Y0370933D03*
X0253028Y0370933D03*
X0194839Y0430933D03*
X0183028Y0430933D03*
X0183028Y0445933D03*
X0194839Y0445933D03*
X0194839Y0460933D03*
X0183028Y0460933D03*
X0183028Y0248933D03*
X0194839Y0248933D03*
X0194839Y0233933D03*
X0183028Y0233933D03*
X0183028Y0218933D03*
X0194839Y0218933D03*
X0253028Y0158933D03*
X0264839Y0158933D03*
D19*
X0166933Y0150398D03*
X0166933Y0133469D03*
X0448933Y0133469D03*
X0448933Y0150398D03*
X0448933Y0345469D03*
X0448933Y0362398D03*
X0166933Y0362398D03*
X0166933Y0345469D03*
D20*
X0135949Y0332492D03*
X0111933Y0332492D03*
X0111933Y0377374D03*
X0135949Y0377374D03*
X0393933Y0377374D03*
X0417949Y0377374D03*
X0417949Y0332492D03*
X0393933Y0332492D03*
X0393933Y0165374D03*
X0417949Y0165374D03*
X0417949Y0120492D03*
X0393933Y0120492D03*
X0135949Y0120492D03*
X0111933Y0120492D03*
X0111933Y0165374D03*
X0135949Y0165374D03*
D21*
X0111933Y0112858D03*
X0135953Y0112848D03*
X0135953Y0173008D03*
X0111933Y0173008D03*
X0111933Y0324858D03*
X0135953Y0324848D03*
X0135953Y0385008D03*
X0111933Y0385008D03*
X0393933Y0385008D03*
X0417953Y0385008D03*
X0417953Y0324848D03*
X0393933Y0324858D03*
X0393933Y0173008D03*
X0417953Y0173008D03*
X0417953Y0112848D03*
X0393933Y0112858D03*
D22*
X0460815Y0175193D03*
X0460815Y0178933D03*
X0460815Y0182673D03*
X0471052Y0182673D03*
X0471052Y0175193D03*
X0189052Y0175193D03*
X0189052Y0182673D03*
X0178815Y0182673D03*
X0178815Y0178933D03*
X0178815Y0175193D03*
X0178815Y0387193D03*
X0178815Y0390933D03*
X0178815Y0394673D03*
X0189052Y0394673D03*
X0189052Y0387193D03*
X0460815Y0387193D03*
X0460815Y0390933D03*
X0460815Y0394673D03*
X0471052Y0394673D03*
X0471052Y0387193D03*
D23*
X0368402Y0396957D03*
X0368402Y0374909D03*
X0368402Y0184957D03*
X0368402Y0162909D03*
X0650402Y0162909D03*
X0650402Y0184957D03*
X0650402Y0374909D03*
X0650402Y0396957D03*
D24*
X0635933Y0391839D03*
X0635933Y0387902D03*
X0635933Y0383965D03*
X0635933Y0380028D03*
X0635933Y0179839D03*
X0635933Y0175902D03*
X0635933Y0171965D03*
X0635933Y0168028D03*
X0353933Y0168028D03*
X0353933Y0171965D03*
X0353933Y0175902D03*
X0353933Y0179839D03*
X0353933Y0380028D03*
X0353933Y0383965D03*
X0353933Y0387902D03*
X0353933Y0391839D03*
D25*
X0411539Y0469043D03*
X0411539Y0471012D03*
X0411539Y0472980D03*
X0411539Y0474949D03*
X0411539Y0476917D03*
X0411539Y0478886D03*
X0411539Y0480854D03*
X0411539Y0482823D03*
X0129539Y0482823D03*
X0129539Y0480854D03*
X0129539Y0478886D03*
X0129539Y0476917D03*
X0129539Y0474949D03*
X0129539Y0472980D03*
X0129539Y0471012D03*
X0129539Y0469043D03*
X0129539Y0270823D03*
X0129539Y0268854D03*
X0129539Y0266886D03*
X0129539Y0264917D03*
X0129539Y0262949D03*
X0129539Y0260980D03*
X0129539Y0259012D03*
X0129539Y0257043D03*
X0411539Y0257043D03*
X0411539Y0259012D03*
X0411539Y0260980D03*
X0411539Y0262949D03*
X0411539Y0264917D03*
X0411539Y0266886D03*
X0411539Y0268854D03*
X0411539Y0270823D03*
D26*
X0411539Y0276630D03*
X0411539Y0251236D03*
X0129539Y0251236D03*
X0129539Y0276630D03*
X0129539Y0463236D03*
X0129539Y0488630D03*
X0411539Y0488630D03*
X0411539Y0463236D03*
D27*
X0411539Y0466287D03*
X0411539Y0485579D03*
X0129539Y0485579D03*
X0129539Y0466287D03*
X0129539Y0273579D03*
X0129539Y0254287D03*
X0411539Y0254287D03*
X0411539Y0273579D03*
D28*
X0410115Y0278640D02*
X0409673Y0278579D01*
X0404949Y0278579D01*
X0404450Y0278659D01*
X0403982Y0278849D01*
X0403567Y0279138D01*
X0403227Y0279512D01*
X0402979Y0279952D01*
X0402836Y0280437D01*
X0402803Y0280941D01*
X0402836Y0281445D01*
X0411817Y0281445D01*
X0411826Y0281407D02*
X0402833Y0281407D01*
X0402831Y0281369D02*
X0411833Y0281369D01*
X0411832Y0281386D02*
X0411858Y0280941D01*
X0411832Y0280496D01*
X0411719Y0280064D01*
X0411524Y0279663D01*
X0411255Y0279307D01*
X0410921Y0279011D01*
X0410537Y0278786D01*
X0410115Y0278640D01*
X0410121Y0278642D02*
X0404559Y0278642D01*
X0404400Y0278680D02*
X0410230Y0278680D01*
X0410340Y0278717D02*
X0404306Y0278717D01*
X0404213Y0278755D02*
X0410449Y0278755D01*
X0410549Y0278793D02*
X0404119Y0278793D01*
X0404026Y0278831D02*
X0410614Y0278831D01*
X0410679Y0278869D02*
X0403953Y0278869D01*
X0403898Y0278907D02*
X0410744Y0278907D01*
X0410808Y0278945D02*
X0403844Y0278945D01*
X0403790Y0278983D02*
X0410873Y0278983D01*
X0410932Y0279021D02*
X0403736Y0279021D01*
X0403681Y0279058D02*
X0410975Y0279058D01*
X0411017Y0279096D02*
X0403627Y0279096D01*
X0403573Y0279134D02*
X0411060Y0279134D01*
X0411103Y0279172D02*
X0403536Y0279172D01*
X0403502Y0279210D02*
X0411145Y0279210D01*
X0411188Y0279248D02*
X0403467Y0279248D01*
X0403433Y0279286D02*
X0411231Y0279286D01*
X0411267Y0279324D02*
X0403399Y0279324D01*
X0403364Y0279361D02*
X0411296Y0279361D01*
X0411325Y0279399D02*
X0403330Y0279399D01*
X0403295Y0279437D02*
X0411353Y0279437D01*
X0411382Y0279475D02*
X0403261Y0279475D01*
X0403227Y0279513D02*
X0411411Y0279513D01*
X0411439Y0279551D02*
X0403205Y0279551D01*
X0403184Y0279589D02*
X0411468Y0279589D01*
X0411497Y0279627D02*
X0403163Y0279627D01*
X0403141Y0279665D02*
X0411525Y0279665D01*
X0411544Y0279702D02*
X0403120Y0279702D01*
X0403099Y0279740D02*
X0411562Y0279740D01*
X0411580Y0279778D02*
X0403077Y0279778D01*
X0403056Y0279816D02*
X0411599Y0279816D01*
X0411617Y0279854D02*
X0403035Y0279854D01*
X0403013Y0279892D02*
X0411635Y0279892D01*
X0411654Y0279930D02*
X0402992Y0279930D01*
X0402975Y0279968D02*
X0411672Y0279968D01*
X0411691Y0280005D02*
X0402964Y0280005D01*
X0402952Y0280043D02*
X0411709Y0280043D01*
X0411724Y0280081D02*
X0402941Y0280081D01*
X0402930Y0280119D02*
X0411733Y0280119D01*
X0411743Y0280157D02*
X0402919Y0280157D01*
X0402907Y0280195D02*
X0411753Y0280195D01*
X0411763Y0280233D02*
X0402896Y0280233D01*
X0402885Y0280271D02*
X0411773Y0280271D01*
X0411783Y0280309D02*
X0402874Y0280309D01*
X0402862Y0280346D02*
X0411793Y0280346D01*
X0411803Y0280384D02*
X0402851Y0280384D01*
X0402840Y0280422D02*
X0411813Y0280422D01*
X0411823Y0280460D02*
X0402834Y0280460D01*
X0402832Y0280498D02*
X0411832Y0280498D01*
X0411834Y0280536D02*
X0402829Y0280536D01*
X0402827Y0280574D02*
X0411836Y0280574D01*
X0411839Y0280612D02*
X0402824Y0280612D01*
X0402822Y0280649D02*
X0411841Y0280649D01*
X0411843Y0280687D02*
X0402819Y0280687D01*
X0402817Y0280725D02*
X0411845Y0280725D01*
X0411848Y0280763D02*
X0402815Y0280763D01*
X0402812Y0280801D02*
X0411850Y0280801D01*
X0411852Y0280839D02*
X0402810Y0280839D01*
X0402807Y0280877D02*
X0411854Y0280877D01*
X0411857Y0280915D02*
X0402805Y0280915D01*
X0402804Y0280952D02*
X0411858Y0280952D01*
X0411855Y0280990D02*
X0402806Y0280990D01*
X0402809Y0281028D02*
X0411853Y0281028D01*
X0411851Y0281066D02*
X0402811Y0281066D01*
X0402814Y0281104D02*
X0411849Y0281104D01*
X0411846Y0281142D02*
X0402816Y0281142D01*
X0402819Y0281180D02*
X0411844Y0281180D01*
X0411842Y0281218D02*
X0402821Y0281218D01*
X0402823Y0281256D02*
X0411840Y0281256D01*
X0411837Y0281293D02*
X0402826Y0281293D01*
X0402828Y0281331D02*
X0411835Y0281331D01*
X0411832Y0281386D02*
X0411719Y0281818D01*
X0411524Y0282219D01*
X0411255Y0282575D01*
X0410921Y0282871D01*
X0410537Y0283096D01*
X0410115Y0283242D01*
X0409673Y0283303D01*
X0404949Y0283303D01*
X0404450Y0283223D01*
X0403982Y0283033D01*
X0403567Y0282744D01*
X0403227Y0282370D01*
X0402979Y0281930D01*
X0402836Y0281445D01*
X0402847Y0281483D02*
X0411807Y0281483D01*
X0411797Y0281521D02*
X0402858Y0281521D01*
X0402869Y0281559D02*
X0411787Y0281559D01*
X0411777Y0281596D02*
X0402880Y0281596D01*
X0402892Y0281634D02*
X0411767Y0281634D01*
X0411757Y0281672D02*
X0402903Y0281672D01*
X0402914Y0281710D02*
X0411747Y0281710D01*
X0411737Y0281748D02*
X0402925Y0281748D01*
X0402937Y0281786D02*
X0411727Y0281786D01*
X0411716Y0281824D02*
X0402948Y0281824D01*
X0402959Y0281862D02*
X0411698Y0281862D01*
X0411679Y0281900D02*
X0402970Y0281900D01*
X0402984Y0281937D02*
X0411661Y0281937D01*
X0411643Y0281975D02*
X0403005Y0281975D01*
X0403026Y0282013D02*
X0411624Y0282013D01*
X0411606Y0282051D02*
X0403048Y0282051D01*
X0403069Y0282089D02*
X0411587Y0282089D01*
X0411569Y0282127D02*
X0403090Y0282127D01*
X0403112Y0282165D02*
X0411551Y0282165D01*
X0411532Y0282203D02*
X0403133Y0282203D01*
X0403154Y0282240D02*
X0411508Y0282240D01*
X0411479Y0282278D02*
X0403176Y0282278D01*
X0403197Y0282316D02*
X0411451Y0282316D01*
X0411422Y0282354D02*
X0403219Y0282354D01*
X0403247Y0282392D02*
X0411393Y0282392D01*
X0411365Y0282430D02*
X0403282Y0282430D01*
X0403316Y0282468D02*
X0411336Y0282468D01*
X0411307Y0282506D02*
X0403351Y0282506D01*
X0403385Y0282544D02*
X0411279Y0282544D01*
X0411247Y0282581D02*
X0403420Y0282581D01*
X0403454Y0282619D02*
X0411205Y0282619D01*
X0411162Y0282657D02*
X0403488Y0282657D01*
X0403523Y0282695D02*
X0411119Y0282695D01*
X0411077Y0282733D02*
X0403557Y0282733D01*
X0403606Y0282771D02*
X0411034Y0282771D01*
X0410991Y0282809D02*
X0403660Y0282809D01*
X0403714Y0282847D02*
X0410949Y0282847D01*
X0410898Y0282884D02*
X0403769Y0282884D01*
X0403823Y0282922D02*
X0410833Y0282922D01*
X0410769Y0282960D02*
X0403877Y0282960D01*
X0403932Y0282998D02*
X0410704Y0282998D01*
X0410639Y0283036D02*
X0403989Y0283036D01*
X0404083Y0283074D02*
X0410575Y0283074D01*
X0410492Y0283112D02*
X0404176Y0283112D01*
X0404270Y0283150D02*
X0410382Y0283150D01*
X0410273Y0283188D02*
X0404363Y0283188D01*
X0404467Y0283225D02*
X0410164Y0283225D01*
X0409962Y0283263D02*
X0404702Y0283263D01*
X0404936Y0283301D02*
X0409688Y0283301D01*
X0409855Y0278604D02*
X0404793Y0278604D01*
X0394370Y0280478D02*
X0394233Y0280034D01*
X0394012Y0279625D01*
X0393716Y0279267D01*
X0393355Y0278973D01*
X0392944Y0278756D01*
X0392498Y0278622D01*
X0392035Y0278579D01*
X0389673Y0278579D01*
X0389214Y0278626D01*
X0388774Y0278762D01*
X0388368Y0278981D01*
X0388013Y0279275D01*
X0387722Y0279632D01*
X0387506Y0280040D01*
X0387374Y0280482D01*
X0387331Y0280941D01*
X0387387Y0281465D01*
X0387559Y0281963D01*
X0387838Y0282410D01*
X0388209Y0282784D01*
X0388654Y0283066D01*
X0389150Y0283242D01*
X0389673Y0283303D01*
X0392035Y0283303D01*
X0392564Y0283246D01*
X0393066Y0283073D01*
X0393517Y0282792D01*
X0393894Y0282418D01*
X0394178Y0281969D01*
X0394356Y0281469D01*
X0394417Y0280941D01*
X0394370Y0280478D01*
X0394364Y0280460D02*
X0387381Y0280460D01*
X0387372Y0280498D02*
X0394372Y0280498D01*
X0394376Y0280536D02*
X0387369Y0280536D01*
X0387365Y0280574D02*
X0394380Y0280574D01*
X0394384Y0280612D02*
X0387362Y0280612D01*
X0387358Y0280649D02*
X0394387Y0280649D01*
X0394391Y0280687D02*
X0387355Y0280687D01*
X0387351Y0280725D02*
X0394395Y0280725D01*
X0394399Y0280763D02*
X0387347Y0280763D01*
X0387344Y0280801D02*
X0394403Y0280801D01*
X0394407Y0280839D02*
X0387340Y0280839D01*
X0387337Y0280877D02*
X0394411Y0280877D01*
X0394415Y0280915D02*
X0387333Y0280915D01*
X0387332Y0280952D02*
X0394416Y0280952D01*
X0394412Y0280990D02*
X0387336Y0280990D01*
X0387340Y0281028D02*
X0394407Y0281028D01*
X0394403Y0281066D02*
X0387344Y0281066D01*
X0387348Y0281104D02*
X0394398Y0281104D01*
X0394394Y0281142D02*
X0387352Y0281142D01*
X0387357Y0281180D02*
X0394389Y0281180D01*
X0394385Y0281218D02*
X0387361Y0281218D01*
X0387365Y0281256D02*
X0394381Y0281256D01*
X0394376Y0281293D02*
X0387369Y0281293D01*
X0387373Y0281331D02*
X0394372Y0281331D01*
X0394367Y0281369D02*
X0387377Y0281369D01*
X0387381Y0281407D02*
X0394363Y0281407D01*
X0394358Y0281445D02*
X0387385Y0281445D01*
X0387394Y0281483D02*
X0394351Y0281483D01*
X0394337Y0281521D02*
X0387407Y0281521D01*
X0387420Y0281559D02*
X0394324Y0281559D01*
X0394310Y0281596D02*
X0387433Y0281596D01*
X0387446Y0281634D02*
X0394297Y0281634D01*
X0394283Y0281672D02*
X0387459Y0281672D01*
X0387472Y0281710D02*
X0394270Y0281710D01*
X0394257Y0281748D02*
X0387485Y0281748D01*
X0387498Y0281786D02*
X0394243Y0281786D01*
X0394230Y0281824D02*
X0387511Y0281824D01*
X0387525Y0281862D02*
X0394216Y0281862D01*
X0394203Y0281900D02*
X0387538Y0281900D01*
X0387551Y0281937D02*
X0394189Y0281937D01*
X0394174Y0281975D02*
X0387567Y0281975D01*
X0387591Y0282013D02*
X0394150Y0282013D01*
X0394126Y0282051D02*
X0387614Y0282051D01*
X0387638Y0282089D02*
X0394102Y0282089D01*
X0394078Y0282127D02*
X0387662Y0282127D01*
X0387685Y0282165D02*
X0394054Y0282165D01*
X0394030Y0282203D02*
X0387709Y0282203D01*
X0387732Y0282240D02*
X0394006Y0282240D01*
X0393982Y0282278D02*
X0387756Y0282278D01*
X0387780Y0282316D02*
X0393958Y0282316D01*
X0393934Y0282354D02*
X0387803Y0282354D01*
X0387827Y0282392D02*
X0393910Y0282392D01*
X0393881Y0282430D02*
X0387858Y0282430D01*
X0387895Y0282468D02*
X0393843Y0282468D01*
X0393805Y0282506D02*
X0387933Y0282506D01*
X0387970Y0282544D02*
X0393767Y0282544D01*
X0393729Y0282581D02*
X0388008Y0282581D01*
X0388046Y0282619D02*
X0393690Y0282619D01*
X0393652Y0282657D02*
X0388083Y0282657D01*
X0388121Y0282695D02*
X0393614Y0282695D01*
X0393576Y0282733D02*
X0388158Y0282733D01*
X0388196Y0282771D02*
X0393538Y0282771D01*
X0393489Y0282809D02*
X0388248Y0282809D01*
X0388308Y0282847D02*
X0393429Y0282847D01*
X0393368Y0282884D02*
X0388367Y0282884D01*
X0388427Y0282922D02*
X0393307Y0282922D01*
X0393246Y0282960D02*
X0388487Y0282960D01*
X0388547Y0282998D02*
X0393185Y0282998D01*
X0393124Y0283036D02*
X0388606Y0283036D01*
X0388676Y0283074D02*
X0393062Y0283074D01*
X0392952Y0283112D02*
X0388783Y0283112D01*
X0388890Y0283150D02*
X0392842Y0283150D01*
X0392733Y0283188D02*
X0388996Y0283188D01*
X0389103Y0283225D02*
X0392623Y0283225D01*
X0392403Y0283263D02*
X0389332Y0283263D01*
X0389656Y0283301D02*
X0392054Y0283301D01*
X0394353Y0280422D02*
X0387392Y0280422D01*
X0387403Y0280384D02*
X0394341Y0280384D01*
X0394329Y0280346D02*
X0387414Y0280346D01*
X0387426Y0280309D02*
X0394318Y0280309D01*
X0394306Y0280271D02*
X0387437Y0280271D01*
X0387448Y0280233D02*
X0394294Y0280233D01*
X0394283Y0280195D02*
X0387460Y0280195D01*
X0387471Y0280157D02*
X0394271Y0280157D01*
X0394259Y0280119D02*
X0387482Y0280119D01*
X0387494Y0280081D02*
X0394248Y0280081D01*
X0394236Y0280043D02*
X0387505Y0280043D01*
X0387524Y0280005D02*
X0394218Y0280005D01*
X0394197Y0279968D02*
X0387544Y0279968D01*
X0387564Y0279930D02*
X0394177Y0279930D01*
X0394156Y0279892D02*
X0387584Y0279892D01*
X0387604Y0279854D02*
X0394136Y0279854D01*
X0394115Y0279816D02*
X0387625Y0279816D01*
X0387645Y0279778D02*
X0394095Y0279778D01*
X0394074Y0279740D02*
X0387665Y0279740D01*
X0387685Y0279702D02*
X0394054Y0279702D01*
X0394034Y0279665D02*
X0387705Y0279665D01*
X0387726Y0279627D02*
X0394013Y0279627D01*
X0393982Y0279589D02*
X0387757Y0279589D01*
X0387788Y0279551D02*
X0393951Y0279551D01*
X0393920Y0279513D02*
X0387819Y0279513D01*
X0387850Y0279475D02*
X0393888Y0279475D01*
X0393857Y0279437D02*
X0387880Y0279437D01*
X0387911Y0279399D02*
X0393826Y0279399D01*
X0393794Y0279361D02*
X0387942Y0279361D01*
X0387973Y0279324D02*
X0393763Y0279324D01*
X0393731Y0279286D02*
X0388004Y0279286D01*
X0388045Y0279248D02*
X0393693Y0279248D01*
X0393646Y0279210D02*
X0388091Y0279210D01*
X0388137Y0279172D02*
X0393600Y0279172D01*
X0393553Y0279134D02*
X0388182Y0279134D01*
X0388228Y0279096D02*
X0393506Y0279096D01*
X0393460Y0279058D02*
X0388274Y0279058D01*
X0388320Y0279021D02*
X0393413Y0279021D01*
X0393367Y0278983D02*
X0388366Y0278983D01*
X0388434Y0278945D02*
X0393302Y0278945D01*
X0393230Y0278907D02*
X0388505Y0278907D01*
X0388575Y0278869D02*
X0393158Y0278869D01*
X0393087Y0278831D02*
X0388645Y0278831D01*
X0388715Y0278793D02*
X0393015Y0278793D01*
X0392943Y0278755D02*
X0388794Y0278755D01*
X0388917Y0278717D02*
X0392817Y0278717D01*
X0392690Y0278680D02*
X0389040Y0278680D01*
X0389163Y0278642D02*
X0392563Y0278642D01*
X0392302Y0278604D02*
X0389429Y0278604D01*
X0389673Y0249287D02*
X0389150Y0249226D01*
X0388654Y0249050D01*
X0388209Y0248768D01*
X0387838Y0248394D01*
X0387559Y0247947D01*
X0387387Y0247449D01*
X0387331Y0246925D01*
X0387374Y0246466D01*
X0387506Y0246024D01*
X0387722Y0245617D01*
X0388013Y0245259D01*
X0388368Y0244965D01*
X0388774Y0244746D01*
X0389214Y0244610D01*
X0389673Y0244563D01*
X0392035Y0244563D01*
X0392498Y0244607D01*
X0392944Y0244740D01*
X0393355Y0244957D01*
X0393716Y0245251D01*
X0394012Y0245609D01*
X0394233Y0246018D01*
X0394370Y0246463D01*
X0394417Y0246925D01*
X0394356Y0247453D01*
X0394178Y0247953D01*
X0393894Y0248402D01*
X0393517Y0248776D01*
X0393066Y0249057D01*
X0392564Y0249230D01*
X0392035Y0249287D01*
X0389673Y0249287D01*
X0389641Y0249284D02*
X0392070Y0249284D01*
X0392419Y0249246D02*
X0389317Y0249246D01*
X0389098Y0249208D02*
X0392628Y0249208D01*
X0392738Y0249170D02*
X0388991Y0249170D01*
X0388885Y0249132D02*
X0392847Y0249132D01*
X0392957Y0249094D02*
X0388778Y0249094D01*
X0388671Y0249056D02*
X0393066Y0249056D01*
X0393127Y0249018D02*
X0388604Y0249018D01*
X0388544Y0248981D02*
X0393188Y0248981D01*
X0393249Y0248943D02*
X0388484Y0248943D01*
X0388424Y0248905D02*
X0393310Y0248905D01*
X0393370Y0248867D02*
X0388365Y0248867D01*
X0388305Y0248829D02*
X0393431Y0248829D01*
X0393492Y0248791D02*
X0388245Y0248791D01*
X0388194Y0248753D02*
X0393539Y0248753D01*
X0393578Y0248715D02*
X0388157Y0248715D01*
X0388119Y0248678D02*
X0393616Y0248678D01*
X0393654Y0248640D02*
X0388081Y0248640D01*
X0388044Y0248602D02*
X0393692Y0248602D01*
X0393730Y0248564D02*
X0388006Y0248564D01*
X0387969Y0248526D02*
X0393769Y0248526D01*
X0393807Y0248488D02*
X0387931Y0248488D01*
X0387894Y0248450D02*
X0393845Y0248450D01*
X0393883Y0248412D02*
X0387856Y0248412D01*
X0387826Y0248374D02*
X0393911Y0248374D01*
X0393935Y0248337D02*
X0387802Y0248337D01*
X0387778Y0248299D02*
X0393959Y0248299D01*
X0393983Y0248261D02*
X0387755Y0248261D01*
X0387731Y0248223D02*
X0394007Y0248223D01*
X0394031Y0248185D02*
X0387708Y0248185D01*
X0387684Y0248147D02*
X0394055Y0248147D01*
X0394079Y0248109D02*
X0387661Y0248109D01*
X0387637Y0248071D02*
X0394103Y0248071D01*
X0394127Y0248034D02*
X0387613Y0248034D01*
X0387590Y0247996D02*
X0394151Y0247996D01*
X0394175Y0247958D02*
X0387566Y0247958D01*
X0387550Y0247920D02*
X0394190Y0247920D01*
X0394203Y0247882D02*
X0387537Y0247882D01*
X0387524Y0247844D02*
X0394217Y0247844D01*
X0394230Y0247806D02*
X0387511Y0247806D01*
X0387498Y0247768D02*
X0394244Y0247768D01*
X0394257Y0247731D02*
X0387485Y0247731D01*
X0387472Y0247693D02*
X0394271Y0247693D01*
X0394284Y0247655D02*
X0387459Y0247655D01*
X0387445Y0247617D02*
X0394297Y0247617D01*
X0394311Y0247579D02*
X0387432Y0247579D01*
X0387419Y0247541D02*
X0394324Y0247541D01*
X0394338Y0247503D02*
X0387406Y0247503D01*
X0387393Y0247465D02*
X0394351Y0247465D01*
X0394359Y0247427D02*
X0387385Y0247427D01*
X0387381Y0247390D02*
X0394363Y0247390D01*
X0394367Y0247352D02*
X0387377Y0247352D01*
X0387373Y0247314D02*
X0394372Y0247314D01*
X0394376Y0247276D02*
X0387369Y0247276D01*
X0387365Y0247238D02*
X0394381Y0247238D01*
X0394385Y0247200D02*
X0387361Y0247200D01*
X0387356Y0247162D02*
X0394390Y0247162D01*
X0394394Y0247124D02*
X0387352Y0247124D01*
X0387348Y0247087D02*
X0394398Y0247087D01*
X0394403Y0247049D02*
X0387344Y0247049D01*
X0387340Y0247011D02*
X0394407Y0247011D01*
X0394412Y0246973D02*
X0387336Y0246973D01*
X0387332Y0246935D02*
X0394416Y0246935D01*
X0394414Y0246897D02*
X0387333Y0246897D01*
X0387337Y0246859D02*
X0394411Y0246859D01*
X0394407Y0246821D02*
X0387341Y0246821D01*
X0387344Y0246783D02*
X0394403Y0246783D01*
X0394399Y0246746D02*
X0387348Y0246746D01*
X0387351Y0246708D02*
X0394395Y0246708D01*
X0394391Y0246670D02*
X0387355Y0246670D01*
X0387358Y0246632D02*
X0394387Y0246632D01*
X0394383Y0246594D02*
X0387362Y0246594D01*
X0387366Y0246556D02*
X0394379Y0246556D01*
X0394376Y0246518D02*
X0387369Y0246518D01*
X0387373Y0246480D02*
X0394372Y0246480D01*
X0394364Y0246443D02*
X0387381Y0246443D01*
X0387392Y0246405D02*
X0394352Y0246405D01*
X0394340Y0246367D02*
X0387404Y0246367D01*
X0387415Y0246329D02*
X0394329Y0246329D01*
X0394317Y0246291D02*
X0387426Y0246291D01*
X0387438Y0246253D02*
X0394305Y0246253D01*
X0394294Y0246215D02*
X0387449Y0246215D01*
X0387460Y0246177D02*
X0394282Y0246177D01*
X0394270Y0246139D02*
X0387472Y0246139D01*
X0387483Y0246102D02*
X0394259Y0246102D01*
X0394247Y0246064D02*
X0387494Y0246064D01*
X0387506Y0246026D02*
X0394235Y0246026D01*
X0394217Y0245988D02*
X0387525Y0245988D01*
X0387545Y0245950D02*
X0394196Y0245950D01*
X0394176Y0245912D02*
X0387565Y0245912D01*
X0387585Y0245874D02*
X0394155Y0245874D01*
X0394135Y0245836D02*
X0387605Y0245836D01*
X0387625Y0245799D02*
X0394114Y0245799D01*
X0394094Y0245761D02*
X0387645Y0245761D01*
X0387666Y0245723D02*
X0394074Y0245723D01*
X0394053Y0245685D02*
X0387686Y0245685D01*
X0387706Y0245647D02*
X0394033Y0245647D01*
X0394012Y0245609D02*
X0387728Y0245609D01*
X0387759Y0245571D02*
X0393981Y0245571D01*
X0393950Y0245533D02*
X0387789Y0245533D01*
X0387820Y0245496D02*
X0393918Y0245496D01*
X0393887Y0245458D02*
X0387851Y0245458D01*
X0387882Y0245420D02*
X0393855Y0245420D01*
X0393824Y0245382D02*
X0387913Y0245382D01*
X0387944Y0245344D02*
X0393793Y0245344D01*
X0393761Y0245306D02*
X0387974Y0245306D01*
X0388005Y0245268D02*
X0393730Y0245268D01*
X0393690Y0245230D02*
X0388047Y0245230D01*
X0388093Y0245192D02*
X0393644Y0245192D01*
X0393597Y0245155D02*
X0388139Y0245155D01*
X0388185Y0245117D02*
X0393551Y0245117D01*
X0393504Y0245079D02*
X0388230Y0245079D01*
X0388276Y0245041D02*
X0393458Y0245041D01*
X0393411Y0245003D02*
X0388322Y0245003D01*
X0388368Y0244965D02*
X0393365Y0244965D01*
X0393298Y0244927D02*
X0388438Y0244927D01*
X0388508Y0244889D02*
X0393227Y0244889D01*
X0393155Y0244852D02*
X0388578Y0244852D01*
X0388648Y0244814D02*
X0393084Y0244814D01*
X0393012Y0244776D02*
X0388718Y0244776D01*
X0388800Y0244738D02*
X0392938Y0244738D01*
X0392811Y0244700D02*
X0388923Y0244700D01*
X0389046Y0244662D02*
X0392684Y0244662D01*
X0392557Y0244624D02*
X0389169Y0244624D01*
X0389446Y0244586D02*
X0392283Y0244586D01*
X0402836Y0246421D02*
X0402803Y0246925D01*
X0402836Y0247429D01*
X0402979Y0247914D01*
X0403227Y0248354D01*
X0403567Y0248728D01*
X0403982Y0249017D01*
X0404450Y0249207D01*
X0404949Y0249287D01*
X0409673Y0249287D01*
X0410115Y0249226D01*
X0410537Y0249080D01*
X0410921Y0248855D01*
X0411255Y0248559D01*
X0411524Y0248203D01*
X0411719Y0247802D01*
X0411832Y0247370D01*
X0411858Y0246925D01*
X0411832Y0246480D01*
X0411719Y0246048D01*
X0411524Y0245647D01*
X0403142Y0245647D01*
X0403121Y0245685D02*
X0411543Y0245685D01*
X0411561Y0245723D02*
X0403100Y0245723D01*
X0403078Y0245761D02*
X0411579Y0245761D01*
X0411598Y0245799D02*
X0403057Y0245799D01*
X0403036Y0245836D02*
X0411616Y0245836D01*
X0411635Y0245874D02*
X0403014Y0245874D01*
X0402993Y0245912D02*
X0411653Y0245912D01*
X0411671Y0245950D02*
X0402975Y0245950D01*
X0402979Y0245937D02*
X0402836Y0246421D01*
X0402840Y0246405D02*
X0411812Y0246405D01*
X0411822Y0246443D02*
X0402834Y0246443D01*
X0402832Y0246480D02*
X0411832Y0246480D01*
X0411834Y0246518D02*
X0402829Y0246518D01*
X0402827Y0246556D02*
X0411836Y0246556D01*
X0411839Y0246594D02*
X0402824Y0246594D01*
X0402822Y0246632D02*
X0411841Y0246632D01*
X0411843Y0246670D02*
X0402820Y0246670D01*
X0402817Y0246708D02*
X0411845Y0246708D01*
X0411848Y0246746D02*
X0402815Y0246746D01*
X0402812Y0246783D02*
X0411850Y0246783D01*
X0411852Y0246821D02*
X0402810Y0246821D01*
X0402807Y0246859D02*
X0411854Y0246859D01*
X0411857Y0246897D02*
X0402805Y0246897D01*
X0402804Y0246935D02*
X0411858Y0246935D01*
X0411855Y0246973D02*
X0402806Y0246973D01*
X0402809Y0247011D02*
X0411853Y0247011D01*
X0411851Y0247049D02*
X0402811Y0247049D01*
X0402814Y0247087D02*
X0411849Y0247087D01*
X0411846Y0247124D02*
X0402816Y0247124D01*
X0402818Y0247162D02*
X0411844Y0247162D01*
X0411842Y0247200D02*
X0402821Y0247200D01*
X0402823Y0247238D02*
X0411840Y0247238D01*
X0411837Y0247276D02*
X0402826Y0247276D01*
X0402828Y0247314D02*
X0411835Y0247314D01*
X0411833Y0247352D02*
X0402831Y0247352D01*
X0402833Y0247390D02*
X0411827Y0247390D01*
X0411817Y0247427D02*
X0402835Y0247427D01*
X0402846Y0247465D02*
X0411807Y0247465D01*
X0411797Y0247503D02*
X0402857Y0247503D01*
X0402869Y0247541D02*
X0411787Y0247541D01*
X0411777Y0247579D02*
X0402880Y0247579D01*
X0402891Y0247617D02*
X0411767Y0247617D01*
X0411758Y0247655D02*
X0402902Y0247655D01*
X0402914Y0247693D02*
X0411748Y0247693D01*
X0411738Y0247731D02*
X0402925Y0247731D01*
X0402936Y0247768D02*
X0411728Y0247768D01*
X0411717Y0247806D02*
X0402947Y0247806D01*
X0402959Y0247844D02*
X0411699Y0247844D01*
X0411680Y0247882D02*
X0402970Y0247882D01*
X0402983Y0247920D02*
X0411662Y0247920D01*
X0411643Y0247958D02*
X0403004Y0247958D01*
X0403025Y0247996D02*
X0411625Y0247996D01*
X0411607Y0248034D02*
X0403047Y0248034D01*
X0403068Y0248071D02*
X0411588Y0248071D01*
X0411570Y0248109D02*
X0403089Y0248109D01*
X0403111Y0248147D02*
X0411552Y0248147D01*
X0411533Y0248185D02*
X0403132Y0248185D01*
X0403153Y0248223D02*
X0411509Y0248223D01*
X0411481Y0248261D02*
X0403175Y0248261D01*
X0403196Y0248299D02*
X0411452Y0248299D01*
X0411423Y0248337D02*
X0403218Y0248337D01*
X0403246Y0248374D02*
X0411395Y0248374D01*
X0411366Y0248412D02*
X0403280Y0248412D01*
X0403315Y0248450D02*
X0411337Y0248450D01*
X0411309Y0248488D02*
X0403349Y0248488D01*
X0403384Y0248526D02*
X0411280Y0248526D01*
X0411249Y0248564D02*
X0403418Y0248564D01*
X0403452Y0248602D02*
X0411207Y0248602D01*
X0411164Y0248640D02*
X0403487Y0248640D01*
X0403521Y0248678D02*
X0411121Y0248678D01*
X0411079Y0248715D02*
X0403556Y0248715D01*
X0403603Y0248753D02*
X0411036Y0248753D01*
X0410993Y0248791D02*
X0403658Y0248791D01*
X0403712Y0248829D02*
X0410951Y0248829D01*
X0410901Y0248867D02*
X0403766Y0248867D01*
X0403820Y0248905D02*
X0410836Y0248905D01*
X0410772Y0248943D02*
X0403875Y0248943D01*
X0403929Y0248981D02*
X0410707Y0248981D01*
X0410642Y0249018D02*
X0403985Y0249018D01*
X0404078Y0249056D02*
X0410578Y0249056D01*
X0410497Y0249094D02*
X0404172Y0249094D01*
X0404265Y0249132D02*
X0410387Y0249132D01*
X0410278Y0249170D02*
X0404359Y0249170D01*
X0404457Y0249208D02*
X0410169Y0249208D01*
X0409975Y0249246D02*
X0404691Y0249246D01*
X0404926Y0249284D02*
X0409700Y0249284D01*
X0411802Y0246367D02*
X0402852Y0246367D01*
X0402863Y0246329D02*
X0411792Y0246329D01*
X0411783Y0246291D02*
X0402874Y0246291D01*
X0402885Y0246253D02*
X0411773Y0246253D01*
X0411763Y0246215D02*
X0402897Y0246215D01*
X0402908Y0246177D02*
X0411753Y0246177D01*
X0411743Y0246139D02*
X0402919Y0246139D01*
X0402930Y0246102D02*
X0411733Y0246102D01*
X0411723Y0246064D02*
X0402942Y0246064D01*
X0402953Y0246026D02*
X0411708Y0246026D01*
X0411690Y0245988D02*
X0402964Y0245988D01*
X0402979Y0245937D02*
X0403227Y0245496D01*
X0403567Y0245122D01*
X0403982Y0244833D01*
X0404450Y0244644D01*
X0404949Y0244563D01*
X0409673Y0244563D01*
X0410115Y0244624D01*
X0410537Y0244770D01*
X0410921Y0244995D01*
X0411255Y0245292D01*
X0411524Y0245647D01*
X0411496Y0245609D02*
X0403164Y0245609D01*
X0403185Y0245571D02*
X0411467Y0245571D01*
X0411438Y0245533D02*
X0403206Y0245533D01*
X0403228Y0245496D02*
X0411409Y0245496D01*
X0411381Y0245458D02*
X0403262Y0245458D01*
X0403297Y0245420D02*
X0411352Y0245420D01*
X0411323Y0245382D02*
X0403331Y0245382D01*
X0403366Y0245344D02*
X0411295Y0245344D01*
X0411266Y0245306D02*
X0403400Y0245306D01*
X0403435Y0245268D02*
X0411229Y0245268D01*
X0411186Y0245230D02*
X0403469Y0245230D01*
X0403503Y0245192D02*
X0411143Y0245192D01*
X0411101Y0245155D02*
X0403538Y0245155D01*
X0403575Y0245117D02*
X0411058Y0245117D01*
X0411015Y0245079D02*
X0403629Y0245079D01*
X0403684Y0245041D02*
X0410973Y0245041D01*
X0410930Y0245003D02*
X0403738Y0245003D01*
X0403792Y0244965D02*
X0410870Y0244965D01*
X0410805Y0244927D02*
X0403847Y0244927D01*
X0403901Y0244889D02*
X0410741Y0244889D01*
X0410676Y0244852D02*
X0403955Y0244852D01*
X0404030Y0244814D02*
X0410611Y0244814D01*
X0410546Y0244776D02*
X0404123Y0244776D01*
X0404217Y0244738D02*
X0410444Y0244738D01*
X0410335Y0244700D02*
X0404311Y0244700D01*
X0404404Y0244662D02*
X0410225Y0244662D01*
X0410116Y0244624D02*
X0404570Y0244624D01*
X0404804Y0244586D02*
X0409843Y0244586D01*
X0129858Y0246925D02*
X0129832Y0246480D01*
X0129719Y0246048D01*
X0129524Y0245647D01*
X0121142Y0245647D01*
X0121121Y0245685D02*
X0129543Y0245685D01*
X0129561Y0245723D02*
X0121100Y0245723D01*
X0121078Y0245761D02*
X0129579Y0245761D01*
X0129598Y0245799D02*
X0121057Y0245799D01*
X0121036Y0245836D02*
X0129616Y0245836D01*
X0129635Y0245874D02*
X0121014Y0245874D01*
X0120993Y0245912D02*
X0129653Y0245912D01*
X0129671Y0245950D02*
X0120975Y0245950D01*
X0120979Y0245937D02*
X0120836Y0246421D01*
X0120803Y0246925D01*
X0120836Y0247429D01*
X0120979Y0247914D01*
X0121227Y0248354D01*
X0121567Y0248728D01*
X0121982Y0249017D01*
X0122450Y0249207D01*
X0122949Y0249287D01*
X0127673Y0249287D01*
X0128115Y0249226D01*
X0128537Y0249080D01*
X0128921Y0248855D01*
X0129255Y0248559D01*
X0129524Y0248203D01*
X0129719Y0247802D01*
X0129832Y0247370D01*
X0129858Y0246925D01*
X0129858Y0246935D02*
X0120804Y0246935D01*
X0120805Y0246897D02*
X0129857Y0246897D01*
X0129854Y0246859D02*
X0120807Y0246859D01*
X0120810Y0246821D02*
X0129852Y0246821D01*
X0129850Y0246783D02*
X0120812Y0246783D01*
X0120815Y0246746D02*
X0129848Y0246746D01*
X0129845Y0246708D02*
X0120817Y0246708D01*
X0120820Y0246670D02*
X0129843Y0246670D01*
X0129841Y0246632D02*
X0120822Y0246632D01*
X0120824Y0246594D02*
X0129839Y0246594D01*
X0129836Y0246556D02*
X0120827Y0246556D01*
X0120829Y0246518D02*
X0129834Y0246518D01*
X0129832Y0246480D02*
X0120832Y0246480D01*
X0120834Y0246443D02*
X0129822Y0246443D01*
X0129812Y0246405D02*
X0120840Y0246405D01*
X0120852Y0246367D02*
X0129802Y0246367D01*
X0129792Y0246329D02*
X0120863Y0246329D01*
X0120874Y0246291D02*
X0129783Y0246291D01*
X0129773Y0246253D02*
X0120885Y0246253D01*
X0120897Y0246215D02*
X0129763Y0246215D01*
X0129753Y0246177D02*
X0120908Y0246177D01*
X0120919Y0246139D02*
X0129743Y0246139D01*
X0129733Y0246102D02*
X0120930Y0246102D01*
X0120942Y0246064D02*
X0129723Y0246064D01*
X0129708Y0246026D02*
X0120953Y0246026D01*
X0120964Y0245988D02*
X0129690Y0245988D01*
X0129524Y0245647D02*
X0129255Y0245292D01*
X0128921Y0244995D01*
X0128537Y0244770D01*
X0128115Y0244624D01*
X0127673Y0244563D01*
X0122949Y0244563D01*
X0122450Y0244644D01*
X0121982Y0244833D01*
X0121567Y0245122D01*
X0121227Y0245496D01*
X0120979Y0245937D01*
X0121164Y0245609D02*
X0129496Y0245609D01*
X0129467Y0245571D02*
X0121185Y0245571D01*
X0121206Y0245533D02*
X0129438Y0245533D01*
X0129409Y0245496D02*
X0121228Y0245496D01*
X0121262Y0245458D02*
X0129381Y0245458D01*
X0129352Y0245420D02*
X0121297Y0245420D01*
X0121331Y0245382D02*
X0129323Y0245382D01*
X0129295Y0245344D02*
X0121366Y0245344D01*
X0121400Y0245306D02*
X0129266Y0245306D01*
X0129229Y0245268D02*
X0121435Y0245268D01*
X0121469Y0245230D02*
X0129186Y0245230D01*
X0129143Y0245192D02*
X0121503Y0245192D01*
X0121538Y0245155D02*
X0129101Y0245155D01*
X0129058Y0245117D02*
X0121575Y0245117D01*
X0121629Y0245079D02*
X0129015Y0245079D01*
X0128973Y0245041D02*
X0121684Y0245041D01*
X0121738Y0245003D02*
X0128930Y0245003D01*
X0128870Y0244965D02*
X0121792Y0244965D01*
X0121847Y0244927D02*
X0128805Y0244927D01*
X0128741Y0244889D02*
X0121901Y0244889D01*
X0121955Y0244852D02*
X0128676Y0244852D01*
X0128611Y0244814D02*
X0122030Y0244814D01*
X0122123Y0244776D02*
X0128546Y0244776D01*
X0128444Y0244738D02*
X0122217Y0244738D01*
X0122311Y0244700D02*
X0128335Y0244700D01*
X0128225Y0244662D02*
X0122404Y0244662D01*
X0122570Y0244624D02*
X0128116Y0244624D01*
X0127843Y0244586D02*
X0122804Y0244586D01*
X0120806Y0246973D02*
X0129855Y0246973D01*
X0129853Y0247011D02*
X0120809Y0247011D01*
X0120811Y0247049D02*
X0129851Y0247049D01*
X0129849Y0247087D02*
X0120814Y0247087D01*
X0120816Y0247124D02*
X0129846Y0247124D01*
X0129844Y0247162D02*
X0120818Y0247162D01*
X0120821Y0247200D02*
X0129842Y0247200D01*
X0129840Y0247238D02*
X0120823Y0247238D01*
X0120826Y0247276D02*
X0129837Y0247276D01*
X0129835Y0247314D02*
X0120828Y0247314D01*
X0120831Y0247352D02*
X0129833Y0247352D01*
X0129827Y0247390D02*
X0120833Y0247390D01*
X0120835Y0247427D02*
X0129817Y0247427D01*
X0129807Y0247465D02*
X0120846Y0247465D01*
X0120857Y0247503D02*
X0129797Y0247503D01*
X0129787Y0247541D02*
X0120869Y0247541D01*
X0120880Y0247579D02*
X0129777Y0247579D01*
X0129767Y0247617D02*
X0120891Y0247617D01*
X0120902Y0247655D02*
X0129758Y0247655D01*
X0129748Y0247693D02*
X0120914Y0247693D01*
X0120925Y0247731D02*
X0129738Y0247731D01*
X0129728Y0247768D02*
X0120936Y0247768D01*
X0120947Y0247806D02*
X0129717Y0247806D01*
X0129699Y0247844D02*
X0120959Y0247844D01*
X0120970Y0247882D02*
X0129680Y0247882D01*
X0129662Y0247920D02*
X0120983Y0247920D01*
X0121004Y0247958D02*
X0129643Y0247958D01*
X0129625Y0247996D02*
X0121025Y0247996D01*
X0121047Y0248034D02*
X0129607Y0248034D01*
X0129588Y0248071D02*
X0121068Y0248071D01*
X0121089Y0248109D02*
X0129570Y0248109D01*
X0129552Y0248147D02*
X0121111Y0248147D01*
X0121132Y0248185D02*
X0129533Y0248185D01*
X0129509Y0248223D02*
X0121153Y0248223D01*
X0121175Y0248261D02*
X0129481Y0248261D01*
X0129452Y0248299D02*
X0121196Y0248299D01*
X0121218Y0248337D02*
X0129423Y0248337D01*
X0129395Y0248374D02*
X0121246Y0248374D01*
X0121280Y0248412D02*
X0129366Y0248412D01*
X0129337Y0248450D02*
X0121315Y0248450D01*
X0121349Y0248488D02*
X0129309Y0248488D01*
X0129280Y0248526D02*
X0121384Y0248526D01*
X0121418Y0248564D02*
X0129249Y0248564D01*
X0129207Y0248602D02*
X0121452Y0248602D01*
X0121487Y0248640D02*
X0129164Y0248640D01*
X0129121Y0248678D02*
X0121521Y0248678D01*
X0121556Y0248715D02*
X0129079Y0248715D01*
X0129036Y0248753D02*
X0121603Y0248753D01*
X0121658Y0248791D02*
X0128993Y0248791D01*
X0128951Y0248829D02*
X0121712Y0248829D01*
X0121766Y0248867D02*
X0128901Y0248867D01*
X0128836Y0248905D02*
X0121820Y0248905D01*
X0121875Y0248943D02*
X0128772Y0248943D01*
X0128707Y0248981D02*
X0121929Y0248981D01*
X0121985Y0249018D02*
X0128642Y0249018D01*
X0128578Y0249056D02*
X0122078Y0249056D01*
X0122172Y0249094D02*
X0128497Y0249094D01*
X0128387Y0249132D02*
X0122265Y0249132D01*
X0122359Y0249170D02*
X0128278Y0249170D01*
X0128169Y0249208D02*
X0122457Y0249208D01*
X0122691Y0249246D02*
X0127975Y0249246D01*
X0127700Y0249284D02*
X0122926Y0249284D01*
X0112356Y0247453D02*
X0112417Y0246925D01*
X0112370Y0246463D01*
X0112233Y0246018D01*
X0112012Y0245609D01*
X0111716Y0245251D01*
X0111355Y0244957D01*
X0110944Y0244740D01*
X0110498Y0244607D01*
X0110035Y0244563D01*
X0107673Y0244563D01*
X0107214Y0244610D01*
X0106774Y0244746D01*
X0106368Y0244965D01*
X0106013Y0245259D01*
X0105722Y0245617D01*
X0105506Y0246024D01*
X0105374Y0246466D01*
X0105331Y0246925D01*
X0105387Y0247449D01*
X0105559Y0247947D01*
X0105838Y0248394D01*
X0106209Y0248768D01*
X0106654Y0249050D01*
X0107150Y0249226D01*
X0107673Y0249287D01*
X0110035Y0249287D01*
X0110564Y0249230D01*
X0111066Y0249057D01*
X0111517Y0248776D01*
X0111894Y0248402D01*
X0112178Y0247953D01*
X0112356Y0247453D01*
X0112351Y0247465D02*
X0105393Y0247465D01*
X0105385Y0247427D02*
X0112359Y0247427D01*
X0112363Y0247390D02*
X0105381Y0247390D01*
X0105377Y0247352D02*
X0112367Y0247352D01*
X0112372Y0247314D02*
X0105373Y0247314D01*
X0105369Y0247276D02*
X0112376Y0247276D01*
X0112381Y0247238D02*
X0105365Y0247238D01*
X0105361Y0247200D02*
X0112385Y0247200D01*
X0112390Y0247162D02*
X0105356Y0247162D01*
X0105352Y0247124D02*
X0112394Y0247124D01*
X0112398Y0247087D02*
X0105348Y0247087D01*
X0105344Y0247049D02*
X0112403Y0247049D01*
X0112407Y0247011D02*
X0105340Y0247011D01*
X0105336Y0246973D02*
X0112412Y0246973D01*
X0112416Y0246935D02*
X0105332Y0246935D01*
X0105333Y0246897D02*
X0112414Y0246897D01*
X0112411Y0246859D02*
X0105337Y0246859D01*
X0105341Y0246821D02*
X0112407Y0246821D01*
X0112403Y0246783D02*
X0105344Y0246783D01*
X0105348Y0246746D02*
X0112399Y0246746D01*
X0112395Y0246708D02*
X0105351Y0246708D01*
X0105355Y0246670D02*
X0112391Y0246670D01*
X0112387Y0246632D02*
X0105358Y0246632D01*
X0105362Y0246594D02*
X0112383Y0246594D01*
X0112379Y0246556D02*
X0105366Y0246556D01*
X0105369Y0246518D02*
X0112376Y0246518D01*
X0112372Y0246480D02*
X0105373Y0246480D01*
X0105381Y0246443D02*
X0112364Y0246443D01*
X0112352Y0246405D02*
X0105392Y0246405D01*
X0105404Y0246367D02*
X0112340Y0246367D01*
X0112329Y0246329D02*
X0105415Y0246329D01*
X0105426Y0246291D02*
X0112317Y0246291D01*
X0112305Y0246253D02*
X0105438Y0246253D01*
X0105449Y0246215D02*
X0112294Y0246215D01*
X0112282Y0246177D02*
X0105460Y0246177D01*
X0105472Y0246139D02*
X0112270Y0246139D01*
X0112259Y0246102D02*
X0105483Y0246102D01*
X0105494Y0246064D02*
X0112247Y0246064D01*
X0112235Y0246026D02*
X0105506Y0246026D01*
X0105525Y0245988D02*
X0112217Y0245988D01*
X0112196Y0245950D02*
X0105545Y0245950D01*
X0105565Y0245912D02*
X0112176Y0245912D01*
X0112155Y0245874D02*
X0105585Y0245874D01*
X0105605Y0245836D02*
X0112135Y0245836D01*
X0112114Y0245799D02*
X0105625Y0245799D01*
X0105645Y0245761D02*
X0112094Y0245761D01*
X0112074Y0245723D02*
X0105666Y0245723D01*
X0105686Y0245685D02*
X0112053Y0245685D01*
X0112033Y0245647D02*
X0105706Y0245647D01*
X0105728Y0245609D02*
X0112012Y0245609D01*
X0111981Y0245571D02*
X0105759Y0245571D01*
X0105789Y0245533D02*
X0111950Y0245533D01*
X0111918Y0245496D02*
X0105820Y0245496D01*
X0105851Y0245458D02*
X0111887Y0245458D01*
X0111855Y0245420D02*
X0105882Y0245420D01*
X0105913Y0245382D02*
X0111824Y0245382D01*
X0111793Y0245344D02*
X0105944Y0245344D01*
X0105974Y0245306D02*
X0111761Y0245306D01*
X0111730Y0245268D02*
X0106005Y0245268D01*
X0106047Y0245230D02*
X0111690Y0245230D01*
X0111644Y0245192D02*
X0106093Y0245192D01*
X0106139Y0245155D02*
X0111597Y0245155D01*
X0111551Y0245117D02*
X0106185Y0245117D01*
X0106230Y0245079D02*
X0111504Y0245079D01*
X0111458Y0245041D02*
X0106276Y0245041D01*
X0106322Y0245003D02*
X0111411Y0245003D01*
X0111365Y0244965D02*
X0106368Y0244965D01*
X0106438Y0244927D02*
X0111298Y0244927D01*
X0111227Y0244889D02*
X0106508Y0244889D01*
X0106578Y0244852D02*
X0111155Y0244852D01*
X0111084Y0244814D02*
X0106648Y0244814D01*
X0106718Y0244776D02*
X0111012Y0244776D01*
X0110938Y0244738D02*
X0106800Y0244738D01*
X0106923Y0244700D02*
X0110811Y0244700D01*
X0110684Y0244662D02*
X0107046Y0244662D01*
X0107169Y0244624D02*
X0110557Y0244624D01*
X0110283Y0244586D02*
X0107446Y0244586D01*
X0105406Y0247503D02*
X0112338Y0247503D01*
X0112324Y0247541D02*
X0105419Y0247541D01*
X0105432Y0247579D02*
X0112311Y0247579D01*
X0112297Y0247617D02*
X0105445Y0247617D01*
X0105459Y0247655D02*
X0112284Y0247655D01*
X0112271Y0247693D02*
X0105472Y0247693D01*
X0105485Y0247731D02*
X0112257Y0247731D01*
X0112244Y0247768D02*
X0105498Y0247768D01*
X0105511Y0247806D02*
X0112230Y0247806D01*
X0112217Y0247844D02*
X0105524Y0247844D01*
X0105537Y0247882D02*
X0112203Y0247882D01*
X0112190Y0247920D02*
X0105550Y0247920D01*
X0105566Y0247958D02*
X0112175Y0247958D01*
X0112151Y0247996D02*
X0105590Y0247996D01*
X0105613Y0248034D02*
X0112127Y0248034D01*
X0112103Y0248071D02*
X0105637Y0248071D01*
X0105661Y0248109D02*
X0112079Y0248109D01*
X0112055Y0248147D02*
X0105684Y0248147D01*
X0105708Y0248185D02*
X0112031Y0248185D01*
X0112007Y0248223D02*
X0105731Y0248223D01*
X0105755Y0248261D02*
X0111983Y0248261D01*
X0111959Y0248299D02*
X0105778Y0248299D01*
X0105802Y0248337D02*
X0111935Y0248337D01*
X0111911Y0248374D02*
X0105826Y0248374D01*
X0105856Y0248412D02*
X0111883Y0248412D01*
X0111845Y0248450D02*
X0105894Y0248450D01*
X0105931Y0248488D02*
X0111807Y0248488D01*
X0111769Y0248526D02*
X0105969Y0248526D01*
X0106006Y0248564D02*
X0111730Y0248564D01*
X0111692Y0248602D02*
X0106044Y0248602D01*
X0106081Y0248640D02*
X0111654Y0248640D01*
X0111616Y0248678D02*
X0106119Y0248678D01*
X0106157Y0248715D02*
X0111578Y0248715D01*
X0111539Y0248753D02*
X0106194Y0248753D01*
X0106245Y0248791D02*
X0111492Y0248791D01*
X0111431Y0248829D02*
X0106305Y0248829D01*
X0106365Y0248867D02*
X0111370Y0248867D01*
X0111310Y0248905D02*
X0106424Y0248905D01*
X0106484Y0248943D02*
X0111249Y0248943D01*
X0111188Y0248981D02*
X0106544Y0248981D01*
X0106604Y0249018D02*
X0111127Y0249018D01*
X0111066Y0249056D02*
X0106671Y0249056D01*
X0106778Y0249094D02*
X0110957Y0249094D01*
X0110847Y0249132D02*
X0106885Y0249132D01*
X0106991Y0249170D02*
X0110738Y0249170D01*
X0110628Y0249208D02*
X0107098Y0249208D01*
X0107317Y0249246D02*
X0110419Y0249246D01*
X0110070Y0249284D02*
X0107641Y0249284D01*
X0107673Y0278579D02*
X0107214Y0278626D01*
X0106774Y0278762D01*
X0106368Y0278981D01*
X0106013Y0279275D01*
X0105722Y0279632D01*
X0105506Y0280040D01*
X0105374Y0280482D01*
X0105331Y0280941D01*
X0105387Y0281465D01*
X0105559Y0281963D01*
X0105838Y0282410D01*
X0106209Y0282784D01*
X0106654Y0283066D01*
X0107150Y0283242D01*
X0107673Y0283303D01*
X0110035Y0283303D01*
X0110564Y0283246D01*
X0111066Y0283073D01*
X0111517Y0282792D01*
X0111894Y0282418D01*
X0112178Y0281969D01*
X0112356Y0281469D01*
X0112417Y0280941D01*
X0112370Y0280478D01*
X0112233Y0280034D01*
X0112012Y0279625D01*
X0111716Y0279267D01*
X0111355Y0278973D01*
X0110944Y0278756D01*
X0110498Y0278622D01*
X0110035Y0278579D01*
X0107673Y0278579D01*
X0107429Y0278604D02*
X0110302Y0278604D01*
X0110563Y0278642D02*
X0107163Y0278642D01*
X0107040Y0278680D02*
X0110690Y0278680D01*
X0110817Y0278717D02*
X0106917Y0278717D01*
X0106794Y0278755D02*
X0110943Y0278755D01*
X0111015Y0278793D02*
X0106715Y0278793D01*
X0106645Y0278831D02*
X0111087Y0278831D01*
X0111158Y0278869D02*
X0106575Y0278869D01*
X0106505Y0278907D02*
X0111230Y0278907D01*
X0111302Y0278945D02*
X0106434Y0278945D01*
X0106366Y0278983D02*
X0111367Y0278983D01*
X0111413Y0279021D02*
X0106320Y0279021D01*
X0106274Y0279058D02*
X0111460Y0279058D01*
X0111506Y0279096D02*
X0106228Y0279096D01*
X0106182Y0279134D02*
X0111553Y0279134D01*
X0111600Y0279172D02*
X0106137Y0279172D01*
X0106091Y0279210D02*
X0111646Y0279210D01*
X0111693Y0279248D02*
X0106045Y0279248D01*
X0106004Y0279286D02*
X0111731Y0279286D01*
X0111763Y0279324D02*
X0105973Y0279324D01*
X0105942Y0279361D02*
X0111794Y0279361D01*
X0111826Y0279399D02*
X0105911Y0279399D01*
X0105880Y0279437D02*
X0111857Y0279437D01*
X0111888Y0279475D02*
X0105850Y0279475D01*
X0105819Y0279513D02*
X0111920Y0279513D01*
X0111951Y0279551D02*
X0105788Y0279551D01*
X0105757Y0279589D02*
X0111982Y0279589D01*
X0112013Y0279627D02*
X0105726Y0279627D01*
X0105705Y0279665D02*
X0112034Y0279665D01*
X0112054Y0279702D02*
X0105685Y0279702D01*
X0105665Y0279740D02*
X0112074Y0279740D01*
X0112095Y0279778D02*
X0105645Y0279778D01*
X0105625Y0279816D02*
X0112115Y0279816D01*
X0112136Y0279854D02*
X0105604Y0279854D01*
X0105584Y0279892D02*
X0112156Y0279892D01*
X0112177Y0279930D02*
X0105564Y0279930D01*
X0105544Y0279968D02*
X0112197Y0279968D01*
X0112218Y0280005D02*
X0105524Y0280005D01*
X0105505Y0280043D02*
X0112236Y0280043D01*
X0112248Y0280081D02*
X0105494Y0280081D01*
X0105482Y0280119D02*
X0112259Y0280119D01*
X0112271Y0280157D02*
X0105471Y0280157D01*
X0105460Y0280195D02*
X0112283Y0280195D01*
X0112294Y0280233D02*
X0105448Y0280233D01*
X0105437Y0280271D02*
X0112306Y0280271D01*
X0112318Y0280309D02*
X0105426Y0280309D01*
X0105414Y0280346D02*
X0112329Y0280346D01*
X0112341Y0280384D02*
X0105403Y0280384D01*
X0105392Y0280422D02*
X0112353Y0280422D01*
X0112364Y0280460D02*
X0105381Y0280460D01*
X0105372Y0280498D02*
X0112372Y0280498D01*
X0112376Y0280536D02*
X0105369Y0280536D01*
X0105365Y0280574D02*
X0112380Y0280574D01*
X0112384Y0280612D02*
X0105362Y0280612D01*
X0105358Y0280649D02*
X0112387Y0280649D01*
X0112391Y0280687D02*
X0105355Y0280687D01*
X0105351Y0280725D02*
X0112395Y0280725D01*
X0112399Y0280763D02*
X0105347Y0280763D01*
X0105344Y0280801D02*
X0112403Y0280801D01*
X0112407Y0280839D02*
X0105340Y0280839D01*
X0105337Y0280877D02*
X0112411Y0280877D01*
X0112415Y0280915D02*
X0105333Y0280915D01*
X0105332Y0280952D02*
X0112416Y0280952D01*
X0112412Y0280990D02*
X0105336Y0280990D01*
X0105340Y0281028D02*
X0112407Y0281028D01*
X0112403Y0281066D02*
X0105344Y0281066D01*
X0105348Y0281104D02*
X0112398Y0281104D01*
X0112394Y0281142D02*
X0105352Y0281142D01*
X0105357Y0281180D02*
X0112389Y0281180D01*
X0112385Y0281218D02*
X0105361Y0281218D01*
X0105365Y0281256D02*
X0112381Y0281256D01*
X0112376Y0281293D02*
X0105369Y0281293D01*
X0105373Y0281331D02*
X0112372Y0281331D01*
X0112367Y0281369D02*
X0105377Y0281369D01*
X0105381Y0281407D02*
X0112363Y0281407D01*
X0112358Y0281445D02*
X0105385Y0281445D01*
X0105394Y0281483D02*
X0112351Y0281483D01*
X0112337Y0281521D02*
X0105407Y0281521D01*
X0105420Y0281559D02*
X0112324Y0281559D01*
X0112310Y0281596D02*
X0105433Y0281596D01*
X0105446Y0281634D02*
X0112297Y0281634D01*
X0112283Y0281672D02*
X0105459Y0281672D01*
X0105472Y0281710D02*
X0112270Y0281710D01*
X0112257Y0281748D02*
X0105485Y0281748D01*
X0105498Y0281786D02*
X0112243Y0281786D01*
X0112230Y0281824D02*
X0105511Y0281824D01*
X0105525Y0281862D02*
X0112216Y0281862D01*
X0112203Y0281900D02*
X0105538Y0281900D01*
X0105551Y0281937D02*
X0112189Y0281937D01*
X0112174Y0281975D02*
X0105567Y0281975D01*
X0105591Y0282013D02*
X0112150Y0282013D01*
X0112126Y0282051D02*
X0105614Y0282051D01*
X0105638Y0282089D02*
X0112102Y0282089D01*
X0112078Y0282127D02*
X0105662Y0282127D01*
X0105685Y0282165D02*
X0112054Y0282165D01*
X0112030Y0282203D02*
X0105709Y0282203D01*
X0105732Y0282240D02*
X0112006Y0282240D01*
X0111982Y0282278D02*
X0105756Y0282278D01*
X0105780Y0282316D02*
X0111958Y0282316D01*
X0111934Y0282354D02*
X0105803Y0282354D01*
X0105827Y0282392D02*
X0111910Y0282392D01*
X0111881Y0282430D02*
X0105858Y0282430D01*
X0105895Y0282468D02*
X0111843Y0282468D01*
X0111805Y0282506D02*
X0105933Y0282506D01*
X0105970Y0282544D02*
X0111767Y0282544D01*
X0111729Y0282581D02*
X0106008Y0282581D01*
X0106046Y0282619D02*
X0111690Y0282619D01*
X0111652Y0282657D02*
X0106083Y0282657D01*
X0106121Y0282695D02*
X0111614Y0282695D01*
X0111576Y0282733D02*
X0106158Y0282733D01*
X0106196Y0282771D02*
X0111538Y0282771D01*
X0111489Y0282809D02*
X0106248Y0282809D01*
X0106308Y0282847D02*
X0111429Y0282847D01*
X0111368Y0282884D02*
X0106367Y0282884D01*
X0106427Y0282922D02*
X0111307Y0282922D01*
X0111246Y0282960D02*
X0106487Y0282960D01*
X0106547Y0282998D02*
X0111185Y0282998D01*
X0111124Y0283036D02*
X0106606Y0283036D01*
X0106676Y0283074D02*
X0111062Y0283074D01*
X0110952Y0283112D02*
X0106783Y0283112D01*
X0106890Y0283150D02*
X0110842Y0283150D01*
X0110733Y0283188D02*
X0106996Y0283188D01*
X0107103Y0283225D02*
X0110623Y0283225D01*
X0110403Y0283263D02*
X0107332Y0283263D01*
X0107656Y0283301D02*
X0110054Y0283301D01*
X0120836Y0281445D02*
X0120979Y0281930D01*
X0121227Y0282370D01*
X0121567Y0282744D01*
X0121982Y0283033D01*
X0122450Y0283223D01*
X0122949Y0283303D01*
X0127673Y0283303D01*
X0128115Y0283242D01*
X0128537Y0283096D01*
X0128921Y0282871D01*
X0129255Y0282575D01*
X0129524Y0282219D01*
X0129719Y0281818D01*
X0129832Y0281386D01*
X0129858Y0280941D01*
X0129832Y0280496D01*
X0129719Y0280064D01*
X0129524Y0279663D01*
X0129255Y0279307D01*
X0128921Y0279011D01*
X0128537Y0278786D01*
X0128115Y0278640D01*
X0127673Y0278579D01*
X0122949Y0278579D01*
X0122450Y0278659D01*
X0121982Y0278849D01*
X0121567Y0279138D01*
X0121227Y0279512D01*
X0120979Y0279952D01*
X0120836Y0280437D01*
X0120803Y0280941D01*
X0120836Y0281445D01*
X0129817Y0281445D01*
X0129826Y0281407D02*
X0120833Y0281407D01*
X0120831Y0281369D02*
X0129833Y0281369D01*
X0129835Y0281331D02*
X0120828Y0281331D01*
X0120826Y0281293D02*
X0129837Y0281293D01*
X0129840Y0281256D02*
X0120823Y0281256D01*
X0120821Y0281218D02*
X0129842Y0281218D01*
X0129844Y0281180D02*
X0120819Y0281180D01*
X0120816Y0281142D02*
X0129846Y0281142D01*
X0129849Y0281104D02*
X0120814Y0281104D01*
X0120811Y0281066D02*
X0129851Y0281066D01*
X0129853Y0281028D02*
X0120809Y0281028D01*
X0120806Y0280990D02*
X0129855Y0280990D01*
X0129858Y0280952D02*
X0120804Y0280952D01*
X0120805Y0280915D02*
X0129857Y0280915D01*
X0129854Y0280877D02*
X0120807Y0280877D01*
X0120810Y0280839D02*
X0129852Y0280839D01*
X0129850Y0280801D02*
X0120812Y0280801D01*
X0120815Y0280763D02*
X0129848Y0280763D01*
X0129845Y0280725D02*
X0120817Y0280725D01*
X0120819Y0280687D02*
X0129843Y0280687D01*
X0129841Y0280649D02*
X0120822Y0280649D01*
X0120824Y0280612D02*
X0129839Y0280612D01*
X0129836Y0280574D02*
X0120827Y0280574D01*
X0120829Y0280536D02*
X0129834Y0280536D01*
X0129832Y0280498D02*
X0120832Y0280498D01*
X0120834Y0280460D02*
X0129823Y0280460D01*
X0129813Y0280422D02*
X0120840Y0280422D01*
X0120851Y0280384D02*
X0129803Y0280384D01*
X0129793Y0280346D02*
X0120862Y0280346D01*
X0120874Y0280309D02*
X0129783Y0280309D01*
X0129773Y0280271D02*
X0120885Y0280271D01*
X0120896Y0280233D02*
X0129763Y0280233D01*
X0129753Y0280195D02*
X0120907Y0280195D01*
X0120919Y0280157D02*
X0129743Y0280157D01*
X0129733Y0280119D02*
X0120930Y0280119D01*
X0120941Y0280081D02*
X0129724Y0280081D01*
X0129709Y0280043D02*
X0120952Y0280043D01*
X0120964Y0280005D02*
X0129691Y0280005D01*
X0129672Y0279968D02*
X0120975Y0279968D01*
X0120992Y0279930D02*
X0129654Y0279930D01*
X0129635Y0279892D02*
X0121013Y0279892D01*
X0121035Y0279854D02*
X0129617Y0279854D01*
X0129599Y0279816D02*
X0121056Y0279816D01*
X0121077Y0279778D02*
X0129580Y0279778D01*
X0129562Y0279740D02*
X0121099Y0279740D01*
X0121120Y0279702D02*
X0129544Y0279702D01*
X0129525Y0279665D02*
X0121141Y0279665D01*
X0121163Y0279627D02*
X0129497Y0279627D01*
X0129468Y0279589D02*
X0121184Y0279589D01*
X0121205Y0279551D02*
X0129439Y0279551D01*
X0129411Y0279513D02*
X0121227Y0279513D01*
X0121261Y0279475D02*
X0129382Y0279475D01*
X0129353Y0279437D02*
X0121295Y0279437D01*
X0121330Y0279399D02*
X0129325Y0279399D01*
X0129296Y0279361D02*
X0121364Y0279361D01*
X0121399Y0279324D02*
X0129267Y0279324D01*
X0129231Y0279286D02*
X0121433Y0279286D01*
X0121467Y0279248D02*
X0129188Y0279248D01*
X0129145Y0279210D02*
X0121502Y0279210D01*
X0121536Y0279172D02*
X0129103Y0279172D01*
X0129060Y0279134D02*
X0121573Y0279134D01*
X0121627Y0279096D02*
X0129017Y0279096D01*
X0128975Y0279058D02*
X0121681Y0279058D01*
X0121736Y0279021D02*
X0128932Y0279021D01*
X0128873Y0278983D02*
X0121790Y0278983D01*
X0121844Y0278945D02*
X0128808Y0278945D01*
X0128744Y0278907D02*
X0121898Y0278907D01*
X0121953Y0278869D02*
X0128679Y0278869D01*
X0128614Y0278831D02*
X0122026Y0278831D01*
X0122119Y0278793D02*
X0128549Y0278793D01*
X0128449Y0278755D02*
X0122213Y0278755D01*
X0122306Y0278717D02*
X0128340Y0278717D01*
X0128230Y0278680D02*
X0122400Y0278680D01*
X0122559Y0278642D02*
X0128121Y0278642D01*
X0127855Y0278604D02*
X0122793Y0278604D01*
X0120847Y0281483D02*
X0129807Y0281483D01*
X0129797Y0281521D02*
X0120858Y0281521D01*
X0120869Y0281559D02*
X0129787Y0281559D01*
X0129777Y0281596D02*
X0120880Y0281596D01*
X0120892Y0281634D02*
X0129767Y0281634D01*
X0129757Y0281672D02*
X0120903Y0281672D01*
X0120914Y0281710D02*
X0129747Y0281710D01*
X0129737Y0281748D02*
X0120925Y0281748D01*
X0120937Y0281786D02*
X0129727Y0281786D01*
X0129716Y0281824D02*
X0120948Y0281824D01*
X0120959Y0281862D02*
X0129698Y0281862D01*
X0129679Y0281900D02*
X0120970Y0281900D01*
X0120984Y0281937D02*
X0129661Y0281937D01*
X0129643Y0281975D02*
X0121005Y0281975D01*
X0121026Y0282013D02*
X0129624Y0282013D01*
X0129606Y0282051D02*
X0121048Y0282051D01*
X0121069Y0282089D02*
X0129587Y0282089D01*
X0129569Y0282127D02*
X0121090Y0282127D01*
X0121112Y0282165D02*
X0129551Y0282165D01*
X0129532Y0282203D02*
X0121133Y0282203D01*
X0121154Y0282240D02*
X0129508Y0282240D01*
X0129479Y0282278D02*
X0121176Y0282278D01*
X0121197Y0282316D02*
X0129451Y0282316D01*
X0129422Y0282354D02*
X0121219Y0282354D01*
X0121247Y0282392D02*
X0129393Y0282392D01*
X0129365Y0282430D02*
X0121282Y0282430D01*
X0121316Y0282468D02*
X0129336Y0282468D01*
X0129307Y0282506D02*
X0121351Y0282506D01*
X0121385Y0282544D02*
X0129279Y0282544D01*
X0129247Y0282581D02*
X0121420Y0282581D01*
X0121454Y0282619D02*
X0129205Y0282619D01*
X0129162Y0282657D02*
X0121488Y0282657D01*
X0121523Y0282695D02*
X0129119Y0282695D01*
X0129077Y0282733D02*
X0121557Y0282733D01*
X0121606Y0282771D02*
X0129034Y0282771D01*
X0128991Y0282809D02*
X0121660Y0282809D01*
X0121714Y0282847D02*
X0128949Y0282847D01*
X0128898Y0282884D02*
X0121769Y0282884D01*
X0121823Y0282922D02*
X0128833Y0282922D01*
X0128769Y0282960D02*
X0121877Y0282960D01*
X0121932Y0282998D02*
X0128704Y0282998D01*
X0128639Y0283036D02*
X0121989Y0283036D01*
X0122083Y0283074D02*
X0128575Y0283074D01*
X0128492Y0283112D02*
X0122176Y0283112D01*
X0122270Y0283150D02*
X0128382Y0283150D01*
X0128273Y0283188D02*
X0122363Y0283188D01*
X0122467Y0283225D02*
X0128164Y0283225D01*
X0127962Y0283263D02*
X0122702Y0283263D01*
X0122936Y0283301D02*
X0127688Y0283301D01*
X0127673Y0456563D02*
X0122949Y0456563D01*
X0122450Y0456644D01*
X0121982Y0456833D01*
X0121567Y0457122D01*
X0121227Y0457496D01*
X0120979Y0457937D01*
X0120836Y0458421D01*
X0120803Y0458925D01*
X0120836Y0459429D01*
X0120979Y0459914D01*
X0121227Y0460354D01*
X0121567Y0460728D01*
X0121982Y0461017D01*
X0122450Y0461207D01*
X0122949Y0461287D01*
X0127673Y0461287D01*
X0128115Y0461226D01*
X0128537Y0461080D01*
X0128921Y0460855D01*
X0129255Y0460559D01*
X0129524Y0460203D01*
X0129719Y0459802D01*
X0129832Y0459370D01*
X0129858Y0458925D01*
X0129832Y0458480D01*
X0129719Y0458048D01*
X0120946Y0458048D01*
X0120935Y0458086D02*
X0129729Y0458086D01*
X0129719Y0458048D02*
X0129524Y0457647D01*
X0129255Y0457292D01*
X0128921Y0456995D01*
X0128537Y0456770D01*
X0128115Y0456624D01*
X0127673Y0456563D01*
X0127729Y0456571D02*
X0122901Y0456571D01*
X0122667Y0456609D02*
X0128003Y0456609D01*
X0128180Y0456646D02*
X0122443Y0456646D01*
X0122349Y0456684D02*
X0128289Y0456684D01*
X0128399Y0456722D02*
X0122256Y0456722D01*
X0122162Y0456760D02*
X0128508Y0456760D01*
X0128584Y0456798D02*
X0122069Y0456798D01*
X0121978Y0456836D02*
X0128649Y0456836D01*
X0128714Y0456874D02*
X0121923Y0456874D01*
X0121869Y0456912D02*
X0128778Y0456912D01*
X0128843Y0456949D02*
X0121815Y0456949D01*
X0121761Y0456987D02*
X0128908Y0456987D01*
X0128955Y0457025D02*
X0121706Y0457025D01*
X0121652Y0457063D02*
X0128998Y0457063D01*
X0129040Y0457101D02*
X0121598Y0457101D01*
X0121552Y0457139D02*
X0129083Y0457139D01*
X0129126Y0457177D02*
X0121518Y0457177D01*
X0121483Y0457215D02*
X0129168Y0457215D01*
X0129211Y0457253D02*
X0121449Y0457253D01*
X0121414Y0457290D02*
X0129254Y0457290D01*
X0129283Y0457328D02*
X0121380Y0457328D01*
X0121346Y0457366D02*
X0129312Y0457366D01*
X0129340Y0457404D02*
X0121311Y0457404D01*
X0121277Y0457442D02*
X0129369Y0457442D01*
X0129398Y0457480D02*
X0121242Y0457480D01*
X0121215Y0457518D02*
X0129426Y0457518D01*
X0129455Y0457556D02*
X0121194Y0457556D01*
X0121173Y0457593D02*
X0129484Y0457593D01*
X0129512Y0457631D02*
X0121151Y0457631D01*
X0121130Y0457669D02*
X0129535Y0457669D01*
X0129553Y0457707D02*
X0121109Y0457707D01*
X0121087Y0457745D02*
X0129572Y0457745D01*
X0129590Y0457783D02*
X0121066Y0457783D01*
X0121045Y0457821D02*
X0129609Y0457821D01*
X0129627Y0457859D02*
X0121023Y0457859D01*
X0121002Y0457897D02*
X0129645Y0457897D01*
X0129664Y0457934D02*
X0120981Y0457934D01*
X0120969Y0457972D02*
X0129682Y0457972D01*
X0129701Y0458010D02*
X0120958Y0458010D01*
X0120924Y0458124D02*
X0129739Y0458124D01*
X0129749Y0458162D02*
X0120913Y0458162D01*
X0120901Y0458200D02*
X0129759Y0458200D01*
X0129769Y0458237D02*
X0120890Y0458237D01*
X0120879Y0458275D02*
X0129778Y0458275D01*
X0129788Y0458313D02*
X0120868Y0458313D01*
X0120856Y0458351D02*
X0129798Y0458351D01*
X0129808Y0458389D02*
X0120845Y0458389D01*
X0120835Y0458427D02*
X0129818Y0458427D01*
X0129828Y0458465D02*
X0120833Y0458465D01*
X0120830Y0458503D02*
X0129833Y0458503D01*
X0129835Y0458540D02*
X0120828Y0458540D01*
X0120825Y0458578D02*
X0129838Y0458578D01*
X0129840Y0458616D02*
X0120823Y0458616D01*
X0120821Y0458654D02*
X0129842Y0458654D01*
X0129844Y0458692D02*
X0120818Y0458692D01*
X0120816Y0458730D02*
X0129847Y0458730D01*
X0129849Y0458768D02*
X0120813Y0458768D01*
X0120811Y0458806D02*
X0129851Y0458806D01*
X0129853Y0458844D02*
X0120808Y0458844D01*
X0120806Y0458881D02*
X0129856Y0458881D01*
X0129858Y0458919D02*
X0120804Y0458919D01*
X0120805Y0458957D02*
X0129856Y0458957D01*
X0129854Y0458995D02*
X0120808Y0458995D01*
X0120810Y0459033D02*
X0129852Y0459033D01*
X0129850Y0459071D02*
X0120813Y0459071D01*
X0120815Y0459109D02*
X0129847Y0459109D01*
X0129845Y0459147D02*
X0120817Y0459147D01*
X0120820Y0459184D02*
X0129843Y0459184D01*
X0129841Y0459222D02*
X0120822Y0459222D01*
X0120825Y0459260D02*
X0129838Y0459260D01*
X0129836Y0459298D02*
X0120827Y0459298D01*
X0120830Y0459336D02*
X0129834Y0459336D01*
X0129831Y0459374D02*
X0120832Y0459374D01*
X0120834Y0459412D02*
X0129821Y0459412D01*
X0129811Y0459450D02*
X0120842Y0459450D01*
X0120853Y0459488D02*
X0129801Y0459488D01*
X0129791Y0459525D02*
X0120864Y0459525D01*
X0120875Y0459563D02*
X0129781Y0459563D01*
X0129772Y0459601D02*
X0120887Y0459601D01*
X0120898Y0459639D02*
X0129762Y0459639D01*
X0129752Y0459677D02*
X0120909Y0459677D01*
X0120920Y0459715D02*
X0129742Y0459715D01*
X0129732Y0459753D02*
X0120932Y0459753D01*
X0120943Y0459791D02*
X0129722Y0459791D01*
X0129706Y0459828D02*
X0120954Y0459828D01*
X0120965Y0459866D02*
X0129688Y0459866D01*
X0129669Y0459904D02*
X0120977Y0459904D01*
X0120995Y0459942D02*
X0129651Y0459942D01*
X0129633Y0459980D02*
X0121017Y0459980D01*
X0121038Y0460018D02*
X0129614Y0460018D01*
X0129596Y0460056D02*
X0121059Y0460056D01*
X0121081Y0460094D02*
X0129578Y0460094D01*
X0129559Y0460132D02*
X0121102Y0460132D01*
X0121123Y0460169D02*
X0129541Y0460169D01*
X0129521Y0460207D02*
X0121145Y0460207D01*
X0121166Y0460245D02*
X0129493Y0460245D01*
X0129464Y0460283D02*
X0121187Y0460283D01*
X0121209Y0460321D02*
X0129435Y0460321D01*
X0129407Y0460359D02*
X0121232Y0460359D01*
X0121266Y0460397D02*
X0129378Y0460397D01*
X0129349Y0460435D02*
X0121300Y0460435D01*
X0121335Y0460472D02*
X0129320Y0460472D01*
X0129292Y0460510D02*
X0121369Y0460510D01*
X0121404Y0460548D02*
X0129263Y0460548D01*
X0129224Y0460586D02*
X0121438Y0460586D01*
X0121472Y0460624D02*
X0129182Y0460624D01*
X0129139Y0460662D02*
X0121507Y0460662D01*
X0121541Y0460700D02*
X0129096Y0460700D01*
X0129054Y0460738D02*
X0121581Y0460738D01*
X0121635Y0460775D02*
X0129011Y0460775D01*
X0128968Y0460813D02*
X0121689Y0460813D01*
X0121744Y0460851D02*
X0128926Y0460851D01*
X0128863Y0460889D02*
X0121798Y0460889D01*
X0121852Y0460927D02*
X0128798Y0460927D01*
X0128734Y0460965D02*
X0121907Y0460965D01*
X0121961Y0461003D02*
X0128669Y0461003D01*
X0128604Y0461041D02*
X0122040Y0461041D01*
X0122133Y0461079D02*
X0128540Y0461079D01*
X0128433Y0461116D02*
X0122227Y0461116D01*
X0122320Y0461154D02*
X0128323Y0461154D01*
X0128214Y0461192D02*
X0122414Y0461192D01*
X0122594Y0461230D02*
X0128089Y0461230D01*
X0127814Y0461268D02*
X0122828Y0461268D01*
X0112356Y0459453D02*
X0112417Y0458925D01*
X0112370Y0458463D01*
X0112233Y0458018D01*
X0112012Y0457609D01*
X0111716Y0457251D01*
X0111355Y0456957D01*
X0110944Y0456740D01*
X0110498Y0456607D01*
X0110035Y0456563D01*
X0107673Y0456563D01*
X0107214Y0456610D01*
X0106774Y0456746D01*
X0106368Y0456965D01*
X0106013Y0457259D01*
X0105722Y0457617D01*
X0105506Y0458024D01*
X0105374Y0458466D01*
X0105331Y0458925D01*
X0105387Y0459449D01*
X0105559Y0459947D01*
X0105838Y0460394D01*
X0106209Y0460768D01*
X0106654Y0461050D01*
X0107150Y0461226D01*
X0107673Y0461287D01*
X0110035Y0461287D01*
X0110564Y0461230D01*
X0107183Y0461230D01*
X0107054Y0461192D02*
X0110673Y0461192D01*
X0110564Y0461230D02*
X0111066Y0461057D01*
X0111517Y0460776D01*
X0111894Y0460402D01*
X0112178Y0459953D01*
X0112356Y0459453D01*
X0112356Y0459450D02*
X0105388Y0459450D01*
X0105383Y0459412D02*
X0112360Y0459412D01*
X0112365Y0459374D02*
X0105379Y0459374D01*
X0105375Y0459336D02*
X0112369Y0459336D01*
X0112374Y0459298D02*
X0105371Y0459298D01*
X0105367Y0459260D02*
X0112378Y0459260D01*
X0112383Y0459222D02*
X0105363Y0459222D01*
X0105359Y0459184D02*
X0112387Y0459184D01*
X0112391Y0459147D02*
X0105355Y0459147D01*
X0105351Y0459109D02*
X0112396Y0459109D01*
X0112400Y0459071D02*
X0105346Y0459071D01*
X0105342Y0459033D02*
X0112405Y0459033D01*
X0112409Y0458995D02*
X0105338Y0458995D01*
X0105334Y0458957D02*
X0112414Y0458957D01*
X0112417Y0458919D02*
X0105331Y0458919D01*
X0105335Y0458881D02*
X0112413Y0458881D01*
X0112409Y0458844D02*
X0105338Y0458844D01*
X0105342Y0458806D02*
X0112405Y0458806D01*
X0112401Y0458768D02*
X0105346Y0458768D01*
X0105349Y0458730D02*
X0112397Y0458730D01*
X0112393Y0458692D02*
X0105353Y0458692D01*
X0105356Y0458654D02*
X0112389Y0458654D01*
X0112386Y0458616D02*
X0105360Y0458616D01*
X0105363Y0458578D02*
X0112382Y0458578D01*
X0112378Y0458540D02*
X0105367Y0458540D01*
X0105371Y0458503D02*
X0112374Y0458503D01*
X0112370Y0458465D02*
X0105374Y0458465D01*
X0105386Y0458427D02*
X0112359Y0458427D01*
X0112347Y0458389D02*
X0105397Y0458389D01*
X0105408Y0458351D02*
X0112335Y0458351D01*
X0112324Y0458313D02*
X0105420Y0458313D01*
X0105431Y0458275D02*
X0112312Y0458275D01*
X0112300Y0458237D02*
X0105442Y0458237D01*
X0105454Y0458200D02*
X0112289Y0458200D01*
X0112277Y0458162D02*
X0105465Y0458162D01*
X0105476Y0458124D02*
X0112266Y0458124D01*
X0112254Y0458086D02*
X0105488Y0458086D01*
X0105499Y0458048D02*
X0112242Y0458048D01*
X0112229Y0458010D02*
X0105513Y0458010D01*
X0105534Y0457972D02*
X0112208Y0457972D01*
X0112188Y0457934D02*
X0105554Y0457934D01*
X0105574Y0457897D02*
X0112167Y0457897D01*
X0112147Y0457859D02*
X0105594Y0457859D01*
X0105614Y0457821D02*
X0112126Y0457821D01*
X0112106Y0457783D02*
X0105634Y0457783D01*
X0105654Y0457745D02*
X0112085Y0457745D01*
X0112065Y0457707D02*
X0105674Y0457707D01*
X0105694Y0457669D02*
X0112045Y0457669D01*
X0112024Y0457631D02*
X0105714Y0457631D01*
X0105741Y0457593D02*
X0111999Y0457593D01*
X0111968Y0457556D02*
X0105771Y0457556D01*
X0105802Y0457518D02*
X0111937Y0457518D01*
X0111905Y0457480D02*
X0105833Y0457480D01*
X0105864Y0457442D02*
X0111874Y0457442D01*
X0111842Y0457404D02*
X0105895Y0457404D01*
X0105925Y0457366D02*
X0111811Y0457366D01*
X0111780Y0457328D02*
X0105956Y0457328D01*
X0105987Y0457290D02*
X0111748Y0457290D01*
X0111717Y0457253D02*
X0106020Y0457253D01*
X0106066Y0457215D02*
X0111671Y0457215D01*
X0111625Y0457177D02*
X0106112Y0457177D01*
X0106158Y0457139D02*
X0111578Y0457139D01*
X0111532Y0457101D02*
X0106204Y0457101D01*
X0106249Y0457063D02*
X0111485Y0457063D01*
X0111438Y0457025D02*
X0106295Y0457025D01*
X0106341Y0456987D02*
X0111392Y0456987D01*
X0111340Y0456949D02*
X0106397Y0456949D01*
X0106467Y0456912D02*
X0111269Y0456912D01*
X0111197Y0456874D02*
X0106537Y0456874D01*
X0106607Y0456836D02*
X0111125Y0456836D01*
X0111054Y0456798D02*
X0106677Y0456798D01*
X0106747Y0456760D02*
X0110982Y0456760D01*
X0110885Y0456722D02*
X0106851Y0456722D01*
X0106974Y0456684D02*
X0110758Y0456684D01*
X0110631Y0456646D02*
X0107097Y0456646D01*
X0107230Y0456609D02*
X0110505Y0456609D01*
X0110117Y0456571D02*
X0107599Y0456571D01*
X0105401Y0459488D02*
X0112343Y0459488D01*
X0112330Y0459525D02*
X0105414Y0459525D01*
X0105427Y0459563D02*
X0112316Y0459563D01*
X0112303Y0459601D02*
X0105440Y0459601D01*
X0105453Y0459639D02*
X0112290Y0459639D01*
X0112276Y0459677D02*
X0105466Y0459677D01*
X0105479Y0459715D02*
X0112263Y0459715D01*
X0112249Y0459753D02*
X0105492Y0459753D01*
X0105505Y0459791D02*
X0112236Y0459791D01*
X0112222Y0459828D02*
X0105519Y0459828D01*
X0105532Y0459866D02*
X0112209Y0459866D01*
X0112196Y0459904D02*
X0105545Y0459904D01*
X0105558Y0459942D02*
X0112182Y0459942D01*
X0112161Y0459980D02*
X0105580Y0459980D01*
X0105604Y0460018D02*
X0112137Y0460018D01*
X0112113Y0460056D02*
X0105627Y0460056D01*
X0105651Y0460094D02*
X0112089Y0460094D01*
X0112065Y0460132D02*
X0105674Y0460132D01*
X0105698Y0460169D02*
X0112041Y0460169D01*
X0112017Y0460207D02*
X0105722Y0460207D01*
X0105745Y0460245D02*
X0111993Y0460245D01*
X0111969Y0460283D02*
X0105769Y0460283D01*
X0105792Y0460321D02*
X0111945Y0460321D01*
X0111921Y0460359D02*
X0105816Y0460359D01*
X0105840Y0460397D02*
X0111897Y0460397D01*
X0111861Y0460435D02*
X0105878Y0460435D01*
X0105916Y0460472D02*
X0111823Y0460472D01*
X0111784Y0460510D02*
X0105953Y0460510D01*
X0105991Y0460548D02*
X0111746Y0460548D01*
X0111708Y0460586D02*
X0106028Y0460586D01*
X0106066Y0460624D02*
X0111670Y0460624D01*
X0111632Y0460662D02*
X0106103Y0460662D01*
X0106141Y0460700D02*
X0111593Y0460700D01*
X0111555Y0460738D02*
X0106179Y0460738D01*
X0106220Y0460775D02*
X0111517Y0460775D01*
X0111457Y0460813D02*
X0106280Y0460813D01*
X0106340Y0460851D02*
X0111396Y0460851D01*
X0111335Y0460889D02*
X0106400Y0460889D01*
X0106459Y0460927D02*
X0111274Y0460927D01*
X0111213Y0460965D02*
X0106519Y0460965D01*
X0106579Y0461003D02*
X0111152Y0461003D01*
X0111091Y0461041D02*
X0106639Y0461041D01*
X0106734Y0461079D02*
X0111003Y0461079D01*
X0110893Y0461116D02*
X0106840Y0461116D01*
X0106947Y0461154D02*
X0110783Y0461154D01*
X0110215Y0461268D02*
X0107507Y0461268D01*
X0107673Y0490579D02*
X0107214Y0490626D01*
X0110511Y0490626D01*
X0110498Y0490622D02*
X0110035Y0490579D01*
X0107673Y0490579D01*
X0107582Y0490588D02*
X0110135Y0490588D01*
X0110498Y0490622D02*
X0110944Y0490756D01*
X0111355Y0490973D01*
X0111716Y0491267D01*
X0112012Y0491625D01*
X0112233Y0492034D01*
X0112370Y0492478D01*
X0112417Y0492941D01*
X0112356Y0493469D01*
X0112178Y0493969D01*
X0111894Y0494418D01*
X0111517Y0494792D01*
X0111066Y0495073D01*
X0110564Y0495246D01*
X0110035Y0495303D01*
X0107673Y0495303D01*
X0107150Y0495242D01*
X0106654Y0495066D01*
X0106209Y0494784D01*
X0105838Y0494410D01*
X0105559Y0493963D01*
X0105387Y0493465D01*
X0105331Y0492941D01*
X0105374Y0492482D01*
X0105506Y0492040D01*
X0105722Y0491632D01*
X0106013Y0491275D01*
X0106368Y0490981D01*
X0106774Y0490762D01*
X0107214Y0490626D01*
X0107091Y0490664D02*
X0110637Y0490664D01*
X0110764Y0490702D02*
X0106968Y0490702D01*
X0106845Y0490740D02*
X0110891Y0490740D01*
X0110986Y0490778D02*
X0106744Y0490778D01*
X0106674Y0490815D02*
X0111057Y0490815D01*
X0111129Y0490853D02*
X0106604Y0490853D01*
X0106534Y0490891D02*
X0111200Y0490891D01*
X0111272Y0490929D02*
X0106463Y0490929D01*
X0106393Y0490967D02*
X0111343Y0490967D01*
X0111394Y0491005D02*
X0106339Y0491005D01*
X0106293Y0491043D02*
X0111441Y0491043D01*
X0111487Y0491081D02*
X0106247Y0491081D01*
X0106201Y0491118D02*
X0111534Y0491118D01*
X0111580Y0491156D02*
X0106156Y0491156D01*
X0106110Y0491194D02*
X0111627Y0491194D01*
X0111673Y0491232D02*
X0106064Y0491232D01*
X0106018Y0491270D02*
X0111719Y0491270D01*
X0111750Y0491308D02*
X0105986Y0491308D01*
X0105955Y0491346D02*
X0111781Y0491346D01*
X0111813Y0491384D02*
X0105924Y0491384D01*
X0105893Y0491422D02*
X0111844Y0491422D01*
X0111875Y0491459D02*
X0105862Y0491459D01*
X0105832Y0491497D02*
X0111907Y0491497D01*
X0111938Y0491535D02*
X0105801Y0491535D01*
X0105770Y0491573D02*
X0111969Y0491573D01*
X0112001Y0491611D02*
X0105739Y0491611D01*
X0105713Y0491649D02*
X0112025Y0491649D01*
X0112046Y0491687D02*
X0105693Y0491687D01*
X0105673Y0491725D02*
X0112066Y0491725D01*
X0112086Y0491762D02*
X0105653Y0491762D01*
X0105633Y0491800D02*
X0112107Y0491800D01*
X0112127Y0491838D02*
X0105613Y0491838D01*
X0105593Y0491876D02*
X0112148Y0491876D01*
X0112168Y0491914D02*
X0105573Y0491914D01*
X0105553Y0491952D02*
X0112189Y0491952D01*
X0112209Y0491990D02*
X0105533Y0491990D01*
X0105513Y0492028D02*
X0112230Y0492028D01*
X0112243Y0492066D02*
X0105498Y0492066D01*
X0105487Y0492103D02*
X0112254Y0492103D01*
X0112266Y0492141D02*
X0105476Y0492141D01*
X0105464Y0492179D02*
X0112278Y0492179D01*
X0112289Y0492217D02*
X0105453Y0492217D01*
X0105442Y0492255D02*
X0112301Y0492255D01*
X0112313Y0492293D02*
X0105430Y0492293D01*
X0105419Y0492331D02*
X0112324Y0492331D01*
X0112336Y0492369D02*
X0105408Y0492369D01*
X0105397Y0492406D02*
X0112348Y0492406D01*
X0112359Y0492444D02*
X0105385Y0492444D01*
X0105374Y0492482D02*
X0112370Y0492482D01*
X0112374Y0492520D02*
X0105370Y0492520D01*
X0105367Y0492558D02*
X0112378Y0492558D01*
X0112382Y0492596D02*
X0105363Y0492596D01*
X0105360Y0492634D02*
X0112386Y0492634D01*
X0112390Y0492672D02*
X0105356Y0492672D01*
X0105353Y0492710D02*
X0112394Y0492710D01*
X0112397Y0492747D02*
X0105349Y0492747D01*
X0105345Y0492785D02*
X0112401Y0492785D01*
X0112405Y0492823D02*
X0105342Y0492823D01*
X0105338Y0492861D02*
X0112409Y0492861D01*
X0112413Y0492899D02*
X0105335Y0492899D01*
X0105331Y0492937D02*
X0112417Y0492937D01*
X0112413Y0492975D02*
X0105334Y0492975D01*
X0105338Y0493013D02*
X0112409Y0493013D01*
X0112405Y0493050D02*
X0105343Y0493050D01*
X0105347Y0493088D02*
X0112400Y0493088D01*
X0112396Y0493126D02*
X0105351Y0493126D01*
X0105355Y0493164D02*
X0112391Y0493164D01*
X0112387Y0493202D02*
X0105359Y0493202D01*
X0105363Y0493240D02*
X0112382Y0493240D01*
X0112378Y0493278D02*
X0105367Y0493278D01*
X0105371Y0493316D02*
X0112374Y0493316D01*
X0112369Y0493353D02*
X0105375Y0493353D01*
X0105380Y0493391D02*
X0112365Y0493391D01*
X0112360Y0493429D02*
X0105384Y0493429D01*
X0105388Y0493467D02*
X0112356Y0493467D01*
X0112343Y0493505D02*
X0105401Y0493505D01*
X0105415Y0493543D02*
X0112329Y0493543D01*
X0112316Y0493581D02*
X0105428Y0493581D01*
X0105441Y0493619D02*
X0112302Y0493619D01*
X0112289Y0493657D02*
X0105454Y0493657D01*
X0105467Y0493694D02*
X0112276Y0493694D01*
X0112262Y0493732D02*
X0105480Y0493732D01*
X0105493Y0493770D02*
X0112249Y0493770D01*
X0112235Y0493808D02*
X0105506Y0493808D01*
X0105519Y0493846D02*
X0112222Y0493846D01*
X0112208Y0493884D02*
X0105532Y0493884D01*
X0105545Y0493922D02*
X0112195Y0493922D01*
X0112182Y0493960D02*
X0105558Y0493960D01*
X0105581Y0493997D02*
X0112160Y0493997D01*
X0112136Y0494035D02*
X0105605Y0494035D01*
X0105628Y0494073D02*
X0112112Y0494073D01*
X0112088Y0494111D02*
X0105652Y0494111D01*
X0105675Y0494149D02*
X0112064Y0494149D01*
X0112040Y0494187D02*
X0105699Y0494187D01*
X0105723Y0494225D02*
X0112016Y0494225D01*
X0111992Y0494263D02*
X0105746Y0494263D01*
X0105770Y0494301D02*
X0111968Y0494301D01*
X0111944Y0494338D02*
X0105793Y0494338D01*
X0105817Y0494376D02*
X0111920Y0494376D01*
X0111896Y0494414D02*
X0105842Y0494414D01*
X0105880Y0494452D02*
X0111859Y0494452D01*
X0111821Y0494490D02*
X0105917Y0494490D01*
X0105955Y0494528D02*
X0111783Y0494528D01*
X0111744Y0494566D02*
X0105992Y0494566D01*
X0106030Y0494604D02*
X0111706Y0494604D01*
X0111668Y0494641D02*
X0106068Y0494641D01*
X0106105Y0494679D02*
X0111630Y0494679D01*
X0111592Y0494717D02*
X0106143Y0494717D01*
X0106180Y0494755D02*
X0111553Y0494755D01*
X0111515Y0494793D02*
X0106223Y0494793D01*
X0106283Y0494831D02*
X0111454Y0494831D01*
X0111393Y0494869D02*
X0106343Y0494869D01*
X0106402Y0494907D02*
X0111332Y0494907D01*
X0111271Y0494945D02*
X0106462Y0494945D01*
X0106522Y0494982D02*
X0111210Y0494982D01*
X0111150Y0495020D02*
X0106582Y0495020D01*
X0106641Y0495058D02*
X0111089Y0495058D01*
X0110997Y0495096D02*
X0106738Y0495096D01*
X0106845Y0495134D02*
X0110888Y0495134D01*
X0110778Y0495172D02*
X0106952Y0495172D01*
X0107059Y0495210D02*
X0110668Y0495210D01*
X0110548Y0495248D02*
X0107198Y0495248D01*
X0107522Y0495285D02*
X0110199Y0495285D01*
X0120836Y0493445D02*
X0120979Y0493930D01*
X0121227Y0494370D01*
X0121567Y0494744D01*
X0121982Y0495033D01*
X0122450Y0495223D01*
X0122949Y0495303D01*
X0127673Y0495303D01*
X0128115Y0495242D01*
X0128537Y0495096D01*
X0122137Y0495096D01*
X0122044Y0495058D02*
X0128601Y0495058D01*
X0128537Y0495096D02*
X0128921Y0494871D01*
X0129255Y0494575D01*
X0129524Y0494219D01*
X0129719Y0493818D01*
X0129832Y0493386D01*
X0129858Y0492941D01*
X0129832Y0492496D01*
X0129719Y0492064D01*
X0129524Y0491663D01*
X0129255Y0491307D01*
X0128921Y0491011D01*
X0128537Y0490786D01*
X0128115Y0490640D01*
X0127673Y0490579D01*
X0122949Y0490579D01*
X0122450Y0490659D01*
X0121982Y0490849D01*
X0121567Y0491138D01*
X0121227Y0491512D01*
X0120979Y0491952D01*
X0120836Y0492437D01*
X0120803Y0492941D01*
X0120836Y0493445D01*
X0120835Y0493429D02*
X0129821Y0493429D01*
X0129831Y0493391D02*
X0120832Y0493391D01*
X0120830Y0493353D02*
X0129834Y0493353D01*
X0129836Y0493316D02*
X0120827Y0493316D01*
X0120825Y0493278D02*
X0129838Y0493278D01*
X0129841Y0493240D02*
X0120822Y0493240D01*
X0120820Y0493202D02*
X0129843Y0493202D01*
X0129845Y0493164D02*
X0120817Y0493164D01*
X0120815Y0493126D02*
X0129847Y0493126D01*
X0129850Y0493088D02*
X0120813Y0493088D01*
X0120810Y0493050D02*
X0129852Y0493050D01*
X0129854Y0493013D02*
X0120808Y0493013D01*
X0120805Y0492975D02*
X0129856Y0492975D01*
X0129858Y0492937D02*
X0120803Y0492937D01*
X0120806Y0492899D02*
X0129856Y0492899D01*
X0129854Y0492861D02*
X0120808Y0492861D01*
X0120811Y0492823D02*
X0129851Y0492823D01*
X0129849Y0492785D02*
X0120813Y0492785D01*
X0120816Y0492747D02*
X0129847Y0492747D01*
X0129845Y0492710D02*
X0120818Y0492710D01*
X0120820Y0492672D02*
X0129842Y0492672D01*
X0129840Y0492634D02*
X0120823Y0492634D01*
X0120825Y0492596D02*
X0129838Y0492596D01*
X0129836Y0492558D02*
X0120828Y0492558D01*
X0120830Y0492520D02*
X0129833Y0492520D01*
X0129828Y0492482D02*
X0120833Y0492482D01*
X0120835Y0492444D02*
X0129818Y0492444D01*
X0129809Y0492406D02*
X0120845Y0492406D01*
X0120856Y0492369D02*
X0129799Y0492369D01*
X0129789Y0492331D02*
X0120867Y0492331D01*
X0120878Y0492293D02*
X0129779Y0492293D01*
X0129769Y0492255D02*
X0120890Y0492255D01*
X0120901Y0492217D02*
X0129759Y0492217D01*
X0129749Y0492179D02*
X0120912Y0492179D01*
X0120923Y0492141D02*
X0129739Y0492141D01*
X0129729Y0492103D02*
X0120935Y0492103D01*
X0120946Y0492066D02*
X0129719Y0492066D01*
X0129701Y0492028D02*
X0120957Y0492028D01*
X0120968Y0491990D02*
X0129683Y0491990D01*
X0129665Y0491952D02*
X0120980Y0491952D01*
X0121001Y0491914D02*
X0129646Y0491914D01*
X0129628Y0491876D02*
X0121022Y0491876D01*
X0121044Y0491838D02*
X0129609Y0491838D01*
X0129591Y0491800D02*
X0121065Y0491800D01*
X0121086Y0491762D02*
X0129573Y0491762D01*
X0129554Y0491725D02*
X0121108Y0491725D01*
X0121129Y0491687D02*
X0129536Y0491687D01*
X0129514Y0491649D02*
X0121150Y0491649D01*
X0121172Y0491611D02*
X0129485Y0491611D01*
X0129456Y0491573D02*
X0121193Y0491573D01*
X0121214Y0491535D02*
X0129428Y0491535D01*
X0129399Y0491497D02*
X0121241Y0491497D01*
X0121275Y0491459D02*
X0129370Y0491459D01*
X0129342Y0491422D02*
X0121310Y0491422D01*
X0121344Y0491384D02*
X0129313Y0491384D01*
X0129284Y0491346D02*
X0121378Y0491346D01*
X0121413Y0491308D02*
X0129255Y0491308D01*
X0129213Y0491270D02*
X0121447Y0491270D01*
X0121482Y0491232D02*
X0129170Y0491232D01*
X0129128Y0491194D02*
X0121516Y0491194D01*
X0121550Y0491156D02*
X0129085Y0491156D01*
X0129042Y0491118D02*
X0121595Y0491118D01*
X0121649Y0491081D02*
X0129000Y0491081D01*
X0128957Y0491043D02*
X0121704Y0491043D01*
X0121758Y0491005D02*
X0128911Y0491005D01*
X0128846Y0490967D02*
X0121812Y0490967D01*
X0121867Y0490929D02*
X0128781Y0490929D01*
X0128717Y0490891D02*
X0121921Y0490891D01*
X0121975Y0490853D02*
X0128652Y0490853D01*
X0128587Y0490815D02*
X0122064Y0490815D01*
X0122158Y0490778D02*
X0128513Y0490778D01*
X0128404Y0490740D02*
X0122252Y0490740D01*
X0122345Y0490702D02*
X0128294Y0490702D01*
X0128185Y0490664D02*
X0122439Y0490664D01*
X0122656Y0490626D02*
X0128016Y0490626D01*
X0127741Y0490588D02*
X0122891Y0490588D01*
X0120842Y0493467D02*
X0129811Y0493467D01*
X0129801Y0493505D02*
X0120853Y0493505D01*
X0120865Y0493543D02*
X0129791Y0493543D01*
X0129781Y0493581D02*
X0120876Y0493581D01*
X0120887Y0493619D02*
X0129771Y0493619D01*
X0129761Y0493657D02*
X0120898Y0493657D01*
X0120910Y0493694D02*
X0129751Y0493694D01*
X0129741Y0493732D02*
X0120921Y0493732D01*
X0120932Y0493770D02*
X0129732Y0493770D01*
X0129722Y0493808D02*
X0120943Y0493808D01*
X0120955Y0493846D02*
X0129705Y0493846D01*
X0129687Y0493884D02*
X0120966Y0493884D01*
X0120977Y0493922D02*
X0129669Y0493922D01*
X0129650Y0493960D02*
X0120996Y0493960D01*
X0121018Y0493997D02*
X0129632Y0493997D01*
X0129613Y0494035D02*
X0121039Y0494035D01*
X0121060Y0494073D02*
X0129595Y0494073D01*
X0129577Y0494111D02*
X0121082Y0494111D01*
X0121103Y0494149D02*
X0129558Y0494149D01*
X0129540Y0494187D02*
X0121124Y0494187D01*
X0121146Y0494225D02*
X0129520Y0494225D01*
X0129491Y0494263D02*
X0121167Y0494263D01*
X0121188Y0494301D02*
X0129463Y0494301D01*
X0129434Y0494338D02*
X0121210Y0494338D01*
X0121233Y0494376D02*
X0129405Y0494376D01*
X0129376Y0494414D02*
X0121268Y0494414D01*
X0121302Y0494452D02*
X0129348Y0494452D01*
X0129319Y0494490D02*
X0121336Y0494490D01*
X0121371Y0494528D02*
X0129290Y0494528D01*
X0129262Y0494566D02*
X0121405Y0494566D01*
X0121440Y0494604D02*
X0129222Y0494604D01*
X0129180Y0494641D02*
X0121474Y0494641D01*
X0121508Y0494679D02*
X0129137Y0494679D01*
X0129094Y0494717D02*
X0121543Y0494717D01*
X0121583Y0494755D02*
X0129052Y0494755D01*
X0129009Y0494793D02*
X0121637Y0494793D01*
X0121692Y0494831D02*
X0128966Y0494831D01*
X0128924Y0494869D02*
X0121746Y0494869D01*
X0121800Y0494907D02*
X0128860Y0494907D01*
X0128796Y0494945D02*
X0121855Y0494945D01*
X0121909Y0494982D02*
X0128731Y0494982D01*
X0128666Y0495020D02*
X0121963Y0495020D01*
X0122231Y0495134D02*
X0128428Y0495134D01*
X0128318Y0495172D02*
X0122325Y0495172D01*
X0122418Y0495210D02*
X0128209Y0495210D01*
X0128076Y0495248D02*
X0122605Y0495248D01*
X0122839Y0495285D02*
X0127802Y0495285D01*
X0387331Y0492941D02*
X0387387Y0493465D01*
X0387559Y0493963D01*
X0387838Y0494410D01*
X0388209Y0494784D01*
X0388654Y0495066D01*
X0389150Y0495242D01*
X0389673Y0495303D01*
X0392035Y0495303D01*
X0392564Y0495246D01*
X0393066Y0495073D01*
X0393517Y0494792D01*
X0393894Y0494418D01*
X0394178Y0493969D01*
X0394356Y0493469D01*
X0394417Y0492941D01*
X0394370Y0492478D01*
X0394233Y0492034D01*
X0394012Y0491625D01*
X0393716Y0491267D01*
X0393355Y0490973D01*
X0392944Y0490756D01*
X0392498Y0490622D01*
X0392035Y0490579D01*
X0389673Y0490579D01*
X0389214Y0490626D01*
X0392511Y0490626D01*
X0392637Y0490664D02*
X0389091Y0490664D01*
X0388968Y0490702D02*
X0392764Y0490702D01*
X0392891Y0490740D02*
X0388845Y0490740D01*
X0388774Y0490762D02*
X0388368Y0490981D01*
X0388013Y0491275D01*
X0387722Y0491632D01*
X0387506Y0492040D01*
X0387374Y0492482D01*
X0387331Y0492941D01*
X0387331Y0492937D02*
X0394417Y0492937D01*
X0394413Y0492975D02*
X0387334Y0492975D01*
X0387338Y0493013D02*
X0394409Y0493013D01*
X0394405Y0493050D02*
X0387343Y0493050D01*
X0387347Y0493088D02*
X0394400Y0493088D01*
X0394396Y0493126D02*
X0387351Y0493126D01*
X0387355Y0493164D02*
X0394391Y0493164D01*
X0394387Y0493202D02*
X0387359Y0493202D01*
X0387363Y0493240D02*
X0394382Y0493240D01*
X0394378Y0493278D02*
X0387367Y0493278D01*
X0387371Y0493316D02*
X0394374Y0493316D01*
X0394369Y0493353D02*
X0387375Y0493353D01*
X0387380Y0493391D02*
X0394365Y0493391D01*
X0394360Y0493429D02*
X0387384Y0493429D01*
X0387388Y0493467D02*
X0394356Y0493467D01*
X0394343Y0493505D02*
X0387401Y0493505D01*
X0387415Y0493543D02*
X0394329Y0493543D01*
X0394316Y0493581D02*
X0387428Y0493581D01*
X0387441Y0493619D02*
X0394302Y0493619D01*
X0394289Y0493657D02*
X0387454Y0493657D01*
X0387467Y0493694D02*
X0394276Y0493694D01*
X0394262Y0493732D02*
X0387480Y0493732D01*
X0387493Y0493770D02*
X0394249Y0493770D01*
X0394235Y0493808D02*
X0387506Y0493808D01*
X0387519Y0493846D02*
X0394222Y0493846D01*
X0394208Y0493884D02*
X0387532Y0493884D01*
X0387545Y0493922D02*
X0394195Y0493922D01*
X0394182Y0493960D02*
X0387558Y0493960D01*
X0387581Y0493997D02*
X0394160Y0493997D01*
X0394136Y0494035D02*
X0387605Y0494035D01*
X0387628Y0494073D02*
X0394112Y0494073D01*
X0394088Y0494111D02*
X0387652Y0494111D01*
X0387675Y0494149D02*
X0394064Y0494149D01*
X0394040Y0494187D02*
X0387699Y0494187D01*
X0387723Y0494225D02*
X0394016Y0494225D01*
X0393992Y0494263D02*
X0387746Y0494263D01*
X0387770Y0494301D02*
X0393968Y0494301D01*
X0393944Y0494338D02*
X0387793Y0494338D01*
X0387817Y0494376D02*
X0393920Y0494376D01*
X0393896Y0494414D02*
X0387842Y0494414D01*
X0387880Y0494452D02*
X0393859Y0494452D01*
X0393821Y0494490D02*
X0387917Y0494490D01*
X0387955Y0494528D02*
X0393783Y0494528D01*
X0393744Y0494566D02*
X0387992Y0494566D01*
X0388030Y0494604D02*
X0393706Y0494604D01*
X0393668Y0494641D02*
X0388068Y0494641D01*
X0388105Y0494679D02*
X0393630Y0494679D01*
X0393592Y0494717D02*
X0388143Y0494717D01*
X0388180Y0494755D02*
X0393553Y0494755D01*
X0393515Y0494793D02*
X0388223Y0494793D01*
X0388283Y0494831D02*
X0393454Y0494831D01*
X0393393Y0494869D02*
X0388343Y0494869D01*
X0388402Y0494907D02*
X0393332Y0494907D01*
X0393271Y0494945D02*
X0388462Y0494945D01*
X0388522Y0494982D02*
X0393210Y0494982D01*
X0393150Y0495020D02*
X0388582Y0495020D01*
X0388641Y0495058D02*
X0393089Y0495058D01*
X0392997Y0495096D02*
X0388738Y0495096D01*
X0388845Y0495134D02*
X0392888Y0495134D01*
X0392778Y0495172D02*
X0388952Y0495172D01*
X0389059Y0495210D02*
X0392668Y0495210D01*
X0392548Y0495248D02*
X0389198Y0495248D01*
X0389522Y0495285D02*
X0392199Y0495285D01*
X0394413Y0492899D02*
X0387335Y0492899D01*
X0387338Y0492861D02*
X0394409Y0492861D01*
X0394405Y0492823D02*
X0387342Y0492823D01*
X0387345Y0492785D02*
X0394401Y0492785D01*
X0394397Y0492747D02*
X0387349Y0492747D01*
X0387353Y0492710D02*
X0394394Y0492710D01*
X0394390Y0492672D02*
X0387356Y0492672D01*
X0387360Y0492634D02*
X0394386Y0492634D01*
X0394382Y0492596D02*
X0387363Y0492596D01*
X0387367Y0492558D02*
X0394378Y0492558D01*
X0394374Y0492520D02*
X0387370Y0492520D01*
X0387374Y0492482D02*
X0394370Y0492482D01*
X0394359Y0492444D02*
X0387385Y0492444D01*
X0387397Y0492406D02*
X0394348Y0492406D01*
X0394336Y0492369D02*
X0387408Y0492369D01*
X0387419Y0492331D02*
X0394324Y0492331D01*
X0394313Y0492293D02*
X0387430Y0492293D01*
X0387442Y0492255D02*
X0394301Y0492255D01*
X0394289Y0492217D02*
X0387453Y0492217D01*
X0387464Y0492179D02*
X0394278Y0492179D01*
X0394266Y0492141D02*
X0387476Y0492141D01*
X0387487Y0492103D02*
X0394254Y0492103D01*
X0394243Y0492066D02*
X0387498Y0492066D01*
X0387513Y0492028D02*
X0394230Y0492028D01*
X0394209Y0491990D02*
X0387533Y0491990D01*
X0387553Y0491952D02*
X0394189Y0491952D01*
X0394168Y0491914D02*
X0387573Y0491914D01*
X0387593Y0491876D02*
X0394148Y0491876D01*
X0394127Y0491838D02*
X0387613Y0491838D01*
X0387633Y0491800D02*
X0394107Y0491800D01*
X0394086Y0491762D02*
X0387653Y0491762D01*
X0387673Y0491725D02*
X0394066Y0491725D01*
X0394046Y0491687D02*
X0387693Y0491687D01*
X0387713Y0491649D02*
X0394025Y0491649D01*
X0394001Y0491611D02*
X0387739Y0491611D01*
X0387770Y0491573D02*
X0393969Y0491573D01*
X0393938Y0491535D02*
X0387801Y0491535D01*
X0387832Y0491497D02*
X0393907Y0491497D01*
X0393875Y0491459D02*
X0387862Y0491459D01*
X0387893Y0491422D02*
X0393844Y0491422D01*
X0393813Y0491384D02*
X0387924Y0491384D01*
X0387955Y0491346D02*
X0393781Y0491346D01*
X0393750Y0491308D02*
X0387986Y0491308D01*
X0388018Y0491270D02*
X0393719Y0491270D01*
X0393673Y0491232D02*
X0388064Y0491232D01*
X0388110Y0491194D02*
X0393627Y0491194D01*
X0393580Y0491156D02*
X0388156Y0491156D01*
X0388201Y0491118D02*
X0393534Y0491118D01*
X0393487Y0491081D02*
X0388247Y0491081D01*
X0388293Y0491043D02*
X0393441Y0491043D01*
X0393394Y0491005D02*
X0388339Y0491005D01*
X0388393Y0490967D02*
X0393343Y0490967D01*
X0393272Y0490929D02*
X0388463Y0490929D01*
X0388534Y0490891D02*
X0393200Y0490891D01*
X0393129Y0490853D02*
X0388604Y0490853D01*
X0388674Y0490815D02*
X0393057Y0490815D01*
X0392986Y0490778D02*
X0388744Y0490778D01*
X0388774Y0490762D02*
X0389214Y0490626D01*
X0389582Y0490588D02*
X0392135Y0490588D01*
X0402836Y0492437D02*
X0402979Y0491952D01*
X0403227Y0491512D01*
X0403567Y0491138D01*
X0403982Y0490849D01*
X0404450Y0490659D01*
X0404949Y0490579D01*
X0409673Y0490579D01*
X0410115Y0490640D01*
X0410537Y0490786D01*
X0410921Y0491011D01*
X0411255Y0491307D01*
X0411524Y0491663D01*
X0411719Y0492064D01*
X0411832Y0492496D01*
X0411858Y0492941D01*
X0411832Y0493386D01*
X0411719Y0493818D01*
X0411524Y0494219D01*
X0411255Y0494575D01*
X0410921Y0494871D01*
X0410537Y0495096D01*
X0404137Y0495096D01*
X0404044Y0495058D02*
X0410601Y0495058D01*
X0410537Y0495096D02*
X0410115Y0495242D01*
X0409673Y0495303D01*
X0404949Y0495303D01*
X0404450Y0495223D01*
X0403982Y0495033D01*
X0403567Y0494744D01*
X0403227Y0494370D01*
X0402979Y0493930D01*
X0402836Y0493445D01*
X0402803Y0492941D01*
X0402836Y0492437D01*
X0402835Y0492444D02*
X0411818Y0492444D01*
X0411809Y0492406D02*
X0402845Y0492406D01*
X0402856Y0492369D02*
X0411799Y0492369D01*
X0411789Y0492331D02*
X0402867Y0492331D01*
X0402878Y0492293D02*
X0411779Y0492293D01*
X0411769Y0492255D02*
X0402890Y0492255D01*
X0402901Y0492217D02*
X0411759Y0492217D01*
X0411749Y0492179D02*
X0402912Y0492179D01*
X0402923Y0492141D02*
X0411739Y0492141D01*
X0411729Y0492103D02*
X0402935Y0492103D01*
X0402946Y0492066D02*
X0411719Y0492066D01*
X0411701Y0492028D02*
X0402957Y0492028D01*
X0402968Y0491990D02*
X0411683Y0491990D01*
X0411665Y0491952D02*
X0402980Y0491952D01*
X0403001Y0491914D02*
X0411646Y0491914D01*
X0411628Y0491876D02*
X0403022Y0491876D01*
X0403044Y0491838D02*
X0411609Y0491838D01*
X0411591Y0491800D02*
X0403065Y0491800D01*
X0403086Y0491762D02*
X0411573Y0491762D01*
X0411554Y0491725D02*
X0403108Y0491725D01*
X0403129Y0491687D02*
X0411536Y0491687D01*
X0411514Y0491649D02*
X0403150Y0491649D01*
X0403172Y0491611D02*
X0411485Y0491611D01*
X0411456Y0491573D02*
X0403193Y0491573D01*
X0403214Y0491535D02*
X0411428Y0491535D01*
X0411399Y0491497D02*
X0403241Y0491497D01*
X0403275Y0491459D02*
X0411370Y0491459D01*
X0411342Y0491422D02*
X0403310Y0491422D01*
X0403344Y0491384D02*
X0411313Y0491384D01*
X0411284Y0491346D02*
X0403378Y0491346D01*
X0403413Y0491308D02*
X0411255Y0491308D01*
X0411213Y0491270D02*
X0403447Y0491270D01*
X0403482Y0491232D02*
X0411170Y0491232D01*
X0411128Y0491194D02*
X0403516Y0491194D01*
X0403550Y0491156D02*
X0411085Y0491156D01*
X0411042Y0491118D02*
X0403595Y0491118D01*
X0403649Y0491081D02*
X0411000Y0491081D01*
X0410957Y0491043D02*
X0403704Y0491043D01*
X0403758Y0491005D02*
X0410911Y0491005D01*
X0410846Y0490967D02*
X0403812Y0490967D01*
X0403867Y0490929D02*
X0410781Y0490929D01*
X0410717Y0490891D02*
X0403921Y0490891D01*
X0403975Y0490853D02*
X0410652Y0490853D01*
X0410587Y0490815D02*
X0404064Y0490815D01*
X0404158Y0490778D02*
X0410513Y0490778D01*
X0410404Y0490740D02*
X0404252Y0490740D01*
X0404345Y0490702D02*
X0410294Y0490702D01*
X0410185Y0490664D02*
X0404439Y0490664D01*
X0404656Y0490626D02*
X0410016Y0490626D01*
X0409741Y0490588D02*
X0404891Y0490588D01*
X0402833Y0492482D02*
X0411828Y0492482D01*
X0411833Y0492520D02*
X0402830Y0492520D01*
X0402828Y0492558D02*
X0411836Y0492558D01*
X0411838Y0492596D02*
X0402825Y0492596D01*
X0402823Y0492634D02*
X0411840Y0492634D01*
X0411842Y0492672D02*
X0402820Y0492672D01*
X0402818Y0492710D02*
X0411845Y0492710D01*
X0411847Y0492747D02*
X0402816Y0492747D01*
X0402813Y0492785D02*
X0411849Y0492785D01*
X0411851Y0492823D02*
X0402811Y0492823D01*
X0402808Y0492861D02*
X0411854Y0492861D01*
X0411856Y0492899D02*
X0402806Y0492899D01*
X0402803Y0492937D02*
X0411858Y0492937D01*
X0411856Y0492975D02*
X0402805Y0492975D01*
X0402808Y0493013D02*
X0411854Y0493013D01*
X0411852Y0493050D02*
X0402810Y0493050D01*
X0402813Y0493088D02*
X0411850Y0493088D01*
X0411847Y0493126D02*
X0402815Y0493126D01*
X0402817Y0493164D02*
X0411845Y0493164D01*
X0411843Y0493202D02*
X0402820Y0493202D01*
X0402822Y0493240D02*
X0411841Y0493240D01*
X0411838Y0493278D02*
X0402825Y0493278D01*
X0402827Y0493316D02*
X0411836Y0493316D01*
X0411834Y0493353D02*
X0402830Y0493353D01*
X0402832Y0493391D02*
X0411831Y0493391D01*
X0411821Y0493429D02*
X0402835Y0493429D01*
X0402842Y0493467D02*
X0411811Y0493467D01*
X0411801Y0493505D02*
X0402853Y0493505D01*
X0402865Y0493543D02*
X0411791Y0493543D01*
X0411781Y0493581D02*
X0402876Y0493581D01*
X0402887Y0493619D02*
X0411771Y0493619D01*
X0411761Y0493657D02*
X0402898Y0493657D01*
X0402910Y0493694D02*
X0411751Y0493694D01*
X0411741Y0493732D02*
X0402921Y0493732D01*
X0402932Y0493770D02*
X0411732Y0493770D01*
X0411722Y0493808D02*
X0402943Y0493808D01*
X0402955Y0493846D02*
X0411705Y0493846D01*
X0411687Y0493884D02*
X0402966Y0493884D01*
X0402977Y0493922D02*
X0411669Y0493922D01*
X0411650Y0493960D02*
X0402996Y0493960D01*
X0403018Y0493997D02*
X0411632Y0493997D01*
X0411613Y0494035D02*
X0403039Y0494035D01*
X0403060Y0494073D02*
X0411595Y0494073D01*
X0411577Y0494111D02*
X0403082Y0494111D01*
X0403103Y0494149D02*
X0411558Y0494149D01*
X0411540Y0494187D02*
X0403124Y0494187D01*
X0403146Y0494225D02*
X0411520Y0494225D01*
X0411491Y0494263D02*
X0403167Y0494263D01*
X0403188Y0494301D02*
X0411463Y0494301D01*
X0411434Y0494338D02*
X0403210Y0494338D01*
X0403233Y0494376D02*
X0411405Y0494376D01*
X0411376Y0494414D02*
X0403268Y0494414D01*
X0403302Y0494452D02*
X0411348Y0494452D01*
X0411319Y0494490D02*
X0403336Y0494490D01*
X0403371Y0494528D02*
X0411290Y0494528D01*
X0411262Y0494566D02*
X0403405Y0494566D01*
X0403440Y0494604D02*
X0411222Y0494604D01*
X0411180Y0494641D02*
X0403474Y0494641D01*
X0403508Y0494679D02*
X0411137Y0494679D01*
X0411094Y0494717D02*
X0403543Y0494717D01*
X0403583Y0494755D02*
X0411052Y0494755D01*
X0411009Y0494793D02*
X0403637Y0494793D01*
X0403692Y0494831D02*
X0410966Y0494831D01*
X0410924Y0494869D02*
X0403746Y0494869D01*
X0403800Y0494907D02*
X0410860Y0494907D01*
X0410796Y0494945D02*
X0403855Y0494945D01*
X0403909Y0494982D02*
X0410731Y0494982D01*
X0410666Y0495020D02*
X0403963Y0495020D01*
X0404231Y0495134D02*
X0410428Y0495134D01*
X0410318Y0495172D02*
X0404325Y0495172D01*
X0404418Y0495210D02*
X0410209Y0495210D01*
X0410076Y0495248D02*
X0404605Y0495248D01*
X0404839Y0495285D02*
X0409802Y0495285D01*
X0409673Y0461287D02*
X0404949Y0461287D01*
X0404450Y0461207D01*
X0403982Y0461017D01*
X0403567Y0460728D01*
X0403227Y0460354D01*
X0402979Y0459914D01*
X0402836Y0459429D01*
X0402803Y0458925D01*
X0402836Y0458421D01*
X0402979Y0457937D01*
X0403227Y0457496D01*
X0403567Y0457122D01*
X0403982Y0456833D01*
X0404450Y0456644D01*
X0404949Y0456563D01*
X0409673Y0456563D01*
X0410115Y0456624D01*
X0410537Y0456770D01*
X0410921Y0456995D01*
X0411255Y0457292D01*
X0411524Y0457647D01*
X0411719Y0458048D01*
X0402946Y0458048D01*
X0402935Y0458086D02*
X0411729Y0458086D01*
X0411719Y0458048D02*
X0411832Y0458480D01*
X0411858Y0458925D01*
X0411832Y0459370D01*
X0411719Y0459802D01*
X0411524Y0460203D01*
X0411255Y0460559D01*
X0410921Y0460855D01*
X0410537Y0461080D01*
X0410115Y0461226D01*
X0409673Y0461287D01*
X0409814Y0461268D02*
X0404828Y0461268D01*
X0404594Y0461230D02*
X0410089Y0461230D01*
X0410214Y0461192D02*
X0404414Y0461192D01*
X0404320Y0461154D02*
X0410323Y0461154D01*
X0410433Y0461116D02*
X0404227Y0461116D01*
X0404133Y0461079D02*
X0410540Y0461079D01*
X0410604Y0461041D02*
X0404040Y0461041D01*
X0403961Y0461003D02*
X0410669Y0461003D01*
X0410734Y0460965D02*
X0403907Y0460965D01*
X0403852Y0460927D02*
X0410798Y0460927D01*
X0410863Y0460889D02*
X0403798Y0460889D01*
X0403744Y0460851D02*
X0410926Y0460851D01*
X0410968Y0460813D02*
X0403689Y0460813D01*
X0403635Y0460775D02*
X0411011Y0460775D01*
X0411054Y0460738D02*
X0403581Y0460738D01*
X0403541Y0460700D02*
X0411096Y0460700D01*
X0411139Y0460662D02*
X0403507Y0460662D01*
X0403472Y0460624D02*
X0411182Y0460624D01*
X0411224Y0460586D02*
X0403438Y0460586D01*
X0403404Y0460548D02*
X0411263Y0460548D01*
X0411292Y0460510D02*
X0403369Y0460510D01*
X0403335Y0460472D02*
X0411320Y0460472D01*
X0411349Y0460435D02*
X0403300Y0460435D01*
X0403266Y0460397D02*
X0411378Y0460397D01*
X0411407Y0460359D02*
X0403232Y0460359D01*
X0403209Y0460321D02*
X0411435Y0460321D01*
X0411464Y0460283D02*
X0403187Y0460283D01*
X0403166Y0460245D02*
X0411493Y0460245D01*
X0411521Y0460207D02*
X0403145Y0460207D01*
X0403123Y0460169D02*
X0411541Y0460169D01*
X0411559Y0460132D02*
X0403102Y0460132D01*
X0403081Y0460094D02*
X0411578Y0460094D01*
X0411596Y0460056D02*
X0403059Y0460056D01*
X0403038Y0460018D02*
X0411614Y0460018D01*
X0411633Y0459980D02*
X0403017Y0459980D01*
X0402995Y0459942D02*
X0411651Y0459942D01*
X0411669Y0459904D02*
X0402977Y0459904D01*
X0402965Y0459866D02*
X0411688Y0459866D01*
X0411706Y0459828D02*
X0402954Y0459828D01*
X0402943Y0459791D02*
X0411722Y0459791D01*
X0411732Y0459753D02*
X0402932Y0459753D01*
X0402920Y0459715D02*
X0411742Y0459715D01*
X0411752Y0459677D02*
X0402909Y0459677D01*
X0402898Y0459639D02*
X0411762Y0459639D01*
X0411772Y0459601D02*
X0402887Y0459601D01*
X0402875Y0459563D02*
X0411781Y0459563D01*
X0411791Y0459525D02*
X0402864Y0459525D01*
X0402853Y0459488D02*
X0411801Y0459488D01*
X0411811Y0459450D02*
X0402842Y0459450D01*
X0402834Y0459412D02*
X0411821Y0459412D01*
X0411831Y0459374D02*
X0402832Y0459374D01*
X0402830Y0459336D02*
X0411834Y0459336D01*
X0411836Y0459298D02*
X0402827Y0459298D01*
X0402825Y0459260D02*
X0411838Y0459260D01*
X0411841Y0459222D02*
X0402822Y0459222D01*
X0402820Y0459184D02*
X0411843Y0459184D01*
X0411845Y0459147D02*
X0402817Y0459147D01*
X0402815Y0459109D02*
X0411847Y0459109D01*
X0411850Y0459071D02*
X0402813Y0459071D01*
X0402810Y0459033D02*
X0411852Y0459033D01*
X0411854Y0458995D02*
X0402808Y0458995D01*
X0402805Y0458957D02*
X0411856Y0458957D01*
X0411858Y0458919D02*
X0402804Y0458919D01*
X0402806Y0458881D02*
X0411856Y0458881D01*
X0411853Y0458844D02*
X0402808Y0458844D01*
X0402811Y0458806D02*
X0411851Y0458806D01*
X0411849Y0458768D02*
X0402813Y0458768D01*
X0402816Y0458730D02*
X0411847Y0458730D01*
X0411844Y0458692D02*
X0402818Y0458692D01*
X0402821Y0458654D02*
X0411842Y0458654D01*
X0411840Y0458616D02*
X0402823Y0458616D01*
X0402825Y0458578D02*
X0411838Y0458578D01*
X0411835Y0458540D02*
X0402828Y0458540D01*
X0402830Y0458503D02*
X0411833Y0458503D01*
X0411828Y0458465D02*
X0402833Y0458465D01*
X0402835Y0458427D02*
X0411818Y0458427D01*
X0411808Y0458389D02*
X0402845Y0458389D01*
X0402856Y0458351D02*
X0411798Y0458351D01*
X0411788Y0458313D02*
X0402868Y0458313D01*
X0402879Y0458275D02*
X0411778Y0458275D01*
X0411769Y0458237D02*
X0402890Y0458237D01*
X0402901Y0458200D02*
X0411759Y0458200D01*
X0411749Y0458162D02*
X0402913Y0458162D01*
X0402924Y0458124D02*
X0411739Y0458124D01*
X0411701Y0458010D02*
X0402958Y0458010D01*
X0402969Y0457972D02*
X0411682Y0457972D01*
X0411664Y0457934D02*
X0402981Y0457934D01*
X0403002Y0457897D02*
X0411645Y0457897D01*
X0411627Y0457859D02*
X0403023Y0457859D01*
X0403045Y0457821D02*
X0411609Y0457821D01*
X0411590Y0457783D02*
X0403066Y0457783D01*
X0403087Y0457745D02*
X0411572Y0457745D01*
X0411553Y0457707D02*
X0403109Y0457707D01*
X0403130Y0457669D02*
X0411535Y0457669D01*
X0411512Y0457631D02*
X0403151Y0457631D01*
X0403173Y0457593D02*
X0411484Y0457593D01*
X0411455Y0457556D02*
X0403194Y0457556D01*
X0403215Y0457518D02*
X0411426Y0457518D01*
X0411398Y0457480D02*
X0403242Y0457480D01*
X0403277Y0457442D02*
X0411369Y0457442D01*
X0411340Y0457404D02*
X0403311Y0457404D01*
X0403346Y0457366D02*
X0411312Y0457366D01*
X0411283Y0457328D02*
X0403380Y0457328D01*
X0403414Y0457290D02*
X0411254Y0457290D01*
X0411211Y0457253D02*
X0403449Y0457253D01*
X0403483Y0457215D02*
X0411168Y0457215D01*
X0411126Y0457177D02*
X0403518Y0457177D01*
X0403552Y0457139D02*
X0411083Y0457139D01*
X0411040Y0457101D02*
X0403598Y0457101D01*
X0403652Y0457063D02*
X0410998Y0457063D01*
X0410955Y0457025D02*
X0403706Y0457025D01*
X0403761Y0456987D02*
X0410908Y0456987D01*
X0410843Y0456949D02*
X0403815Y0456949D01*
X0403869Y0456912D02*
X0410778Y0456912D01*
X0410714Y0456874D02*
X0403923Y0456874D01*
X0403978Y0456836D02*
X0410649Y0456836D01*
X0410584Y0456798D02*
X0404069Y0456798D01*
X0404162Y0456760D02*
X0410508Y0456760D01*
X0410399Y0456722D02*
X0404256Y0456722D01*
X0404349Y0456684D02*
X0410289Y0456684D01*
X0410180Y0456646D02*
X0404443Y0456646D01*
X0404667Y0456609D02*
X0410003Y0456609D01*
X0409729Y0456571D02*
X0404901Y0456571D01*
X0394370Y0458463D02*
X0394417Y0458925D01*
X0394356Y0459453D01*
X0394178Y0459953D01*
X0393894Y0460402D01*
X0393517Y0460776D01*
X0393066Y0461057D01*
X0392564Y0461230D01*
X0389183Y0461230D01*
X0389150Y0461226D02*
X0389673Y0461287D01*
X0392035Y0461287D01*
X0392564Y0461230D01*
X0392673Y0461192D02*
X0389054Y0461192D01*
X0389150Y0461226D02*
X0388654Y0461050D01*
X0388209Y0460768D01*
X0387838Y0460394D01*
X0387559Y0459947D01*
X0387387Y0459449D01*
X0387331Y0458925D01*
X0387374Y0458466D01*
X0387506Y0458024D01*
X0387722Y0457617D01*
X0388013Y0457259D01*
X0388368Y0456965D01*
X0388774Y0456746D01*
X0389214Y0456610D01*
X0389673Y0456563D01*
X0392035Y0456563D01*
X0392498Y0456607D01*
X0392944Y0456740D01*
X0393355Y0456957D01*
X0393716Y0457251D01*
X0394012Y0457609D01*
X0394233Y0458018D01*
X0394370Y0458463D01*
X0394370Y0458465D02*
X0387374Y0458465D01*
X0387371Y0458503D02*
X0394374Y0458503D01*
X0394378Y0458540D02*
X0387367Y0458540D01*
X0387363Y0458578D02*
X0394382Y0458578D01*
X0394386Y0458616D02*
X0387360Y0458616D01*
X0387356Y0458654D02*
X0394389Y0458654D01*
X0394393Y0458692D02*
X0387353Y0458692D01*
X0387349Y0458730D02*
X0394397Y0458730D01*
X0394401Y0458768D02*
X0387346Y0458768D01*
X0387342Y0458806D02*
X0394405Y0458806D01*
X0394409Y0458844D02*
X0387338Y0458844D01*
X0387335Y0458881D02*
X0394413Y0458881D01*
X0394417Y0458919D02*
X0387331Y0458919D01*
X0387334Y0458957D02*
X0394414Y0458957D01*
X0394409Y0458995D02*
X0387338Y0458995D01*
X0387342Y0459033D02*
X0394405Y0459033D01*
X0394400Y0459071D02*
X0387346Y0459071D01*
X0387351Y0459109D02*
X0394396Y0459109D01*
X0394391Y0459147D02*
X0387355Y0459147D01*
X0387359Y0459184D02*
X0394387Y0459184D01*
X0394383Y0459222D02*
X0387363Y0459222D01*
X0387367Y0459260D02*
X0394378Y0459260D01*
X0394374Y0459298D02*
X0387371Y0459298D01*
X0387375Y0459336D02*
X0394369Y0459336D01*
X0394365Y0459374D02*
X0387379Y0459374D01*
X0387383Y0459412D02*
X0394360Y0459412D01*
X0394356Y0459450D02*
X0387388Y0459450D01*
X0387401Y0459488D02*
X0394343Y0459488D01*
X0394330Y0459525D02*
X0387414Y0459525D01*
X0387427Y0459563D02*
X0394316Y0459563D01*
X0394303Y0459601D02*
X0387440Y0459601D01*
X0387453Y0459639D02*
X0394290Y0459639D01*
X0394276Y0459677D02*
X0387466Y0459677D01*
X0387479Y0459715D02*
X0394263Y0459715D01*
X0394249Y0459753D02*
X0387492Y0459753D01*
X0387505Y0459791D02*
X0394236Y0459791D01*
X0394222Y0459828D02*
X0387519Y0459828D01*
X0387532Y0459866D02*
X0394209Y0459866D01*
X0394196Y0459904D02*
X0387545Y0459904D01*
X0387558Y0459942D02*
X0394182Y0459942D01*
X0394161Y0459980D02*
X0387580Y0459980D01*
X0387604Y0460018D02*
X0394137Y0460018D01*
X0394113Y0460056D02*
X0387627Y0460056D01*
X0387651Y0460094D02*
X0394089Y0460094D01*
X0394065Y0460132D02*
X0387674Y0460132D01*
X0387698Y0460169D02*
X0394041Y0460169D01*
X0394017Y0460207D02*
X0387722Y0460207D01*
X0387745Y0460245D02*
X0393993Y0460245D01*
X0393969Y0460283D02*
X0387769Y0460283D01*
X0387792Y0460321D02*
X0393945Y0460321D01*
X0393921Y0460359D02*
X0387816Y0460359D01*
X0387840Y0460397D02*
X0393897Y0460397D01*
X0393861Y0460435D02*
X0387878Y0460435D01*
X0387916Y0460472D02*
X0393823Y0460472D01*
X0393784Y0460510D02*
X0387953Y0460510D01*
X0387991Y0460548D02*
X0393746Y0460548D01*
X0393708Y0460586D02*
X0388028Y0460586D01*
X0388066Y0460624D02*
X0393670Y0460624D01*
X0393632Y0460662D02*
X0388103Y0460662D01*
X0388141Y0460700D02*
X0393593Y0460700D01*
X0393555Y0460738D02*
X0388179Y0460738D01*
X0388220Y0460775D02*
X0393517Y0460775D01*
X0393457Y0460813D02*
X0388280Y0460813D01*
X0388340Y0460851D02*
X0393396Y0460851D01*
X0393335Y0460889D02*
X0388400Y0460889D01*
X0388459Y0460927D02*
X0393274Y0460927D01*
X0393213Y0460965D02*
X0388519Y0460965D01*
X0388579Y0461003D02*
X0393152Y0461003D01*
X0393091Y0461041D02*
X0388639Y0461041D01*
X0388734Y0461079D02*
X0393003Y0461079D01*
X0392893Y0461116D02*
X0388840Y0461116D01*
X0388947Y0461154D02*
X0392783Y0461154D01*
X0392215Y0461268D02*
X0389507Y0461268D01*
X0387386Y0458427D02*
X0394359Y0458427D01*
X0394347Y0458389D02*
X0387397Y0458389D01*
X0387408Y0458351D02*
X0394335Y0458351D01*
X0394324Y0458313D02*
X0387420Y0458313D01*
X0387431Y0458275D02*
X0394312Y0458275D01*
X0394300Y0458237D02*
X0387442Y0458237D01*
X0387454Y0458200D02*
X0394289Y0458200D01*
X0394277Y0458162D02*
X0387465Y0458162D01*
X0387476Y0458124D02*
X0394266Y0458124D01*
X0394254Y0458086D02*
X0387488Y0458086D01*
X0387499Y0458048D02*
X0394242Y0458048D01*
X0394229Y0458010D02*
X0387513Y0458010D01*
X0387534Y0457972D02*
X0394208Y0457972D01*
X0394188Y0457934D02*
X0387554Y0457934D01*
X0387574Y0457897D02*
X0394167Y0457897D01*
X0394147Y0457859D02*
X0387594Y0457859D01*
X0387614Y0457821D02*
X0394126Y0457821D01*
X0394106Y0457783D02*
X0387634Y0457783D01*
X0387654Y0457745D02*
X0394085Y0457745D01*
X0394065Y0457707D02*
X0387674Y0457707D01*
X0387694Y0457669D02*
X0394045Y0457669D01*
X0394024Y0457631D02*
X0387714Y0457631D01*
X0387741Y0457593D02*
X0393999Y0457593D01*
X0393968Y0457556D02*
X0387771Y0457556D01*
X0387802Y0457518D02*
X0393937Y0457518D01*
X0393905Y0457480D02*
X0387833Y0457480D01*
X0387864Y0457442D02*
X0393874Y0457442D01*
X0393842Y0457404D02*
X0387895Y0457404D01*
X0387925Y0457366D02*
X0393811Y0457366D01*
X0393780Y0457328D02*
X0387956Y0457328D01*
X0387987Y0457290D02*
X0393748Y0457290D01*
X0393717Y0457253D02*
X0388020Y0457253D01*
X0388066Y0457215D02*
X0393671Y0457215D01*
X0393625Y0457177D02*
X0388112Y0457177D01*
X0388158Y0457139D02*
X0393578Y0457139D01*
X0393532Y0457101D02*
X0388204Y0457101D01*
X0388249Y0457063D02*
X0393485Y0457063D01*
X0393438Y0457025D02*
X0388295Y0457025D01*
X0388341Y0456987D02*
X0393392Y0456987D01*
X0393340Y0456949D02*
X0388397Y0456949D01*
X0388467Y0456912D02*
X0393269Y0456912D01*
X0393197Y0456874D02*
X0388537Y0456874D01*
X0388607Y0456836D02*
X0393125Y0456836D01*
X0393054Y0456798D02*
X0388677Y0456798D01*
X0388747Y0456760D02*
X0392982Y0456760D01*
X0392885Y0456722D02*
X0388851Y0456722D01*
X0388974Y0456684D02*
X0392758Y0456684D01*
X0392631Y0456646D02*
X0389097Y0456646D01*
X0389230Y0456609D02*
X0392505Y0456609D01*
X0392117Y0456571D02*
X0389599Y0456571D01*
D29*
X0424909Y0458433D03*
X0424909Y0463433D03*
X0424909Y0468433D03*
X0424909Y0473433D03*
X0424909Y0478433D03*
X0424909Y0483433D03*
X0424909Y0488433D03*
X0424909Y0493433D03*
X0446957Y0493433D03*
X0446957Y0488433D03*
X0446957Y0483433D03*
X0446957Y0478433D03*
X0446957Y0473433D03*
X0446957Y0468433D03*
X0446957Y0463433D03*
X0446957Y0458433D03*
X0446957Y0281433D03*
X0446957Y0276433D03*
X0446957Y0271433D03*
X0446957Y0266433D03*
X0446957Y0261433D03*
X0446957Y0256433D03*
X0446957Y0251433D03*
X0446957Y0246433D03*
X0424909Y0246433D03*
X0424909Y0251433D03*
X0424909Y0256433D03*
X0424909Y0261433D03*
X0424909Y0266433D03*
X0424909Y0271433D03*
X0424909Y0276433D03*
X0424909Y0281433D03*
X0164957Y0281433D03*
X0164957Y0276433D03*
X0164957Y0271433D03*
X0164957Y0266433D03*
X0164957Y0261433D03*
X0164957Y0256433D03*
X0164957Y0251433D03*
X0164957Y0246433D03*
X0142909Y0246433D03*
X0142909Y0251433D03*
X0142909Y0256433D03*
X0142909Y0261433D03*
X0142909Y0266433D03*
X0142909Y0271433D03*
X0142909Y0276433D03*
X0142909Y0281433D03*
X0142909Y0458433D03*
X0142909Y0463433D03*
X0142909Y0468433D03*
X0142909Y0473433D03*
X0142909Y0478433D03*
X0142909Y0483433D03*
X0142909Y0488433D03*
X0142909Y0493433D03*
X0164957Y0493433D03*
X0164957Y0488433D03*
X0164957Y0483433D03*
X0164957Y0478433D03*
X0164957Y0473433D03*
X0164957Y0468433D03*
X0164957Y0463433D03*
X0164957Y0458433D03*
D30*
X0134933Y0508433D03*
X0134933Y0523433D03*
X0112933Y0523433D03*
X0112933Y0508433D03*
X0112933Y0311433D03*
X0112933Y0296433D03*
X0134933Y0296433D03*
X0134933Y0311433D03*
X0394933Y0311433D03*
X0394933Y0296433D03*
X0416933Y0296433D03*
X0416933Y0311433D03*
X0416933Y0508433D03*
X0416933Y0523433D03*
X0394933Y0523433D03*
X0394933Y0508433D03*
D31*
X0402528Y0440933D03*
X0414339Y0440933D03*
X0132339Y0440933D03*
X0120528Y0440933D03*
X0120528Y0228933D03*
X0132339Y0228933D03*
X0402528Y0228933D03*
X0414339Y0228933D03*
D32*
X0485933Y0178461D03*
X0485933Y0169406D03*
X0495933Y0169406D03*
X0495933Y0178461D03*
X0495933Y0381406D03*
X0495933Y0390461D03*
X0485933Y0390461D03*
X0485933Y0381406D03*
X0213933Y0381406D03*
X0213933Y0390461D03*
X0203933Y0390461D03*
X0203933Y0381406D03*
X0203933Y0178461D03*
X0203933Y0169406D03*
X0213933Y0169406D03*
X0213933Y0178461D03*
D33*
X0307933Y0207512D03*
X0307933Y0217354D03*
X0307933Y0419512D03*
X0307933Y0429354D03*
X0589933Y0429354D03*
X0589933Y0419512D03*
X0589933Y0217354D03*
X0589933Y0207512D03*
D34*
X0610815Y0182476D03*
X0614752Y0182476D03*
X0614752Y0175390D03*
X0610815Y0175390D03*
X0332752Y0175390D03*
X0328815Y0175390D03*
X0328815Y0182476D03*
X0332752Y0182476D03*
X0332752Y0387390D03*
X0328815Y0387390D03*
X0328815Y0394476D03*
X0332752Y0394476D03*
X0610815Y0394476D03*
X0614752Y0394476D03*
X0614752Y0387390D03*
X0610815Y0387390D03*
D35*
X0617311Y0390933D03*
X0622429Y0390933D03*
X0340429Y0390933D03*
X0335311Y0390933D03*
X0335311Y0178933D03*
X0340429Y0178933D03*
X0617311Y0178933D03*
X0622429Y0178933D03*
D36*
X0621994Y0178933D02*
X0621952Y0178517D01*
X0621826Y0178117D01*
X0621622Y0177752D01*
X0622437Y0177201D01*
X0622736Y0177737D01*
X0622921Y0178322D01*
X0622983Y0178933D01*
X0622921Y0179544D01*
X0622736Y0180129D01*
X0622437Y0180665D01*
X0621622Y0180114D01*
X0621826Y0179749D01*
X0621952Y0179349D01*
X0621994Y0178933D01*
X0621952Y0178517D01*
X0621826Y0178117D01*
X0621622Y0177752D01*
X0622437Y0177201D01*
X0622736Y0177737D01*
X0622921Y0178322D01*
X0622983Y0178933D01*
X0622921Y0179544D01*
X0622736Y0180129D01*
X0622437Y0180665D01*
X0621622Y0180114D01*
X0621826Y0179749D01*
X0621952Y0179349D01*
X0621994Y0178933D01*
X0621952Y0178517D01*
X0621826Y0178117D01*
X0621622Y0177752D01*
X0622437Y0177201D01*
X0622736Y0177737D01*
X0622921Y0178322D01*
X0622983Y0178933D01*
X0622921Y0179544D01*
X0622736Y0180129D01*
X0622437Y0180665D01*
X0621622Y0180114D01*
X0621826Y0179749D01*
X0621952Y0179349D01*
X0621994Y0178933D01*
X0621952Y0178517D01*
X0621826Y0178117D01*
X0621622Y0177752D01*
X0622437Y0177201D01*
X0622736Y0177737D01*
X0622921Y0178322D01*
X0622983Y0178933D01*
X0622921Y0179544D01*
X0622736Y0180129D01*
X0622437Y0180665D01*
X0621622Y0180114D01*
X0621826Y0179749D01*
X0621952Y0179349D01*
X0621994Y0178933D01*
X0621952Y0178517D01*
X0621826Y0178117D01*
X0621622Y0177752D01*
X0622437Y0177201D01*
X0622736Y0177737D01*
X0622921Y0178322D01*
X0622983Y0178933D01*
X0622921Y0179544D01*
X0622736Y0180129D01*
X0622437Y0180665D01*
X0621622Y0180114D01*
X0621826Y0179749D01*
X0621952Y0179349D01*
X0621994Y0178933D01*
X0621952Y0178517D01*
X0621826Y0178117D01*
X0621622Y0177752D01*
X0622437Y0177201D01*
X0622736Y0177737D01*
X0622921Y0178322D01*
X0622983Y0178933D01*
X0622921Y0179544D01*
X0622736Y0180129D01*
X0622437Y0180665D01*
X0621622Y0180114D01*
X0621826Y0179749D01*
X0621952Y0179349D01*
X0621994Y0178933D01*
X0621952Y0178517D01*
X0621826Y0178117D01*
X0621622Y0177752D01*
X0622437Y0177201D01*
X0622736Y0177737D01*
X0622921Y0178322D01*
X0622983Y0178933D01*
X0622921Y0179544D01*
X0622736Y0180129D01*
X0622437Y0180665D01*
X0621622Y0180114D01*
X0621826Y0179749D01*
X0621952Y0179349D01*
X0621994Y0178933D01*
X0621988Y0178873D02*
X0622977Y0178873D01*
X0621988Y0178873D01*
X0622977Y0178873D01*
X0621988Y0178873D01*
X0622977Y0178873D01*
X0621988Y0178873D01*
X0622977Y0178873D01*
X0622969Y0179068D02*
X0621981Y0179068D01*
X0622969Y0179068D01*
X0621981Y0179068D01*
X0622969Y0179068D01*
X0621981Y0179068D01*
X0622969Y0179068D01*
X0621981Y0179068D01*
X0621961Y0179263D02*
X0622949Y0179263D01*
X0621961Y0179263D01*
X0622949Y0179263D01*
X0621961Y0179263D01*
X0622949Y0179263D01*
X0621961Y0179263D01*
X0622949Y0179263D01*
X0622930Y0179459D02*
X0621917Y0179459D01*
X0622930Y0179459D01*
X0621917Y0179459D01*
X0622930Y0179459D01*
X0621917Y0179459D01*
X0622930Y0179459D01*
X0621917Y0179459D01*
X0621856Y0179654D02*
X0622886Y0179654D01*
X0621856Y0179654D01*
X0622886Y0179654D01*
X0621856Y0179654D01*
X0622886Y0179654D01*
X0621856Y0179654D01*
X0622886Y0179654D01*
X0622824Y0179849D02*
X0621770Y0179849D01*
X0622824Y0179849D01*
X0621770Y0179849D01*
X0622824Y0179849D01*
X0621770Y0179849D01*
X0622824Y0179849D01*
X0621770Y0179849D01*
X0621661Y0180045D02*
X0622763Y0180045D01*
X0621661Y0180045D01*
X0622763Y0180045D01*
X0621661Y0180045D01*
X0622763Y0180045D01*
X0621661Y0180045D01*
X0622763Y0180045D01*
X0622674Y0180240D02*
X0621808Y0180240D01*
X0622674Y0180240D01*
X0621808Y0180240D01*
X0622674Y0180240D01*
X0621808Y0180240D01*
X0622674Y0180240D01*
X0621808Y0180240D01*
X0622097Y0180435D02*
X0622565Y0180435D01*
X0622097Y0180435D01*
X0622565Y0180435D01*
X0622097Y0180435D01*
X0622565Y0180435D01*
X0622097Y0180435D01*
X0622565Y0180435D01*
X0622456Y0180631D02*
X0622386Y0180631D01*
X0622456Y0180631D01*
X0622386Y0180631D01*
X0622456Y0180631D01*
X0622386Y0180631D01*
X0622456Y0180631D01*
X0622386Y0180631D01*
X0621411Y0181217D02*
X0618329Y0181217D01*
X0618197Y0181412D02*
X0621543Y0181412D01*
X0621602Y0181500D02*
X0621051Y0180685D01*
X0620686Y0180889D01*
X0620286Y0181015D01*
X0619870Y0181057D01*
X0619454Y0181015D01*
X0619054Y0180889D01*
X0618689Y0180685D01*
X0618138Y0181500D01*
X0618674Y0181799D01*
X0619259Y0181984D01*
X0619870Y0182046D01*
X0620481Y0181984D01*
X0621066Y0181799D01*
X0621602Y0181500D01*
X0621410Y0181608D02*
X0618331Y0181608D01*
X0618686Y0181803D02*
X0621054Y0181803D01*
X0620338Y0181998D02*
X0619402Y0181998D01*
X0619519Y0181022D02*
X0618461Y0181022D01*
X0618594Y0180826D02*
X0618942Y0180826D01*
X0618118Y0180114D02*
X0617303Y0180665D01*
X0617004Y0180129D01*
X0616819Y0179544D01*
X0616757Y0178933D01*
X0616819Y0178322D01*
X0617004Y0177737D01*
X0617303Y0177201D01*
X0618118Y0177752D01*
X0617914Y0178117D01*
X0617788Y0178517D01*
X0617746Y0178933D01*
X0617788Y0179349D01*
X0617914Y0179749D01*
X0618118Y0180114D01*
X0618079Y0180045D02*
X0616977Y0180045D01*
X0616916Y0179849D02*
X0617970Y0179849D01*
X0617884Y0179654D02*
X0616854Y0179654D01*
X0616811Y0179459D02*
X0617823Y0179459D01*
X0617779Y0179263D02*
X0616791Y0179263D01*
X0616771Y0179068D02*
X0617759Y0179068D01*
X0617752Y0178873D02*
X0616763Y0178873D01*
X0616783Y0178677D02*
X0617772Y0178677D01*
X0617799Y0178482D02*
X0616803Y0178482D01*
X0616831Y0178286D02*
X0617861Y0178286D01*
X0617929Y0178091D02*
X0616892Y0178091D01*
X0616954Y0177896D02*
X0618038Y0177896D01*
X0618042Y0177700D02*
X0617024Y0177700D01*
X0617133Y0177505D02*
X0617753Y0177505D01*
X0617464Y0177310D02*
X0617242Y0177310D01*
X0618247Y0176528D02*
X0621493Y0176528D01*
X0621602Y0176366D02*
X0621051Y0177181D01*
X0620686Y0176977D01*
X0620286Y0176851D01*
X0619870Y0176809D01*
X0619454Y0176851D01*
X0619054Y0176977D01*
X0618689Y0177181D01*
X0618138Y0176366D01*
X0618674Y0176067D01*
X0619259Y0175882D01*
X0619870Y0175820D01*
X0620481Y0175882D01*
X0621066Y0176067D01*
X0621602Y0176366D01*
X0621543Y0176333D02*
X0618197Y0176333D01*
X0618547Y0176137D02*
X0621193Y0176137D01*
X0620670Y0175942D02*
X0619070Y0175942D01*
X0619239Y0176919D02*
X0618512Y0176919D01*
X0618644Y0177114D02*
X0618809Y0177114D01*
X0618380Y0176724D02*
X0621361Y0176724D01*
X0621228Y0176919D02*
X0620501Y0176919D01*
X0620932Y0177114D02*
X0621096Y0177114D01*
X0621698Y0177700D02*
X0622716Y0177700D01*
X0621698Y0177700D01*
X0622716Y0177700D01*
X0621698Y0177700D01*
X0622716Y0177700D01*
X0621698Y0177700D01*
X0622716Y0177700D01*
X0622786Y0177896D02*
X0621702Y0177896D01*
X0622786Y0177896D01*
X0621702Y0177896D01*
X0622786Y0177896D01*
X0621702Y0177896D01*
X0622786Y0177896D01*
X0621702Y0177896D01*
X0621811Y0178091D02*
X0622848Y0178091D01*
X0621811Y0178091D01*
X0622848Y0178091D01*
X0621811Y0178091D01*
X0622848Y0178091D01*
X0621811Y0178091D01*
X0622848Y0178091D01*
X0622909Y0178286D02*
X0621879Y0178286D01*
X0622909Y0178286D01*
X0621879Y0178286D01*
X0622909Y0178286D01*
X0621879Y0178286D01*
X0622909Y0178286D01*
X0621879Y0178286D01*
X0621941Y0178482D02*
X0622937Y0178482D01*
X0621941Y0178482D01*
X0622937Y0178482D01*
X0621941Y0178482D01*
X0622937Y0178482D01*
X0621941Y0178482D01*
X0622937Y0178482D01*
X0622957Y0178677D02*
X0621968Y0178677D01*
X0622957Y0178677D01*
X0621968Y0178677D01*
X0622957Y0178677D01*
X0621968Y0178677D01*
X0622957Y0178677D01*
X0621968Y0178677D01*
X0621987Y0177505D02*
X0622607Y0177505D01*
X0621987Y0177505D01*
X0622607Y0177505D01*
X0621987Y0177505D01*
X0622607Y0177505D01*
X0621987Y0177505D01*
X0622607Y0177505D01*
X0622498Y0177310D02*
X0622276Y0177310D01*
X0622498Y0177310D01*
X0622276Y0177310D01*
X0622498Y0177310D01*
X0622276Y0177310D01*
X0622498Y0177310D01*
X0622276Y0177310D01*
X0621147Y0180826D02*
X0620798Y0180826D01*
X0621279Y0181022D02*
X0620221Y0181022D01*
X0617932Y0180240D02*
X0617066Y0180240D01*
X0617175Y0180435D02*
X0617643Y0180435D01*
X0617354Y0180631D02*
X0617284Y0180631D01*
X0340983Y0178933D02*
X0340921Y0179544D01*
X0340736Y0180129D01*
X0340437Y0180665D01*
X0339622Y0180114D01*
X0339826Y0179749D01*
X0339952Y0179349D01*
X0339994Y0178933D01*
X0339952Y0178517D01*
X0339826Y0178117D01*
X0339622Y0177752D01*
X0340437Y0177201D01*
X0340736Y0177737D01*
X0340921Y0178322D01*
X0340983Y0178933D01*
X0340921Y0179544D01*
X0340736Y0180129D01*
X0340437Y0180665D01*
X0339622Y0180114D01*
X0339826Y0179749D01*
X0339952Y0179349D01*
X0339994Y0178933D01*
X0339952Y0178517D01*
X0339826Y0178117D01*
X0339622Y0177752D01*
X0340437Y0177201D01*
X0340736Y0177737D01*
X0340921Y0178322D01*
X0340983Y0178933D01*
X0340921Y0179544D01*
X0340736Y0180129D01*
X0340437Y0180665D01*
X0339622Y0180114D01*
X0339826Y0179749D01*
X0339952Y0179349D01*
X0339994Y0178933D01*
X0339952Y0178517D01*
X0339826Y0178117D01*
X0339622Y0177752D01*
X0340437Y0177201D01*
X0340736Y0177737D01*
X0340921Y0178322D01*
X0340983Y0178933D01*
X0340921Y0179544D01*
X0340736Y0180129D01*
X0340437Y0180665D01*
X0339622Y0180114D01*
X0339826Y0179749D01*
X0339952Y0179349D01*
X0339994Y0178933D01*
X0339952Y0178517D01*
X0339826Y0178117D01*
X0339622Y0177752D01*
X0340437Y0177201D01*
X0340736Y0177737D01*
X0340921Y0178322D01*
X0340983Y0178933D01*
X0340921Y0179544D01*
X0340736Y0180129D01*
X0340437Y0180665D01*
X0339622Y0180114D01*
X0339826Y0179749D01*
X0339952Y0179349D01*
X0339994Y0178933D01*
X0339952Y0178517D01*
X0339826Y0178117D01*
X0339622Y0177752D01*
X0340437Y0177201D01*
X0340736Y0177737D01*
X0340921Y0178322D01*
X0340983Y0178933D01*
X0340921Y0179544D01*
X0340736Y0180129D01*
X0340437Y0180665D01*
X0339622Y0180114D01*
X0339826Y0179749D01*
X0339952Y0179349D01*
X0339994Y0178933D01*
X0339952Y0178517D01*
X0339826Y0178117D01*
X0339622Y0177752D01*
X0340437Y0177201D01*
X0340736Y0177737D01*
X0340921Y0178322D01*
X0340983Y0178933D01*
X0340921Y0179544D01*
X0340736Y0180129D01*
X0340437Y0180665D01*
X0339622Y0180114D01*
X0339826Y0179749D01*
X0339952Y0179349D01*
X0339994Y0178933D01*
X0339952Y0178517D01*
X0339826Y0178117D01*
X0339622Y0177752D01*
X0340437Y0177201D01*
X0340736Y0177737D01*
X0340921Y0178322D01*
X0340983Y0178933D01*
X0340977Y0178873D02*
X0339988Y0178873D01*
X0340977Y0178873D01*
X0339988Y0178873D01*
X0340977Y0178873D01*
X0339988Y0178873D01*
X0340977Y0178873D01*
X0339988Y0178873D01*
X0339981Y0179068D02*
X0340969Y0179068D01*
X0339981Y0179068D01*
X0340969Y0179068D01*
X0339981Y0179068D01*
X0340969Y0179068D01*
X0339981Y0179068D01*
X0340969Y0179068D01*
X0340949Y0179263D02*
X0339961Y0179263D01*
X0340949Y0179263D01*
X0339961Y0179263D01*
X0340949Y0179263D01*
X0339961Y0179263D01*
X0340949Y0179263D01*
X0339961Y0179263D01*
X0339917Y0179459D02*
X0340930Y0179459D01*
X0339917Y0179459D01*
X0340930Y0179459D01*
X0339917Y0179459D01*
X0340930Y0179459D01*
X0339917Y0179459D01*
X0340930Y0179459D01*
X0340886Y0179654D02*
X0339856Y0179654D01*
X0340886Y0179654D01*
X0339856Y0179654D01*
X0340886Y0179654D01*
X0339856Y0179654D01*
X0340886Y0179654D01*
X0339856Y0179654D01*
X0339770Y0179849D02*
X0340824Y0179849D01*
X0339770Y0179849D01*
X0340824Y0179849D01*
X0339770Y0179849D01*
X0340824Y0179849D01*
X0339770Y0179849D01*
X0340824Y0179849D01*
X0340763Y0180045D02*
X0339661Y0180045D01*
X0340763Y0180045D01*
X0339661Y0180045D01*
X0340763Y0180045D01*
X0339661Y0180045D01*
X0340763Y0180045D01*
X0339661Y0180045D01*
X0339808Y0180240D02*
X0340674Y0180240D01*
X0339808Y0180240D01*
X0340674Y0180240D01*
X0339808Y0180240D01*
X0340674Y0180240D01*
X0339808Y0180240D01*
X0340674Y0180240D01*
X0340565Y0180435D02*
X0340097Y0180435D01*
X0340565Y0180435D01*
X0340097Y0180435D01*
X0340565Y0180435D01*
X0340097Y0180435D01*
X0340565Y0180435D01*
X0340097Y0180435D01*
X0340386Y0180631D02*
X0340456Y0180631D01*
X0340386Y0180631D01*
X0340456Y0180631D01*
X0340386Y0180631D01*
X0340456Y0180631D01*
X0340386Y0180631D01*
X0340456Y0180631D01*
X0339411Y0181217D02*
X0336329Y0181217D01*
X0336197Y0181412D02*
X0339543Y0181412D01*
X0339602Y0181500D02*
X0339051Y0180685D01*
X0338686Y0180889D01*
X0338286Y0181015D01*
X0337870Y0181057D01*
X0337454Y0181015D01*
X0337054Y0180889D01*
X0336689Y0180685D01*
X0336138Y0181500D01*
X0336674Y0181799D01*
X0337259Y0181984D01*
X0337870Y0182046D01*
X0338481Y0181984D01*
X0339066Y0181799D01*
X0339602Y0181500D01*
X0339410Y0181608D02*
X0336331Y0181608D01*
X0336686Y0181803D02*
X0339054Y0181803D01*
X0338338Y0181998D02*
X0337402Y0181998D01*
X0337519Y0181022D02*
X0336461Y0181022D01*
X0336594Y0180826D02*
X0336942Y0180826D01*
X0336118Y0180114D02*
X0335303Y0180665D01*
X0335004Y0180129D01*
X0334819Y0179544D01*
X0334757Y0178933D01*
X0334819Y0178322D01*
X0335004Y0177737D01*
X0335303Y0177201D01*
X0336118Y0177752D01*
X0335914Y0178117D01*
X0335788Y0178517D01*
X0335746Y0178933D01*
X0335788Y0179349D01*
X0335914Y0179749D01*
X0336118Y0180114D01*
X0336079Y0180045D02*
X0334977Y0180045D01*
X0334916Y0179849D02*
X0335970Y0179849D01*
X0335884Y0179654D02*
X0334854Y0179654D01*
X0334811Y0179459D02*
X0335823Y0179459D01*
X0335779Y0179263D02*
X0334791Y0179263D01*
X0334771Y0179068D02*
X0335759Y0179068D01*
X0335752Y0178873D02*
X0334763Y0178873D01*
X0334783Y0178677D02*
X0335772Y0178677D01*
X0335799Y0178482D02*
X0334803Y0178482D01*
X0334831Y0178286D02*
X0335861Y0178286D01*
X0335929Y0178091D02*
X0334892Y0178091D01*
X0334954Y0177896D02*
X0336038Y0177896D01*
X0336042Y0177700D02*
X0335024Y0177700D01*
X0335133Y0177505D02*
X0335753Y0177505D01*
X0335464Y0177310D02*
X0335242Y0177310D01*
X0336247Y0176528D02*
X0339493Y0176528D01*
X0339602Y0176366D02*
X0339051Y0177181D01*
X0338686Y0176977D01*
X0338286Y0176851D01*
X0337870Y0176809D01*
X0337454Y0176851D01*
X0337054Y0176977D01*
X0336689Y0177181D01*
X0336138Y0176366D01*
X0336674Y0176067D01*
X0337259Y0175882D01*
X0337870Y0175820D01*
X0338481Y0175882D01*
X0339066Y0176067D01*
X0339602Y0176366D01*
X0339543Y0176333D02*
X0336197Y0176333D01*
X0336547Y0176137D02*
X0339193Y0176137D01*
X0338670Y0175942D02*
X0337070Y0175942D01*
X0337239Y0176919D02*
X0336512Y0176919D01*
X0336644Y0177114D02*
X0336809Y0177114D01*
X0336380Y0176724D02*
X0339361Y0176724D01*
X0339228Y0176919D02*
X0338501Y0176919D01*
X0338932Y0177114D02*
X0339096Y0177114D01*
X0339698Y0177700D02*
X0340716Y0177700D01*
X0339698Y0177700D01*
X0340716Y0177700D01*
X0339698Y0177700D01*
X0340716Y0177700D01*
X0339698Y0177700D01*
X0340716Y0177700D01*
X0340786Y0177896D02*
X0339702Y0177896D01*
X0340786Y0177896D01*
X0339702Y0177896D01*
X0340786Y0177896D01*
X0339702Y0177896D01*
X0340786Y0177896D01*
X0339702Y0177896D01*
X0339811Y0178091D02*
X0340848Y0178091D01*
X0339811Y0178091D01*
X0340848Y0178091D01*
X0339811Y0178091D01*
X0340848Y0178091D01*
X0339811Y0178091D01*
X0340848Y0178091D01*
X0340909Y0178286D02*
X0339879Y0178286D01*
X0340909Y0178286D01*
X0339879Y0178286D01*
X0340909Y0178286D01*
X0339879Y0178286D01*
X0340909Y0178286D01*
X0339879Y0178286D01*
X0339941Y0178482D02*
X0340937Y0178482D01*
X0339941Y0178482D01*
X0340937Y0178482D01*
X0339941Y0178482D01*
X0340937Y0178482D01*
X0339941Y0178482D01*
X0340937Y0178482D01*
X0340957Y0178677D02*
X0339968Y0178677D01*
X0340957Y0178677D01*
X0339968Y0178677D01*
X0340957Y0178677D01*
X0339968Y0178677D01*
X0340957Y0178677D01*
X0339968Y0178677D01*
X0339987Y0177505D02*
X0340607Y0177505D01*
X0339987Y0177505D01*
X0340607Y0177505D01*
X0339987Y0177505D01*
X0340607Y0177505D01*
X0339987Y0177505D01*
X0340607Y0177505D01*
X0340498Y0177310D02*
X0340276Y0177310D01*
X0340498Y0177310D01*
X0340276Y0177310D01*
X0340498Y0177310D01*
X0340276Y0177310D01*
X0340498Y0177310D01*
X0340276Y0177310D01*
X0339147Y0180826D02*
X0338798Y0180826D01*
X0339279Y0181022D02*
X0338221Y0181022D01*
X0335932Y0180240D02*
X0335066Y0180240D01*
X0335175Y0180435D02*
X0335643Y0180435D01*
X0335354Y0180631D02*
X0335284Y0180631D01*
X0337870Y0387820D02*
X0338481Y0387882D01*
X0339066Y0388067D01*
X0339602Y0388366D01*
X0339051Y0389181D01*
X0338686Y0388977D01*
X0338286Y0388851D01*
X0337870Y0388809D01*
X0337454Y0388851D01*
X0337054Y0388977D01*
X0336689Y0389181D01*
X0336138Y0388366D01*
X0336674Y0388067D01*
X0337259Y0387882D01*
X0337870Y0387820D01*
X0337173Y0387910D02*
X0338567Y0387910D01*
X0339134Y0388105D02*
X0336606Y0388105D01*
X0336256Y0388300D02*
X0339484Y0388300D01*
X0339515Y0388496D02*
X0336225Y0388496D01*
X0336358Y0388691D02*
X0339383Y0388691D01*
X0339251Y0388886D02*
X0338398Y0388886D01*
X0338873Y0389082D02*
X0339118Y0389082D01*
X0339622Y0389752D02*
X0340437Y0389201D01*
X0340736Y0389737D01*
X0340921Y0390322D01*
X0340983Y0390933D01*
X0340921Y0391544D01*
X0340736Y0392129D01*
X0340437Y0392665D01*
X0339622Y0392114D01*
X0339826Y0391749D01*
X0339952Y0391349D01*
X0339994Y0390933D01*
X0339952Y0390517D01*
X0339826Y0390117D01*
X0339622Y0389752D01*
X0340437Y0389201D01*
X0340736Y0389737D01*
X0340921Y0390322D01*
X0340983Y0390933D01*
X0340921Y0391544D01*
X0340736Y0392129D01*
X0340437Y0392665D01*
X0339622Y0392114D01*
X0339826Y0391749D01*
X0339952Y0391349D01*
X0339994Y0390933D01*
X0339952Y0390517D01*
X0339826Y0390117D01*
X0339622Y0389752D01*
X0340437Y0389201D01*
X0340736Y0389737D01*
X0340921Y0390322D01*
X0340983Y0390933D01*
X0340921Y0391544D01*
X0340736Y0392129D01*
X0340437Y0392665D01*
X0339622Y0392114D01*
X0339826Y0391749D01*
X0339952Y0391349D01*
X0339994Y0390933D01*
X0339952Y0390517D01*
X0339826Y0390117D01*
X0339622Y0389752D01*
X0340437Y0389201D01*
X0340736Y0389737D01*
X0340921Y0390322D01*
X0340983Y0390933D01*
X0340921Y0391544D01*
X0340736Y0392129D01*
X0340437Y0392665D01*
X0339622Y0392114D01*
X0339826Y0391749D01*
X0339952Y0391349D01*
X0339994Y0390933D01*
X0339952Y0390517D01*
X0339826Y0390117D01*
X0339622Y0389752D01*
X0340437Y0389201D01*
X0340736Y0389737D01*
X0340921Y0390322D01*
X0340983Y0390933D01*
X0340921Y0391544D01*
X0340736Y0392129D01*
X0340437Y0392665D01*
X0339622Y0392114D01*
X0339826Y0391749D01*
X0339952Y0391349D01*
X0339994Y0390933D01*
X0339952Y0390517D01*
X0339826Y0390117D01*
X0339622Y0389752D01*
X0340437Y0389201D01*
X0340736Y0389737D01*
X0340921Y0390322D01*
X0340983Y0390933D01*
X0340921Y0391544D01*
X0340736Y0392129D01*
X0340437Y0392665D01*
X0339622Y0392114D01*
X0339826Y0391749D01*
X0339952Y0391349D01*
X0339994Y0390933D01*
X0339952Y0390517D01*
X0339826Y0390117D01*
X0339622Y0389752D01*
X0340437Y0389201D01*
X0340736Y0389737D01*
X0340921Y0390322D01*
X0340983Y0390933D01*
X0340921Y0391544D01*
X0340736Y0392129D01*
X0340437Y0392665D01*
X0339622Y0392114D01*
X0339826Y0391749D01*
X0339952Y0391349D01*
X0339994Y0390933D01*
X0339952Y0390517D01*
X0339826Y0390117D01*
X0339622Y0389752D01*
X0339684Y0389863D02*
X0340776Y0389863D01*
X0339684Y0389863D01*
X0340776Y0389863D01*
X0339684Y0389863D01*
X0340776Y0389863D01*
X0339684Y0389863D01*
X0340776Y0389863D01*
X0340838Y0390059D02*
X0339793Y0390059D01*
X0340838Y0390059D01*
X0339793Y0390059D01*
X0340838Y0390059D01*
X0339793Y0390059D01*
X0340838Y0390059D01*
X0339793Y0390059D01*
X0339869Y0390254D02*
X0340899Y0390254D01*
X0339869Y0390254D01*
X0340899Y0390254D01*
X0339869Y0390254D01*
X0340899Y0390254D01*
X0339869Y0390254D01*
X0340899Y0390254D01*
X0340934Y0390449D02*
X0339931Y0390449D01*
X0340934Y0390449D01*
X0339931Y0390449D01*
X0340934Y0390449D01*
X0339931Y0390449D01*
X0340934Y0390449D01*
X0339931Y0390449D01*
X0339965Y0390645D02*
X0340954Y0390645D01*
X0339965Y0390645D01*
X0340954Y0390645D01*
X0339965Y0390645D01*
X0340954Y0390645D01*
X0339965Y0390645D01*
X0340954Y0390645D01*
X0340974Y0390840D02*
X0339985Y0390840D01*
X0340974Y0390840D01*
X0339985Y0390840D01*
X0340974Y0390840D01*
X0339985Y0390840D01*
X0340974Y0390840D01*
X0339985Y0390840D01*
X0339984Y0391035D02*
X0340973Y0391035D01*
X0339984Y0391035D01*
X0340973Y0391035D01*
X0339984Y0391035D01*
X0340973Y0391035D01*
X0339984Y0391035D01*
X0340973Y0391035D01*
X0340953Y0391231D02*
X0339964Y0391231D01*
X0340953Y0391231D01*
X0339964Y0391231D01*
X0340953Y0391231D01*
X0339964Y0391231D01*
X0340953Y0391231D01*
X0339964Y0391231D01*
X0339928Y0391426D02*
X0340933Y0391426D01*
X0339928Y0391426D01*
X0340933Y0391426D01*
X0339928Y0391426D01*
X0340933Y0391426D01*
X0339928Y0391426D01*
X0340933Y0391426D01*
X0340896Y0391621D02*
X0339866Y0391621D01*
X0340896Y0391621D01*
X0339866Y0391621D01*
X0340896Y0391621D01*
X0339866Y0391621D01*
X0340896Y0391621D01*
X0339866Y0391621D01*
X0339788Y0391817D02*
X0340835Y0391817D01*
X0339788Y0391817D01*
X0340835Y0391817D01*
X0339788Y0391817D01*
X0340835Y0391817D01*
X0339788Y0391817D01*
X0340835Y0391817D01*
X0340773Y0392012D02*
X0339679Y0392012D01*
X0340773Y0392012D01*
X0339679Y0392012D01*
X0340773Y0392012D01*
X0339679Y0392012D01*
X0340773Y0392012D01*
X0339679Y0392012D01*
X0339760Y0392208D02*
X0340693Y0392208D01*
X0339760Y0392208D01*
X0340693Y0392208D01*
X0339760Y0392208D01*
X0340693Y0392208D01*
X0339760Y0392208D01*
X0340693Y0392208D01*
X0340583Y0392403D02*
X0340049Y0392403D01*
X0340583Y0392403D01*
X0340049Y0392403D01*
X0340583Y0392403D01*
X0340049Y0392403D01*
X0340583Y0392403D01*
X0340049Y0392403D01*
X0340338Y0392598D02*
X0340474Y0392598D01*
X0340338Y0392598D01*
X0340474Y0392598D01*
X0340338Y0392598D01*
X0340474Y0392598D01*
X0340338Y0392598D01*
X0340474Y0392598D01*
X0339521Y0393380D02*
X0336219Y0393380D01*
X0336138Y0393500D02*
X0336689Y0392685D01*
X0337054Y0392889D01*
X0337454Y0393015D01*
X0337870Y0393057D01*
X0338286Y0393015D01*
X0338686Y0392889D01*
X0339051Y0392685D01*
X0339602Y0393500D01*
X0339066Y0393799D01*
X0338481Y0393984D01*
X0337870Y0394046D01*
X0337259Y0393984D01*
X0336674Y0393799D01*
X0336138Y0393500D01*
X0336272Y0393575D02*
X0339468Y0393575D01*
X0339389Y0393184D02*
X0336351Y0393184D01*
X0336483Y0392989D02*
X0337372Y0392989D01*
X0336884Y0392794D02*
X0336616Y0392794D01*
X0336118Y0392114D02*
X0335303Y0392665D01*
X0335004Y0392129D01*
X0334819Y0391544D01*
X0334757Y0390933D01*
X0334819Y0390322D01*
X0335004Y0389737D01*
X0335303Y0389201D01*
X0336118Y0389752D01*
X0335914Y0390117D01*
X0335788Y0390517D01*
X0335746Y0390933D01*
X0335788Y0391349D01*
X0335914Y0391749D01*
X0336118Y0392114D01*
X0336061Y0392012D02*
X0334967Y0392012D01*
X0334905Y0391817D02*
X0335952Y0391817D01*
X0335874Y0391621D02*
X0334844Y0391621D01*
X0334807Y0391426D02*
X0335812Y0391426D01*
X0335776Y0391231D02*
X0334787Y0391231D01*
X0334767Y0391035D02*
X0335756Y0391035D01*
X0335755Y0390840D02*
X0334766Y0390840D01*
X0334786Y0390645D02*
X0335775Y0390645D01*
X0335809Y0390449D02*
X0334806Y0390449D01*
X0334841Y0390254D02*
X0335871Y0390254D01*
X0335947Y0390059D02*
X0334903Y0390059D01*
X0334964Y0389863D02*
X0336056Y0389863D01*
X0335994Y0389668D02*
X0335042Y0389668D01*
X0335152Y0389472D02*
X0335705Y0389472D01*
X0335416Y0389277D02*
X0335261Y0389277D01*
X0336490Y0388886D02*
X0337342Y0388886D01*
X0336867Y0389082D02*
X0336622Y0389082D01*
X0339746Y0389668D02*
X0340698Y0389668D01*
X0339746Y0389668D01*
X0340698Y0389668D01*
X0339746Y0389668D01*
X0340698Y0389668D01*
X0339746Y0389668D01*
X0340698Y0389668D01*
X0340589Y0389472D02*
X0340035Y0389472D01*
X0340589Y0389472D01*
X0340035Y0389472D01*
X0340589Y0389472D01*
X0340035Y0389472D01*
X0340589Y0389472D01*
X0340035Y0389472D01*
X0340324Y0389277D02*
X0340480Y0389277D01*
X0340324Y0389277D01*
X0340480Y0389277D01*
X0340324Y0389277D01*
X0340480Y0389277D01*
X0340324Y0389277D01*
X0340480Y0389277D01*
X0339125Y0392794D02*
X0338857Y0392794D01*
X0339257Y0392989D02*
X0338369Y0392989D01*
X0338538Y0393966D02*
X0337202Y0393966D01*
X0336622Y0393770D02*
X0339118Y0393770D01*
X0335980Y0392208D02*
X0335048Y0392208D01*
X0335157Y0392403D02*
X0335691Y0392403D01*
X0335402Y0392598D02*
X0335266Y0392598D01*
X0616757Y0390933D02*
X0616819Y0390322D01*
X0617004Y0389737D01*
X0617303Y0389201D01*
X0618118Y0389752D01*
X0617914Y0390117D01*
X0617788Y0390517D01*
X0617746Y0390933D01*
X0617788Y0391349D01*
X0617914Y0391749D01*
X0618118Y0392114D01*
X0617303Y0392665D01*
X0617004Y0392129D01*
X0616819Y0391544D01*
X0616757Y0390933D01*
X0616766Y0390840D02*
X0617755Y0390840D01*
X0617756Y0391035D02*
X0616767Y0391035D01*
X0616787Y0391231D02*
X0617776Y0391231D01*
X0617812Y0391426D02*
X0616807Y0391426D01*
X0616844Y0391621D02*
X0617874Y0391621D01*
X0617952Y0391817D02*
X0616905Y0391817D01*
X0616967Y0392012D02*
X0618061Y0392012D01*
X0617980Y0392208D02*
X0617048Y0392208D01*
X0617157Y0392403D02*
X0617691Y0392403D01*
X0617402Y0392598D02*
X0617266Y0392598D01*
X0618219Y0393380D02*
X0621521Y0393380D01*
X0621602Y0393500D02*
X0621051Y0392685D01*
X0620686Y0392889D01*
X0620286Y0393015D01*
X0619870Y0393057D01*
X0619454Y0393015D01*
X0619054Y0392889D01*
X0618689Y0392685D01*
X0618138Y0393500D01*
X0618674Y0393799D01*
X0619259Y0393984D01*
X0619870Y0394046D01*
X0620481Y0393984D01*
X0621066Y0393799D01*
X0621602Y0393500D01*
X0621468Y0393575D02*
X0618272Y0393575D01*
X0618351Y0393184D02*
X0621389Y0393184D01*
X0621257Y0392989D02*
X0620369Y0392989D01*
X0620857Y0392794D02*
X0621125Y0392794D01*
X0621622Y0392114D02*
X0621826Y0391749D01*
X0621952Y0391349D01*
X0621994Y0390933D01*
X0621952Y0390517D01*
X0621826Y0390117D01*
X0621622Y0389752D01*
X0622437Y0389201D01*
X0622736Y0389737D01*
X0622921Y0390322D01*
X0622983Y0390933D01*
X0622921Y0391544D01*
X0622736Y0392129D01*
X0622437Y0392665D01*
X0621622Y0392114D01*
X0621826Y0391749D01*
X0621952Y0391349D01*
X0621994Y0390933D01*
X0621952Y0390517D01*
X0621826Y0390117D01*
X0621622Y0389752D01*
X0622437Y0389201D01*
X0622736Y0389737D01*
X0622921Y0390322D01*
X0622983Y0390933D01*
X0622921Y0391544D01*
X0622736Y0392129D01*
X0622437Y0392665D01*
X0621622Y0392114D01*
X0621826Y0391749D01*
X0621952Y0391349D01*
X0621994Y0390933D01*
X0621952Y0390517D01*
X0621826Y0390117D01*
X0621622Y0389752D01*
X0622437Y0389201D01*
X0622736Y0389737D01*
X0622921Y0390322D01*
X0622983Y0390933D01*
X0622921Y0391544D01*
X0622736Y0392129D01*
X0622437Y0392665D01*
X0621622Y0392114D01*
X0621826Y0391749D01*
X0621952Y0391349D01*
X0621994Y0390933D01*
X0621952Y0390517D01*
X0621826Y0390117D01*
X0621622Y0389752D01*
X0622437Y0389201D01*
X0622736Y0389737D01*
X0622921Y0390322D01*
X0622983Y0390933D01*
X0622921Y0391544D01*
X0622736Y0392129D01*
X0622437Y0392665D01*
X0621622Y0392114D01*
X0621826Y0391749D01*
X0621952Y0391349D01*
X0621994Y0390933D01*
X0621952Y0390517D01*
X0621826Y0390117D01*
X0621622Y0389752D01*
X0622437Y0389201D01*
X0622736Y0389737D01*
X0622921Y0390322D01*
X0622983Y0390933D01*
X0622921Y0391544D01*
X0622736Y0392129D01*
X0622437Y0392665D01*
X0621622Y0392114D01*
X0621826Y0391749D01*
X0621952Y0391349D01*
X0621994Y0390933D01*
X0621952Y0390517D01*
X0621826Y0390117D01*
X0621622Y0389752D01*
X0622437Y0389201D01*
X0622736Y0389737D01*
X0622921Y0390322D01*
X0622983Y0390933D01*
X0622921Y0391544D01*
X0622736Y0392129D01*
X0622437Y0392665D01*
X0621622Y0392114D01*
X0621826Y0391749D01*
X0621952Y0391349D01*
X0621994Y0390933D01*
X0621952Y0390517D01*
X0621826Y0390117D01*
X0621622Y0389752D01*
X0622437Y0389201D01*
X0622736Y0389737D01*
X0622921Y0390322D01*
X0622983Y0390933D01*
X0622921Y0391544D01*
X0622736Y0392129D01*
X0622437Y0392665D01*
X0621622Y0392114D01*
X0621679Y0392012D02*
X0622773Y0392012D01*
X0621679Y0392012D01*
X0622773Y0392012D01*
X0621679Y0392012D01*
X0622773Y0392012D01*
X0621679Y0392012D01*
X0622773Y0392012D01*
X0622835Y0391817D02*
X0621788Y0391817D01*
X0622835Y0391817D01*
X0621788Y0391817D01*
X0622835Y0391817D01*
X0621788Y0391817D01*
X0622835Y0391817D01*
X0621788Y0391817D01*
X0621866Y0391621D02*
X0622896Y0391621D01*
X0621866Y0391621D01*
X0622896Y0391621D01*
X0621866Y0391621D01*
X0622896Y0391621D01*
X0621866Y0391621D01*
X0622896Y0391621D01*
X0622933Y0391426D02*
X0621928Y0391426D01*
X0622933Y0391426D01*
X0621928Y0391426D01*
X0622933Y0391426D01*
X0621928Y0391426D01*
X0622933Y0391426D01*
X0621928Y0391426D01*
X0621964Y0391231D02*
X0622953Y0391231D01*
X0621964Y0391231D01*
X0622953Y0391231D01*
X0621964Y0391231D01*
X0622953Y0391231D01*
X0621964Y0391231D01*
X0622953Y0391231D01*
X0622973Y0391035D02*
X0621984Y0391035D01*
X0622973Y0391035D01*
X0621984Y0391035D01*
X0622973Y0391035D01*
X0621984Y0391035D01*
X0622973Y0391035D01*
X0621984Y0391035D01*
X0621985Y0390840D02*
X0622974Y0390840D01*
X0621985Y0390840D01*
X0622974Y0390840D01*
X0621985Y0390840D01*
X0622974Y0390840D01*
X0621985Y0390840D01*
X0622974Y0390840D01*
X0622954Y0390645D02*
X0621965Y0390645D01*
X0622954Y0390645D01*
X0621965Y0390645D01*
X0622954Y0390645D01*
X0621965Y0390645D01*
X0622954Y0390645D01*
X0621965Y0390645D01*
X0621931Y0390449D02*
X0622934Y0390449D01*
X0621931Y0390449D01*
X0622934Y0390449D01*
X0621931Y0390449D01*
X0622934Y0390449D01*
X0621931Y0390449D01*
X0622934Y0390449D01*
X0622899Y0390254D02*
X0621869Y0390254D01*
X0622899Y0390254D01*
X0621869Y0390254D01*
X0622899Y0390254D01*
X0621869Y0390254D01*
X0622899Y0390254D01*
X0621869Y0390254D01*
X0621793Y0390059D02*
X0622838Y0390059D01*
X0621793Y0390059D01*
X0622838Y0390059D01*
X0621793Y0390059D01*
X0622838Y0390059D01*
X0621793Y0390059D01*
X0622838Y0390059D01*
X0622776Y0389863D02*
X0621684Y0389863D01*
X0622776Y0389863D01*
X0621684Y0389863D01*
X0622776Y0389863D01*
X0621684Y0389863D01*
X0622776Y0389863D01*
X0621684Y0389863D01*
X0621746Y0389668D02*
X0622698Y0389668D01*
X0621746Y0389668D01*
X0622698Y0389668D01*
X0621746Y0389668D01*
X0622698Y0389668D01*
X0621746Y0389668D01*
X0622698Y0389668D01*
X0622589Y0389472D02*
X0622035Y0389472D01*
X0622589Y0389472D01*
X0622035Y0389472D01*
X0622589Y0389472D01*
X0622035Y0389472D01*
X0622589Y0389472D01*
X0622035Y0389472D01*
X0622324Y0389277D02*
X0622480Y0389277D01*
X0622324Y0389277D01*
X0622480Y0389277D01*
X0622324Y0389277D01*
X0622480Y0389277D01*
X0622324Y0389277D01*
X0622480Y0389277D01*
X0621515Y0388496D02*
X0618225Y0388496D01*
X0618138Y0388366D02*
X0618689Y0389181D01*
X0619054Y0388977D01*
X0619454Y0388851D01*
X0619870Y0388809D01*
X0620286Y0388851D01*
X0620686Y0388977D01*
X0621051Y0389181D01*
X0621602Y0388366D01*
X0621066Y0388067D01*
X0620481Y0387882D01*
X0619870Y0387820D01*
X0619259Y0387882D01*
X0618674Y0388067D01*
X0618138Y0388366D01*
X0618256Y0388300D02*
X0621484Y0388300D01*
X0621134Y0388105D02*
X0618606Y0388105D01*
X0619173Y0387910D02*
X0620567Y0387910D01*
X0620398Y0388886D02*
X0621251Y0388886D01*
X0621383Y0388691D02*
X0618358Y0388691D01*
X0618490Y0388886D02*
X0619342Y0388886D01*
X0618867Y0389082D02*
X0618622Y0389082D01*
X0617994Y0389668D02*
X0617042Y0389668D01*
X0616964Y0389863D02*
X0618056Y0389863D01*
X0617947Y0390059D02*
X0616903Y0390059D01*
X0616841Y0390254D02*
X0617871Y0390254D01*
X0617809Y0390449D02*
X0616806Y0390449D01*
X0616786Y0390645D02*
X0617775Y0390645D01*
X0617705Y0389472D02*
X0617152Y0389472D01*
X0617261Y0389277D02*
X0617416Y0389277D01*
X0620873Y0389082D02*
X0621118Y0389082D01*
X0621760Y0392208D02*
X0622693Y0392208D01*
X0621760Y0392208D01*
X0622693Y0392208D01*
X0621760Y0392208D01*
X0622693Y0392208D01*
X0621760Y0392208D01*
X0622693Y0392208D01*
X0622583Y0392403D02*
X0622049Y0392403D01*
X0622583Y0392403D01*
X0622049Y0392403D01*
X0622583Y0392403D01*
X0622049Y0392403D01*
X0622583Y0392403D01*
X0622049Y0392403D01*
X0622338Y0392598D02*
X0622474Y0392598D01*
X0622338Y0392598D01*
X0622474Y0392598D01*
X0622338Y0392598D01*
X0622474Y0392598D01*
X0622338Y0392598D01*
X0622474Y0392598D01*
X0621118Y0393770D02*
X0618622Y0393770D01*
X0619202Y0393966D02*
X0620538Y0393966D01*
X0619372Y0392989D02*
X0618483Y0392989D01*
X0618616Y0392794D02*
X0618884Y0392794D01*
D37*
X0619870Y0393492D03*
X0619870Y0388374D03*
X0619870Y0181492D03*
X0619870Y0176374D03*
X0337870Y0176374D03*
X0337870Y0181492D03*
X0337870Y0388374D03*
X0337870Y0393492D03*
D38*
X0336528Y0408217D03*
X0338496Y0411366D03*
X0340465Y0408217D03*
X0342433Y0411366D03*
X0344402Y0408217D03*
X0346370Y0411366D03*
X0348339Y0408217D03*
X0350307Y0411366D03*
X0352276Y0408217D03*
X0354244Y0411366D03*
X0356213Y0408217D03*
X0358181Y0411366D03*
X0360150Y0408217D03*
X0334559Y0411366D03*
X0332591Y0408217D03*
X0330622Y0411366D03*
X0328654Y0408217D03*
X0326685Y0411366D03*
X0324717Y0408217D03*
X0322748Y0411366D03*
X0320780Y0408217D03*
X0322748Y0440500D03*
X0320780Y0443650D03*
X0324717Y0443650D03*
X0326685Y0440500D03*
X0328654Y0443650D03*
X0330622Y0440500D03*
X0332591Y0443650D03*
X0334559Y0440500D03*
X0336528Y0443650D03*
X0338496Y0440500D03*
X0340465Y0443650D03*
X0342433Y0440500D03*
X0344402Y0443650D03*
X0346370Y0440500D03*
X0348339Y0443650D03*
X0350307Y0440500D03*
X0352276Y0443650D03*
X0354244Y0440500D03*
X0356213Y0443650D03*
X0358181Y0440500D03*
X0360150Y0443650D03*
X0602780Y0443650D03*
X0604748Y0440500D03*
X0606717Y0443650D03*
X0608685Y0440500D03*
X0610654Y0443650D03*
X0612622Y0440500D03*
X0614591Y0443650D03*
X0616559Y0440500D03*
X0618528Y0443650D03*
X0620496Y0440500D03*
X0622465Y0443650D03*
X0624433Y0440500D03*
X0626402Y0443650D03*
X0628370Y0440500D03*
X0630339Y0443650D03*
X0632307Y0440500D03*
X0634276Y0443650D03*
X0636244Y0440500D03*
X0638213Y0443650D03*
X0640181Y0440500D03*
X0642150Y0443650D03*
X0640181Y0411366D03*
X0638213Y0408217D03*
X0636244Y0411366D03*
X0634276Y0408217D03*
X0632307Y0411366D03*
X0630339Y0408217D03*
X0628370Y0411366D03*
X0626402Y0408217D03*
X0624433Y0411366D03*
X0622465Y0408217D03*
X0620496Y0411366D03*
X0618528Y0408217D03*
X0616559Y0411366D03*
X0614591Y0408217D03*
X0612622Y0411366D03*
X0610654Y0408217D03*
X0608685Y0411366D03*
X0606717Y0408217D03*
X0604748Y0411366D03*
X0602780Y0408217D03*
X0642150Y0408217D03*
X0642150Y0231650D03*
X0640181Y0228500D03*
X0638213Y0231650D03*
X0636244Y0228500D03*
X0634276Y0231650D03*
X0632307Y0228500D03*
X0630339Y0231650D03*
X0628370Y0228500D03*
X0626402Y0231650D03*
X0624433Y0228500D03*
X0622465Y0231650D03*
X0620496Y0228500D03*
X0618528Y0231650D03*
X0616559Y0228500D03*
X0614591Y0231650D03*
X0612622Y0228500D03*
X0610654Y0231650D03*
X0608685Y0228500D03*
X0606717Y0231650D03*
X0604748Y0228500D03*
X0602780Y0231650D03*
X0604748Y0199366D03*
X0602780Y0196217D03*
X0606717Y0196217D03*
X0608685Y0199366D03*
X0610654Y0196217D03*
X0612622Y0199366D03*
X0614591Y0196217D03*
X0616559Y0199366D03*
X0618528Y0196217D03*
X0620496Y0199366D03*
X0622465Y0196217D03*
X0624433Y0199366D03*
X0626402Y0196217D03*
X0628370Y0199366D03*
X0630339Y0196217D03*
X0632307Y0199366D03*
X0634276Y0196217D03*
X0636244Y0199366D03*
X0638213Y0196217D03*
X0640181Y0199366D03*
X0642150Y0196217D03*
X0360150Y0196217D03*
X0358181Y0199366D03*
X0356213Y0196217D03*
X0354244Y0199366D03*
X0352276Y0196217D03*
X0350307Y0199366D03*
X0348339Y0196217D03*
X0346370Y0199366D03*
X0344402Y0196217D03*
X0342433Y0199366D03*
X0340465Y0196217D03*
X0338496Y0199366D03*
X0336528Y0196217D03*
X0334559Y0199366D03*
X0332591Y0196217D03*
X0330622Y0199366D03*
X0328654Y0196217D03*
X0326685Y0199366D03*
X0324717Y0196217D03*
X0322748Y0199366D03*
X0320780Y0196217D03*
X0322748Y0228500D03*
X0320780Y0231650D03*
X0324717Y0231650D03*
X0326685Y0228500D03*
X0328654Y0231650D03*
X0330622Y0228500D03*
X0332591Y0231650D03*
X0334559Y0228500D03*
X0336528Y0231650D03*
X0338496Y0228500D03*
X0340465Y0231650D03*
X0342433Y0228500D03*
X0344402Y0231650D03*
X0346370Y0228500D03*
X0348339Y0231650D03*
X0350307Y0228500D03*
X0352276Y0231650D03*
X0354244Y0228500D03*
X0356213Y0231650D03*
X0358181Y0228500D03*
X0360150Y0231650D03*
D39*
X0316843Y0231650D03*
X0316843Y0196217D03*
X0598843Y0196217D03*
X0598843Y0231650D03*
X0598843Y0408217D03*
X0598843Y0443650D03*
X0316843Y0443650D03*
X0316843Y0408217D03*
D40*
X0316843Y0412154D03*
X0319992Y0414122D03*
X0316843Y0416091D03*
X0319992Y0418059D03*
X0316843Y0420028D03*
X0319992Y0421996D03*
X0316843Y0423965D03*
X0319992Y0425933D03*
X0316843Y0427902D03*
X0319992Y0429870D03*
X0316843Y0431839D03*
X0319992Y0433807D03*
X0316843Y0435776D03*
X0319992Y0437744D03*
X0316843Y0439713D03*
X0598843Y0439713D03*
X0601992Y0437744D03*
X0598843Y0435776D03*
X0601992Y0433807D03*
X0598843Y0431839D03*
X0601992Y0429870D03*
X0598843Y0427902D03*
X0601992Y0425933D03*
X0598843Y0423965D03*
X0601992Y0421996D03*
X0598843Y0420028D03*
X0601992Y0418059D03*
X0598843Y0416091D03*
X0601992Y0414122D03*
X0598843Y0412154D03*
X0598843Y0227713D03*
X0601992Y0225744D03*
X0598843Y0223776D03*
X0601992Y0221807D03*
X0598843Y0219839D03*
X0601992Y0217870D03*
X0598843Y0215902D03*
X0601992Y0213933D03*
X0598843Y0211965D03*
X0601992Y0209996D03*
X0598843Y0208028D03*
X0601992Y0206059D03*
X0598843Y0204091D03*
X0601992Y0202122D03*
X0598843Y0200154D03*
X0319992Y0202122D03*
X0316843Y0200154D03*
X0316843Y0204091D03*
X0319992Y0206059D03*
X0316843Y0208028D03*
X0319992Y0209996D03*
X0316843Y0211965D03*
X0319992Y0213933D03*
X0316843Y0215902D03*
X0319992Y0217870D03*
X0316843Y0219839D03*
X0319992Y0221807D03*
X0316843Y0223776D03*
X0319992Y0225744D03*
X0316843Y0227713D03*
M02*
