%
M48
M72
T01C0.0120
T02C0.0150
T03C0.0200
T04C0.0256
T05C0.0315
T06C0.0400
T07C0.0800
T08C0.1300
%
T01
X10950Y16400
X12000Y16500
X12450Y17350
X12000Y18000
X11000Y18000
X16100Y22000
X17300Y23100
X17500Y24000
X17250Y24800
X18500Y23000
X19000Y23000
X19950Y23900
X20200Y26500
X17500Y29300
X16300Y29000
X16000Y28000
X15500Y26500
X12500Y25555
X11500Y25305
X11500Y24555
X11500Y23805
X12500Y23555
X10850Y26450
X11000Y29000
X13150Y29450
X13625Y30325
X13650Y30900
X12350Y31650
X13650Y31800
X13600Y32450
X13500Y33250
X15000Y32250
X15500Y32500
X15500Y33000
X15250Y34000
X14000Y35500
X12500Y35500
X12000Y37700
X10950Y37600
X12450Y38550
X12000Y39200
X11000Y39200
X16100Y43200
X17300Y44300
X17500Y45200
X17250Y46000
X18500Y44200
X19000Y44200
X19950Y45100
X19850Y42500
X21995Y39795
X23500Y41700
X25500Y40700
X27995Y39795
X28000Y38200
X27000Y38200
X26000Y38200
X21400Y35950
X20400Y35950
X18900Y36500
X17900Y36500
X19000Y37700
X17200Y33250
X18750Y32000
X19500Y32000
X21500Y33500
X22000Y33000
X23000Y33000
X23900Y33500
X26500Y31200
X23500Y31000
X17150Y31450
X11450Y32950
X19850Y21300
X21995Y18595
X23500Y20500
X25500Y19500
X27995Y18595
X28000Y17000
X27000Y17000
X26000Y17000
X28400Y20950
X28300Y22500
X28000Y23000
X30050Y25600
X32150Y24400
X32900Y24350
X32900Y24000
X32700Y23700
X32700Y23250
X33300Y24350
X34100Y24350
X35000Y24350
X35050Y25100
X34100Y25100
X33300Y25150
X32500Y25100
X32416Y25516
X32750Y26500
X32750Y27000
X32750Y27500
X32100Y28700
X31600Y28700
X31300Y27850
X31000Y31000
X33850Y30750
X34400Y31350
X34500Y32550
X35000Y32500
X35500Y32500
X39650Y32950
X40550Y31650
X41850Y31800
X41800Y32450
X41700Y33250
X43200Y32250
X43700Y32500
X43700Y33000
X43450Y34000
X45400Y33250
X46950Y32000
X47700Y32000
X45350Y31450
X45700Y29300
X44500Y29000
X44200Y28000
X43700Y26500
X45450Y24800
X45700Y24000
X45500Y23100
X46700Y23000
X47200Y23000
X48150Y23900
X48400Y26500
X51700Y31000
X51200Y33000
X50200Y33000
X49700Y33500
X52100Y33500
X54700Y31200
X59200Y31000
X59800Y28700
X60300Y28700
X59500Y27850
X60950Y27500
X60950Y27000
X60950Y26500
X60616Y25516
X60700Y25100
X61500Y25150
X62300Y25100
X62300Y24350
X61500Y24350
X61100Y24350
X61100Y24000
X60900Y23700
X60900Y23250
X60350Y24400
X58250Y25600
X56200Y23000
X56500Y22500
X56600Y20950
X56195Y18595
X56200Y17000
X55200Y17000
X54200Y17000
X53700Y19500
X51700Y20500
X50195Y18595
X48050Y21300
X44300Y22000
X40700Y23555
X39700Y23805
X39700Y24555
X39700Y25305
X40700Y25555
X39050Y26450
X39200Y29000
X41350Y29450
X41825Y30325
X41850Y30900
X42200Y35500
X40700Y35500
X40200Y37700
X40650Y38550
X40200Y39200
X39200Y39200
X39150Y37600
X35950Y43250
X33750Y43550
X32700Y44450
X32700Y44900
X32900Y45200
X32900Y45550
X33300Y45550
X33300Y46350
X32500Y46300
X32416Y46716
X32750Y47700
X32750Y48200
X32750Y48700
X32100Y49900
X31600Y49900
X31300Y49050
X30050Y46800
X32150Y45600
X34100Y45550
X34100Y46300
X35050Y46300
X35000Y45550
X36250Y45400
X35950Y46650
X35950Y49100
X35950Y49950
X33850Y51950
X34400Y52550
X35000Y53700
X35500Y53700
X34500Y53750
X31000Y52200
X26500Y52400
X23500Y52200
X23000Y54200
X22000Y54200
X21500Y54700
X19500Y53200
X18750Y53200
X17150Y52650
X15500Y53700
X15500Y54200
X15000Y53450
X13600Y53650
X13650Y53000
X13650Y52100
X13625Y51525
X13150Y50650
X11000Y50200
X10850Y47650
X11500Y46505
X11500Y45755
X11500Y45005
X12500Y44755
X12500Y46755
X15500Y47700
X16000Y49200
X16300Y50200
X17500Y50500
X20200Y47700
X28000Y44200
X28300Y43700
X28400Y42150
X31950Y36200
X32200Y35950
X35950Y28750
X35950Y27900
X35950Y25450
X36250Y24200
X35950Y22050
X33750Y22350
X39200Y18000
X40200Y18000
X40650Y17350
X40200Y16500
X39150Y16400
X47200Y16500
X61950Y22350
X64150Y22050
X64450Y24200
X63200Y24350
X63250Y25100
X64150Y25450
X64150Y27900
X64150Y28750
X62050Y30750
X62600Y31350
X62700Y32550
X63200Y32500
X63700Y32500
X60400Y35950
X60150Y36200
X56200Y38200
X55200Y38200
X54200Y38200
X56195Y39795
X53700Y40700
X51700Y41700
X50195Y39795
X48050Y42500
X47200Y44200
X46700Y44200
X45500Y44300
X45700Y45200
X45450Y46000
X43700Y47700
X44200Y49200
X44500Y50200
X45700Y50500
X45350Y52650
X46950Y53200
X47700Y53200
X49700Y54700
X50200Y54200
X51200Y54200
X52100Y54700
X51700Y52200
X54700Y52400
X59200Y52200
X59800Y49900
X60300Y49900
X59500Y49050
X60950Y48700
X60950Y48200
X60950Y47700
X60616Y46716
X60700Y46300
X60350Y45600
X61100Y45550
X61100Y45200
X60900Y44900
X60900Y44450
X61950Y43550
X62300Y45550
X62300Y46300
X61500Y46350
X61500Y45550
X63200Y45550
X63250Y46300
X64150Y46650
X64450Y45400
X64150Y43250
X58250Y46800
X56200Y44200
X56500Y43700
X56600Y42150
X48150Y45100
X48400Y47700
X44300Y43200
X40700Y44755
X39700Y45005
X39700Y45755
X39700Y46505
X40700Y46755
X39050Y47650
X39200Y50200
X41350Y50650
X41825Y51525
X41850Y52100
X41850Y53000
X41800Y53650
X41700Y54450
X43200Y53450
X43700Y53700
X43700Y54200
X43450Y55200
X42200Y56700
X40700Y56700
X39650Y54150
X40550Y52850
X45400Y54450
X46100Y57700
X47100Y57700
X48600Y57150
X49600Y57150
X60150Y57400
X60400Y57150
X62700Y53750
X63200Y53700
X63700Y53700
X62600Y52550
X62050Y51950
X64150Y49950
X64150Y49100
X49600Y35950
X48600Y35950
X47100Y36500
X46100Y36500
X47200Y37700
X23900Y54700
X21400Y57150
X20400Y57150
X18900Y57700
X17900Y57700
X15250Y55200
X13500Y54450
X12350Y52850
X11450Y54150
X12500Y56700
X14000Y56700
X17200Y54450
X31950Y57400
X32200Y57150
X19000Y16500
T02
X21500Y21500
X19610Y22169
X27000Y21800
X29775Y22975
X30150Y23000
X31750Y22500
X33000Y22305
X35650Y24100
X34700Y26500
X35700Y27000
X34600Y29100
X34265Y29000
X34856Y29400
X34856Y30877
X34635Y31123
X33382Y30354
X33150Y31000
X33020Y29646
X31500Y31000
X31750Y31600
X31500Y32000
X31904Y33854
X33000Y33850
X31000Y34535
X32500Y35500
X27500Y32500
X19500Y32500
X19500Y31500
X19000Y30250
X18000Y29250
X17000Y29000
X32600Y25800
X33000Y25850
X45200Y29000
X46200Y29250
X47200Y30250
X47700Y31500
X47700Y32500
X55700Y32500
X59200Y34535
X60104Y33854
X61200Y33850
X60700Y35500
X59700Y32000
X59950Y31600
X59700Y31000
X61350Y31000
X61582Y30354
X61220Y29646
X62465Y29000
X62800Y29100
X63056Y29400
X63056Y30877
X62835Y31123
X63900Y27000
X62900Y26500
X61200Y25850
X60800Y25800
X63850Y24100
X61200Y22305
X59950Y22500
X58350Y23000
X57975Y22975
X55200Y21800
X49700Y21500
X47810Y22169
X49700Y42700
X47810Y43369
X55200Y43000
X57975Y44175
X58350Y44200
X59950Y43700
X61200Y43505
X63850Y45300
X61200Y47050
X60800Y47000
X62900Y47700
X63900Y48200
X62800Y50300
X62465Y50200
X63056Y50600
X61582Y51554
X61350Y52200
X61220Y50846
X59700Y52200
X59950Y52800
X59700Y53200
X60104Y55054
X61200Y55050
X60700Y56700
X59200Y55735
X55700Y53700
X62835Y52323
X63056Y52077
X47700Y52700
X47700Y53700
X47200Y51450
X46200Y50450
X45200Y50200
X35700Y48200
X34700Y47700
X33000Y47050
X32600Y47000
X35650Y45300
X33000Y43505
X31750Y43700
X30150Y44200
X29775Y44175
X27000Y43000
X21500Y42700
X19610Y43369
X18000Y50450
X17000Y50200
X19000Y51450
X19500Y52700
X19500Y53700
X27500Y53700
X31500Y53200
X31750Y52800
X31500Y52200
X33020Y50846
X33382Y51554
X33150Y52200
X34635Y52323
X34856Y52077
X34856Y50600
X34600Y50300
X34265Y50200
X33000Y55050
X31904Y55054
X31000Y55735
X32500Y56700
T03
X30000Y51150
X29500Y51150
X29500Y50650
X30000Y50650
X29000Y50650
X28500Y50650
X28500Y51150
X29000Y51150
X28000Y51150
X28000Y50650
X28000Y29950
X28000Y29450
X28500Y29450
X29000Y29450
X29000Y29950
X28500Y29950
X29500Y29950
X30000Y29950
X30000Y29450
X29500Y29450
X56200Y29450
X56200Y29950
X56700Y29950
X56700Y29450
X57200Y29450
X57700Y29450
X57700Y29950
X57200Y29950
X58200Y29950
X58200Y29450
X58200Y50650
X58200Y51150
X57700Y51150
X57200Y51150
X57200Y50650
X57700Y50650
X56700Y50650
X56700Y51150
X56200Y51150
X56200Y50650
T04
X40631Y51562
X40631Y53838
X40631Y32638
X40631Y30362
X12431Y30362
X12431Y32638
X12431Y51562
X12431Y53838
T05
X33894Y51200
X33894Y44200
X33894Y30000
X33894Y23000
X62094Y23000
X62094Y30000
X62094Y44200
X62094Y51200
T06
X62100Y41950
X63100Y41950
X64100Y41950
X50700Y45200
X49700Y45200
X35900Y41950
X34900Y41950
X33900Y41950
X22500Y45200
X21500Y45200
X21500Y24000
X22500Y24000
X33900Y20750
X34900Y20750
X35900Y20750
X49700Y24000
X50700Y24000
X62100Y20750
X63100Y20750
X64100Y20750
T07
X41300Y19400
X39500Y19400
X13100Y19400
X11300Y19400
X11300Y40600
X13100Y40600
X39500Y40600
X41300Y40600
T08
X44200Y38200
X44700Y36000
X36500Y40200
X36500Y30000
X36500Y19000
X44200Y17000
X64700Y19000
X64700Y30000
X64700Y40200
X64700Y51200
X44700Y57200
X36500Y51200
X16500Y57200
X16000Y38200
X16500Y36000
X16000Y17000
M30
