G75*
%MOIN*%
%OFA0B0*%
%FSLAX25Y25*%
%IPPOS*%
%LPD*%
%AMOC8*
5,1,8,0,0,1.08239X$1,22.5*
%
%ADD10C,0.13800*%
%ADD11C,0.08800*%
%ADD12C,0.03359*%
%ADD13R,0.12611X0.04343*%
%ADD14C,0.05800*%
%ADD15C,0.04737*%
%ADD16R,0.10800X0.07800*%
%ADD17C,0.32296*%
%ADD18C,0.08200*%
%ADD19C,0.03950*%
%ADD20C,0.05000*%
%ADD21C,0.06706*%
D10*
X0160000Y0170000D03*
X0365000Y0190000D03*
X0442000Y0170000D03*
X0365000Y0300000D03*
X0447000Y0360000D03*
X0442000Y0382000D03*
X0365000Y0402000D03*
X0365000Y0512000D03*
X0447000Y0572000D03*
X0647000Y0512000D03*
X0647000Y0402000D03*
X0647000Y0300000D03*
X0647000Y0190000D03*
X0165000Y0360000D03*
X0160000Y0382000D03*
X0165000Y0572000D03*
D11*
X0131000Y0406000D03*
X0113000Y0406000D03*
X0113000Y0194000D03*
X0131000Y0194000D03*
X0395000Y0194000D03*
X0413000Y0194000D03*
X0413000Y0406000D03*
X0395000Y0406000D03*
D12*
X0406311Y0326378D03*
X0406311Y0303622D03*
X0406311Y0515622D03*
X0406311Y0538378D03*
X0124311Y0538378D03*
X0124311Y0515622D03*
X0124311Y0326378D03*
X0124311Y0303622D03*
D13*
X0112500Y0304500D03*
X0112500Y0311500D03*
X0112500Y0318500D03*
X0112500Y0325500D03*
X0112500Y0516500D03*
X0112500Y0523500D03*
X0112500Y0530500D03*
X0112500Y0537500D03*
X0394500Y0537500D03*
X0394500Y0530500D03*
X0394500Y0523500D03*
X0394500Y0516500D03*
X0394500Y0325500D03*
X0394500Y0318500D03*
X0394500Y0311500D03*
X0394500Y0304500D03*
D14*
X0437000Y0305000D03*
X0442000Y0320000D03*
X0562000Y0285000D03*
X0576000Y0285000D03*
X0582000Y0285000D03*
X0582000Y0497000D03*
X0576000Y0497000D03*
X0562000Y0497000D03*
X0442000Y0532000D03*
X0437000Y0517000D03*
X0300000Y0497000D03*
X0294000Y0497000D03*
X0280000Y0497000D03*
X0160000Y0532000D03*
X0155000Y0517000D03*
X0160000Y0320000D03*
X0155000Y0305000D03*
X0280000Y0285000D03*
X0294000Y0285000D03*
X0300000Y0285000D03*
D15*
X0300000Y0294500D03*
X0295000Y0294500D03*
X0295000Y0299500D03*
X0300000Y0299500D03*
X0290000Y0299500D03*
X0285000Y0299500D03*
X0285000Y0294500D03*
X0290000Y0294500D03*
X0280000Y0294500D03*
X0280000Y0299500D03*
X0280000Y0506500D03*
X0280000Y0511500D03*
X0285000Y0511500D03*
X0290000Y0511500D03*
X0290000Y0506500D03*
X0285000Y0506500D03*
X0295000Y0506500D03*
X0300000Y0506500D03*
X0300000Y0511500D03*
X0295000Y0511500D03*
X0142000Y0590250D03*
X0562000Y0511500D03*
X0562000Y0506500D03*
X0567000Y0506500D03*
X0567000Y0511500D03*
X0572000Y0511500D03*
X0577000Y0511500D03*
X0577000Y0506500D03*
X0572000Y0506500D03*
X0582000Y0506500D03*
X0582000Y0511500D03*
X0620000Y0590250D03*
X0582000Y0299500D03*
X0582000Y0294500D03*
X0577000Y0294500D03*
X0572000Y0294500D03*
X0572000Y0299500D03*
X0577000Y0299500D03*
X0567000Y0299500D03*
X0567000Y0294500D03*
X0562000Y0294500D03*
X0562000Y0299500D03*
D16*
X0478102Y0308307D03*
X0465898Y0308307D03*
X0465898Y0221693D03*
X0478102Y0221693D03*
X0478102Y0433693D03*
X0465898Y0433693D03*
X0465898Y0520307D03*
X0478102Y0520307D03*
X0196102Y0520307D03*
X0183898Y0520307D03*
X0183898Y0433693D03*
X0196102Y0433693D03*
X0196102Y0308307D03*
X0183898Y0308307D03*
X0183898Y0221693D03*
X0196102Y0221693D03*
D17*
X0190000Y0255158D02*
X0190000Y0274842D01*
X0190000Y0467158D02*
X0190000Y0486842D01*
X0472000Y0486842D02*
X0472000Y0467158D01*
X0472000Y0274842D02*
X0472000Y0255158D01*
D18*
X0497000Y0240000D03*
X0507000Y0240000D03*
X0621000Y0207500D03*
X0631000Y0207500D03*
X0641000Y0207500D03*
X0641000Y0419500D03*
X0631000Y0419500D03*
X0621000Y0419500D03*
X0507000Y0452000D03*
X0497000Y0452000D03*
X0359000Y0419500D03*
X0349000Y0419500D03*
X0339000Y0419500D03*
X0225000Y0452000D03*
X0215000Y0452000D03*
X0215000Y0240000D03*
X0225000Y0240000D03*
X0339000Y0207500D03*
X0349000Y0207500D03*
X0359000Y0207500D03*
D19*
X0338937Y0230000D03*
X0338937Y0300000D03*
X0338937Y0442000D03*
X0338937Y0512000D03*
X0620937Y0512000D03*
X0620937Y0442000D03*
X0620937Y0300000D03*
X0620937Y0230000D03*
D20*
X0138435Y0151750D02*
X0138437Y0151869D01*
X0138443Y0151988D01*
X0138453Y0152107D01*
X0138467Y0152225D01*
X0138485Y0152343D01*
X0138506Y0152460D01*
X0138532Y0152576D01*
X0138562Y0152692D01*
X0138595Y0152806D01*
X0138632Y0152919D01*
X0138673Y0153031D01*
X0138718Y0153142D01*
X0138766Y0153251D01*
X0138818Y0153358D01*
X0138874Y0153463D01*
X0138933Y0153567D01*
X0138995Y0153668D01*
X0139061Y0153768D01*
X0139130Y0153865D01*
X0139202Y0153959D01*
X0139278Y0154052D01*
X0139356Y0154141D01*
X0139437Y0154228D01*
X0139522Y0154313D01*
X0139609Y0154394D01*
X0139698Y0154472D01*
X0139791Y0154548D01*
X0139885Y0154620D01*
X0139982Y0154689D01*
X0140082Y0154755D01*
X0140183Y0154817D01*
X0140287Y0154876D01*
X0140392Y0154932D01*
X0140499Y0154984D01*
X0140608Y0155032D01*
X0140719Y0155077D01*
X0140831Y0155118D01*
X0140944Y0155155D01*
X0141058Y0155188D01*
X0141174Y0155218D01*
X0141290Y0155244D01*
X0141407Y0155265D01*
X0141525Y0155283D01*
X0141643Y0155297D01*
X0141762Y0155307D01*
X0141881Y0155313D01*
X0142000Y0155315D01*
X0142119Y0155313D01*
X0142238Y0155307D01*
X0142357Y0155297D01*
X0142475Y0155283D01*
X0142593Y0155265D01*
X0142710Y0155244D01*
X0142826Y0155218D01*
X0142942Y0155188D01*
X0143056Y0155155D01*
X0143169Y0155118D01*
X0143281Y0155077D01*
X0143392Y0155032D01*
X0143501Y0154984D01*
X0143608Y0154932D01*
X0143713Y0154876D01*
X0143817Y0154817D01*
X0143918Y0154755D01*
X0144018Y0154689D01*
X0144115Y0154620D01*
X0144209Y0154548D01*
X0144302Y0154472D01*
X0144391Y0154394D01*
X0144478Y0154313D01*
X0144563Y0154228D01*
X0144644Y0154141D01*
X0144722Y0154052D01*
X0144798Y0153959D01*
X0144870Y0153865D01*
X0144939Y0153768D01*
X0145005Y0153668D01*
X0145067Y0153567D01*
X0145126Y0153463D01*
X0145182Y0153358D01*
X0145234Y0153251D01*
X0145282Y0153142D01*
X0145327Y0153031D01*
X0145368Y0152919D01*
X0145405Y0152806D01*
X0145438Y0152692D01*
X0145468Y0152576D01*
X0145494Y0152460D01*
X0145515Y0152343D01*
X0145533Y0152225D01*
X0145547Y0152107D01*
X0145557Y0151988D01*
X0145563Y0151869D01*
X0145565Y0151750D01*
X0145563Y0151631D01*
X0145557Y0151512D01*
X0145547Y0151393D01*
X0145533Y0151275D01*
X0145515Y0151157D01*
X0145494Y0151040D01*
X0145468Y0150924D01*
X0145438Y0150808D01*
X0145405Y0150694D01*
X0145368Y0150581D01*
X0145327Y0150469D01*
X0145282Y0150358D01*
X0145234Y0150249D01*
X0145182Y0150142D01*
X0145126Y0150037D01*
X0145067Y0149933D01*
X0145005Y0149832D01*
X0144939Y0149732D01*
X0144870Y0149635D01*
X0144798Y0149541D01*
X0144722Y0149448D01*
X0144644Y0149359D01*
X0144563Y0149272D01*
X0144478Y0149187D01*
X0144391Y0149106D01*
X0144302Y0149028D01*
X0144209Y0148952D01*
X0144115Y0148880D01*
X0144018Y0148811D01*
X0143918Y0148745D01*
X0143817Y0148683D01*
X0143713Y0148624D01*
X0143608Y0148568D01*
X0143501Y0148516D01*
X0143392Y0148468D01*
X0143281Y0148423D01*
X0143169Y0148382D01*
X0143056Y0148345D01*
X0142942Y0148312D01*
X0142826Y0148282D01*
X0142710Y0148256D01*
X0142593Y0148235D01*
X0142475Y0148217D01*
X0142357Y0148203D01*
X0142238Y0148193D01*
X0142119Y0148187D01*
X0142000Y0148185D01*
X0141881Y0148187D01*
X0141762Y0148193D01*
X0141643Y0148203D01*
X0141525Y0148217D01*
X0141407Y0148235D01*
X0141290Y0148256D01*
X0141174Y0148282D01*
X0141058Y0148312D01*
X0140944Y0148345D01*
X0140831Y0148382D01*
X0140719Y0148423D01*
X0140608Y0148468D01*
X0140499Y0148516D01*
X0140392Y0148568D01*
X0140287Y0148624D01*
X0140183Y0148683D01*
X0140082Y0148745D01*
X0139982Y0148811D01*
X0139885Y0148880D01*
X0139791Y0148952D01*
X0139698Y0149028D01*
X0139609Y0149106D01*
X0139522Y0149187D01*
X0139437Y0149272D01*
X0139356Y0149359D01*
X0139278Y0149448D01*
X0139202Y0149541D01*
X0139130Y0149635D01*
X0139061Y0149732D01*
X0138995Y0149832D01*
X0138933Y0149933D01*
X0138874Y0150037D01*
X0138818Y0150142D01*
X0138766Y0150249D01*
X0138718Y0150358D01*
X0138673Y0150469D01*
X0138632Y0150581D01*
X0138595Y0150694D01*
X0138562Y0150808D01*
X0138532Y0150924D01*
X0138506Y0151040D01*
X0138485Y0151157D01*
X0138467Y0151275D01*
X0138453Y0151393D01*
X0138443Y0151512D01*
X0138437Y0151631D01*
X0138435Y0151750D01*
D21*
X0142000Y0151750D03*
M02*
