%
M48
M72
T01C0.0120
T02C0.0150
T03C0.0200
T04C0.0256
T05C0.0315
T06C0.0400
T07C0.0800
T08C0.1300
%
T01
X10843Y11293
X11893Y11393
X12343Y12243
X11893Y12893
X10893Y12893
X15993Y16893
X17193Y17993
X17393Y18893
X17143Y19693
X15393Y21393
X15893Y22893
X16193Y23893
X16893Y23893
X17243Y24243
X17593Y24243
X18893Y25143
X19393Y26393
X19393Y26893
X19393Y27393
X18643Y26893
X17043Y26343
X15393Y27393
X14893Y27143
X14893Y28093
X13393Y28143
X13493Y27343
X13543Y26693
X13543Y25793
X13518Y25218
X13043Y24343
X11993Y25043
X11893Y25693
X11293Y24943
X10893Y23893
X10743Y21343
X11393Y20198
X11393Y19448
X11393Y18698
X12393Y18448
X12393Y20448
X18393Y17893
X18893Y17893
X19504Y17063
X19743Y16193
X21393Y16393
X23393Y15393
X25393Y14393
X27888Y13488
X27893Y11893
X26893Y11893
X25893Y11893
X21888Y13488
X18893Y11393
X26893Y16693
X28193Y17393
X27893Y17893
X29893Y17893
X30493Y17893
X31093Y17393
X32693Y18943
X33093Y18943
X33393Y18743
X33643Y19193
X34293Y17993
X35893Y18193
X35893Y17593
X36393Y17393
X35893Y16793
X36143Y18993
X35843Y20393
X35843Y21393
X34893Y21393
X34393Y21393
X33893Y21393
X33393Y21393
X33393Y20743
X33043Y20743
X32643Y20743
X32393Y20393
X32643Y21493
X32393Y21793
X32693Y22293
X32393Y22443
X31693Y23543
X31043Y23093
X29943Y22593
X29743Y22193
X30143Y21793
X29893Y20193
X29893Y19393
X31643Y19193
X34393Y20843
X34393Y21893
X33893Y22393
X35093Y22393
X35443Y22393
X35843Y22393
X35843Y23643
X35743Y23993
X36443Y23643
X34949Y24793
X34408Y24293
X34143Y24043
X31643Y25293
X31309Y25777
X31293Y26193
X32893Y27593
X34393Y27443
X35393Y27393
X34528Y26016
X34749Y25770
X39093Y23893
X39493Y24943
X40193Y25043
X40093Y25693
X40443Y26543
X41743Y26693
X41693Y27343
X41593Y28143
X40143Y27843
X39543Y27843
X41743Y25793
X41718Y25218
X41243Y24343
X44393Y23893
X45093Y23893
X45443Y24243
X45793Y24243
X47093Y25143
X47593Y26393
X47593Y26893
X47593Y27393
X46843Y26893
X45243Y26343
X43593Y27393
X43093Y27143
X43093Y28093
X45293Y28143
X42093Y30393
X40593Y30393
X40093Y32593
X40543Y33443
X40093Y34093
X39093Y34093
X39043Y32493
X35043Y30893
X34793Y31393
X27893Y33093
X26893Y33093
X25893Y33093
X27888Y34688
X25393Y35593
X23393Y36593
X21393Y37593
X19743Y37393
X19504Y38263
X18893Y39093
X18393Y39093
X17193Y39193
X17393Y40093
X17143Y40893
X15393Y42593
X15893Y44093
X16193Y45093
X16893Y45093
X17243Y45443
X17593Y45443
X18893Y46343
X17043Y47543
X18643Y48093
X19393Y48093
X19393Y47593
X19393Y48593
X21393Y49593
X21893Y49093
X22893Y49093
X23793Y49593
X23393Y47093
X26393Y47293
X27393Y48593
X31293Y47393
X31309Y46977
X31643Y46493
X34143Y45243
X34408Y45493
X34949Y45993
X34749Y46970
X34528Y47216
X34393Y48643
X35393Y48593
X32893Y48793
X35043Y52093
X34793Y52593
X40593Y51593
X42093Y51593
X41593Y49343
X41693Y48543
X41743Y47893
X41743Y46993
X41718Y46418
X41243Y45543
X40193Y46243
X40093Y46893
X39493Y46143
X39093Y45093
X36443Y44843
X35843Y44843
X35743Y45193
X35843Y43593
X35443Y43593
X35093Y43593
X34393Y43093
X34393Y42593
X33893Y42593
X33393Y42593
X32643Y42693
X32393Y42993
X32693Y43493
X32393Y43643
X31693Y44743
X31043Y44293
X29943Y43793
X29743Y43393
X30143Y42993
X29893Y41393
X29893Y40593
X29893Y39093
X30493Y39093
X31093Y38593
X30893Y37093
X31393Y37093
X31893Y37093
X32393Y37093
X32693Y37093
X33093Y37093
X35893Y37993
X36393Y38593
X35893Y38793
X35893Y39393
X36143Y40193
X34293Y39193
X33393Y39943
X33093Y40143
X32693Y40143
X33643Y40393
X33393Y41943
X33043Y41943
X32643Y41943
X32393Y41593
X31643Y40393
X34393Y42043
X34893Y42593
X35843Y42593
X35843Y41593
X33893Y43593
X38943Y42543
X39593Y41398
X39593Y40648
X39593Y39898
X40593Y39648
X40593Y41648
X43593Y42593
X44093Y44093
X44393Y45093
X45093Y45093
X45443Y45443
X45793Y45443
X47093Y46343
X47593Y47593
X47593Y48093
X47593Y48593
X46843Y48093
X45243Y47543
X43593Y48593
X43093Y48343
X43093Y49293
X45293Y49343
X48493Y52043
X49493Y52043
X47493Y52593
X46493Y52593
X49593Y49593
X50093Y49093
X51093Y49093
X51993Y49593
X51593Y47093
X54593Y47293
X55593Y48593
X59493Y47393
X59509Y46977
X59843Y46493
X59893Y44743
X59243Y44293
X60593Y43643
X60893Y43493
X60593Y42993
X60843Y42693
X61593Y42593
X62093Y42593
X62593Y42593
X62593Y43093
X63093Y42593
X62593Y42043
X61593Y41943
X61243Y41943
X60843Y41943
X60593Y41593
X59843Y40393
X60893Y40143
X61293Y40143
X61593Y39943
X61843Y40393
X62493Y39193
X64093Y39393
X64093Y38793
X64593Y38593
X64093Y37993
X64343Y40193
X64043Y41593
X64043Y42593
X64043Y43593
X63643Y43593
X63293Y43593
X62093Y43593
X62343Y45243
X62608Y45493
X63149Y45993
X62949Y46970
X62728Y47216
X62593Y48643
X63593Y48593
X61093Y48793
X63243Y52093
X62993Y52593
X63943Y45193
X64043Y44843
X64643Y44843
X58343Y42993
X57943Y43393
X58143Y43793
X58093Y41393
X58093Y40593
X58093Y39093
X58693Y39093
X59293Y38593
X59093Y37093
X59593Y37093
X60093Y37093
X60593Y37093
X60893Y37093
X61293Y37093
X56493Y37043
X56393Y38593
X56093Y39093
X55093Y37893
X53593Y35593
X51593Y36593
X49593Y37593
X47943Y37393
X47704Y38263
X47093Y39093
X46593Y39093
X45393Y39193
X45593Y40093
X45343Y40893
X48043Y39993
X48293Y42593
X44193Y38093
X50088Y34688
X47093Y32593
X47493Y31393
X46493Y31393
X48493Y30843
X49493Y30843
X49593Y28393
X50093Y27893
X51093Y27893
X51993Y28393
X51593Y25893
X54593Y26093
X55593Y27393
X59493Y26193
X59509Y25777
X59843Y25293
X59893Y23543
X59243Y23093
X60593Y22443
X60893Y22293
X60593Y21793
X60843Y21493
X60843Y20743
X61243Y20743
X61593Y20743
X61593Y21393
X62093Y21393
X62593Y21393
X62593Y21893
X62093Y22393
X63293Y22393
X63643Y22393
X64043Y22393
X64043Y21393
X63093Y21393
X62593Y20843
X64043Y20393
X64343Y18993
X64093Y18193
X64093Y17593
X64593Y17393
X64093Y16793
X62493Y17993
X61593Y18743
X61293Y18943
X60893Y18943
X61843Y19193
X60593Y20393
X59843Y19193
X58093Y19393
X58093Y20193
X58343Y21793
X57943Y22193
X58143Y22593
X62343Y24043
X62608Y24293
X63149Y24793
X62949Y25770
X62728Y26016
X63593Y27393
X62593Y27443
X61093Y27593
X63243Y30893
X62993Y31393
X56093Y33093
X55093Y33093
X54093Y33093
X56088Y34688
X63943Y23993
X64043Y23643
X64643Y23643
X59293Y17393
X58693Y17893
X58093Y17893
X56393Y17393
X56093Y17893
X55093Y16693
X56493Y15843
X59093Y15893
X59593Y15893
X60093Y15893
X60593Y15893
X60893Y15893
X61293Y15893
X56088Y13488
X56093Y11893
X55093Y11893
X54093Y11893
X53593Y14393
X51593Y15393
X49593Y16393
X47943Y16193
X47704Y17063
X47093Y17893
X46593Y17893
X45393Y17993
X45593Y18893
X45343Y19693
X43593Y21393
X44093Y22893
X40593Y20448
X39593Y20198
X39593Y19448
X39593Y18698
X40593Y18448
X44193Y16893
X48043Y18793
X48293Y21393
X38943Y21343
X33093Y15893
X32693Y15893
X32393Y15893
X31893Y15893
X31393Y15893
X30893Y15893
X28293Y15843
X20093Y21393
X19843Y18793
X23393Y25893
X22893Y27893
X21893Y27893
X21393Y28393
X23793Y28393
X26393Y26093
X27393Y27393
X21293Y30843
X20293Y30843
X19293Y31393
X18293Y31393
X18893Y32593
X21888Y34688
X26893Y37893
X28193Y38593
X27893Y39093
X28293Y37043
X20093Y42593
X19843Y39993
X15993Y38093
X12393Y39648
X11393Y39898
X11393Y40648
X11393Y41398
X12393Y41648
X10743Y42543
X10893Y45093
X11293Y46143
X11993Y46243
X11893Y46893
X12243Y47743
X13543Y47893
X13493Y48543
X13393Y49343
X11943Y49043
X11343Y49043
X13543Y46993
X13518Y46418
X13043Y45543
X14893Y48343
X15393Y48593
X14893Y49293
X17093Y49343
X13893Y51593
X12393Y51593
X18293Y52593
X19293Y52593
X20293Y52043
X21293Y52043
X39543Y49043
X40143Y49043
X40443Y47743
X13893Y30393
X12393Y30393
X11893Y32593
X12343Y33443
X11893Y34093
X10893Y34093
X10843Y32493
X17093Y28143
X12243Y26543
X11943Y27843
X11343Y27843
X39093Y12893
X40093Y12893
X40543Y12243
X40093Y11393
X39043Y11293
X47093Y11393
X50088Y13488
T02
X48093Y29053
X19893Y29053
X19893Y50253
X48093Y50253
T03
X56093Y46043
X56093Y45543
X56593Y45543
X56593Y46043
X57093Y46043
X57093Y45543
X57593Y45543
X57593Y46043
X58093Y46043
X58093Y45543
X58093Y24843
X58093Y24343
X57593Y24343
X57093Y24343
X56593Y24343
X56093Y24343
X56093Y24843
X56593Y24843
X57093Y24843
X57593Y24843
X29893Y24843
X29393Y24843
X29393Y24343
X28893Y24343
X28393Y24343
X27893Y24343
X27893Y24843
X28393Y24843
X28893Y24843
X29893Y24343
X29893Y45543
X29393Y45543
X28893Y45543
X28393Y45543
X27893Y45543
X27893Y46043
X28393Y46043
X28893Y46043
X29393Y46043
X29893Y46043
T04
X40524Y46456
X40524Y48731
X12324Y48731
X12324Y46456
X12324Y27531
X12324Y25256
X40524Y25256
X40524Y27531
T05
X33787Y17893
X61987Y17893
X61987Y39093
X33787Y39093
T06
X22393Y40093
X21393Y40093
X15393Y29893
X14393Y29893
X21393Y18893
X22393Y18893
X42593Y29893
X43593Y29893
X49593Y40093
X50593Y40093
X43593Y51093
X42593Y51093
X15393Y51093
X14393Y51093
X49593Y18893
X50593Y18893
T07
X41193Y14293
X39393Y14293
X12993Y14293
X11193Y14293
X11193Y35493
X12993Y35493
X39393Y35493
X41193Y35493
T08
X44093Y33093
X44593Y30893
X36393Y35093
X36393Y24893
X36393Y13893
X44093Y11893
X64593Y13893
X64593Y24893
X64593Y35093
X64593Y46093
X44593Y52093
X36393Y46093
X16393Y52093
X15893Y33093
X16393Y30893
X15893Y11893
M30
